%TF.GenerationSoftware,KiCad,Pcbnew,9.0.7*%
%TF.CreationDate,2026-03-13T12:40:06+00:00*%
%TF.ProjectId,OSDSwitch,4f534453-7769-4746-9368-2e6b69636164,rev?*%
%TF.SameCoordinates,Original*%
%TF.FileFunction,Copper,L2,Bot*%
%TF.FilePolarity,Positive*%
%FSLAX46Y46*%
G04 Gerber Fmt 4.6, Leading zero omitted, Abs format (unit mm)*
G04 Created by KiCad (PCBNEW 9.0.7) date 2026-03-13 12:40:06*
%MOMM*%
%LPD*%
G01*
G04 APERTURE LIST*
%TA.AperFunction,ComponentPad*%
%ADD10R,1.700000X1.700000*%
%TD*%
%TA.AperFunction,ComponentPad*%
%ADD11C,1.700000*%
%TD*%
%TA.AperFunction,ViaPad*%
%ADD12C,0.600000*%
%TD*%
%TA.AperFunction,Conductor*%
%ADD13C,0.200000*%
%TD*%
%TA.AperFunction,Profile*%
%ADD14C,0.050000*%
%TD*%
G04 APERTURE END LIST*
D10*
%TO.P,J4,1,Pin_1*%
%TO.N,Net-(J4-Pin_1)*%
X154940000Y-90170000D03*
D11*
%TO.P,J4,2,Pin_2*%
%TO.N,/RED_IN*%
X154940000Y-92710000D03*
%TO.P,J4,3,Pin_3*%
%TO.N,/GREEN_IN*%
X154940000Y-95250000D03*
%TO.P,J4,4,Pin_4*%
%TO.N,/BLUE_IN*%
X154940000Y-97790000D03*
%TO.P,J4,5,Pin_5*%
%TO.N,GND*%
X154940000Y-100330000D03*
%TD*%
D10*
%TO.P,J3,1,Pin_1*%
%TO.N,GND*%
X168910000Y-101600000D03*
D11*
%TO.P,J3,2,Pin_2*%
%TO.N,Net-(IC1-S3A)*%
X168910000Y-104140000D03*
%TO.P,J3,3,Pin_3*%
%TO.N,Net-(J3-Pin_3)*%
X168910000Y-106680000D03*
%TD*%
D10*
%TO.P,J1,1,Pin_1*%
%TO.N,GND*%
X161290000Y-101600000D03*
D11*
%TO.P,J1,2,Pin_2*%
%TO.N,Net-(IC1-S1A)*%
X161290000Y-104140000D03*
%TO.P,J1,3,Pin_3*%
%TO.N,Net-(J1-Pin_3)*%
X161290000Y-106680000D03*
%TD*%
D10*
%TO.P,J5,1,Pin_1*%
%TO.N,/RED_OUT*%
X175260000Y-91440000D03*
D11*
%TO.P,J5,2,Pin_2*%
%TO.N,/GREEN_OUT*%
X175260000Y-93980000D03*
%TO.P,J5,3,Pin_3*%
%TO.N,/BLUE_OUT*%
X175260000Y-96520000D03*
%TO.P,J5,4,Pin_4*%
%TO.N,GND*%
X175260000Y-99060000D03*
%TD*%
D10*
%TO.P,J2,1,Pin_1*%
%TO.N,GND*%
X165100000Y-101600000D03*
D11*
%TO.P,J2,2,Pin_2*%
%TO.N,Net-(IC1-S2A)*%
X165100000Y-104140000D03*
%TO.P,J2,3,Pin_3*%
%TO.N,Net-(J2-Pin_3)*%
X165100000Y-106680000D03*
%TD*%
D10*
%TO.P,J6,1,Pin_1*%
%TO.N,/OSD_VID*%
X154940000Y-83820000D03*
D11*
%TO.P,J6,2,Pin_2*%
%TO.N,GND*%
X154940000Y-81280000D03*
%TD*%
D12*
%TO.N,GND*%
X161290000Y-90043000D03*
X169722800Y-92481400D03*
X165423000Y-94557000D03*
X171323000Y-99314000D03*
X168148000Y-92583000D03*
X162179000Y-98679000D03*
X173228000Y-90551000D03*
X157226000Y-89154000D03*
X163449000Y-88138000D03*
X162179000Y-96520000D03*
X167767000Y-97663000D03*
X160020000Y-94488000D03*
X157480000Y-93980000D03*
X157480000Y-96520000D03*
X162433000Y-91567000D03*
X157480000Y-91694000D03*
X160782000Y-92456000D03*
X163576000Y-90297000D03*
X159258000Y-86614000D03*
X164846000Y-99187000D03*
X171704000Y-89154000D03*
X167640000Y-90043000D03*
X167640000Y-87757000D03*
X169164000Y-96266000D03*
X160020000Y-96520000D03*
X171323000Y-92964000D03*
X160274000Y-98806000D03*
X171196000Y-96266000D03*
X170180000Y-90170000D03*
%TO.N,Net-(IC1-S2A)*%
X164084000Y-98552000D03*
%TO.N,Net-(IC1-S3A)*%
X166624000Y-98044000D03*
%TO.N,/OSD_VID*%
X167640000Y-99060000D03*
X168910000Y-90170000D03*
%TO.N,Net-(IC1-S1A)*%
X163322000Y-92405200D03*
%TO.N,/RED_OUT*%
X163195000Y-89535000D03*
%TO.N,/BLUE_IN*%
X169443400Y-94740000D03*
%TD*%
D13*
%TO.N,Net-(IC1-S2A)*%
X164084000Y-98552000D02*
X163576000Y-99060000D01*
X163576000Y-102616000D02*
X165100000Y-104140000D01*
X163576000Y-99060000D02*
X163576000Y-102616000D01*
%TO.N,Net-(IC1-S3A)*%
X166624000Y-98044000D02*
X166878000Y-98298000D01*
X166878000Y-98298000D02*
X166878000Y-102108000D01*
X166878000Y-102108000D02*
X168910000Y-104140000D01*
%TO.N,/OSD_VID*%
X170510200Y-91770200D02*
X170510200Y-96189800D01*
X170510200Y-96189800D02*
X167640000Y-99060000D01*
X168910000Y-90170000D02*
X170510200Y-91770200D01*
%TO.N,Net-(IC1-S1A)*%
X163118800Y-92405200D02*
X162814000Y-92710000D01*
X163322000Y-92405200D02*
X163118800Y-92405200D01*
X162814000Y-102616000D02*
X161290000Y-104140000D01*
X162814000Y-92710000D02*
X162814000Y-102616000D01*
%TO.N,/RED_OUT*%
X172720000Y-91440000D02*
X175260000Y-91440000D01*
X164084000Y-88646000D02*
X169926000Y-88646000D01*
X169926000Y-88646000D02*
X172720000Y-91440000D01*
X163195000Y-89535000D02*
X164084000Y-88646000D01*
%TO.N,/BLUE_IN*%
X158750000Y-91948000D02*
X158750000Y-96774000D01*
X168910000Y-94206600D02*
X168910000Y-91948000D01*
X154940000Y-97536000D02*
X154940000Y-97790000D01*
X169443400Y-94740000D02*
X168910000Y-94206600D01*
X168910000Y-91948000D02*
X167894000Y-90932000D01*
X157734000Y-97790000D02*
X154940000Y-97790000D01*
X158750000Y-96774000D02*
X157734000Y-97790000D01*
X159766000Y-90932000D02*
X158750000Y-91948000D01*
X167894000Y-90932000D02*
X159766000Y-90932000D01*
%TD*%
%TA.AperFunction,Conductor*%
%TO.N,GND*%
G36*
X176473039Y-80029685D02*
G01*
X176518794Y-80082489D01*
X176530000Y-80134000D01*
X176530000Y-90448910D01*
X176510315Y-90515949D01*
X176457511Y-90561704D01*
X176388353Y-90571648D01*
X176324797Y-90542623D01*
X176302898Y-90517802D01*
X176254551Y-90445446D01*
X176188230Y-90401132D01*
X176188229Y-90401131D01*
X176129752Y-90389500D01*
X176129748Y-90389500D01*
X174390252Y-90389500D01*
X174390247Y-90389500D01*
X174331770Y-90401131D01*
X174331769Y-90401132D01*
X174265447Y-90445447D01*
X174221132Y-90511769D01*
X174221131Y-90511770D01*
X174209500Y-90570247D01*
X174209500Y-91015500D01*
X174189815Y-91082539D01*
X174137011Y-91128294D01*
X174085500Y-91139500D01*
X172895833Y-91139500D01*
X172828794Y-91119815D01*
X172808152Y-91103181D01*
X170110512Y-88405541D01*
X170110504Y-88405535D01*
X170041995Y-88365982D01*
X170041990Y-88365979D01*
X170016513Y-88359152D01*
X169965562Y-88345500D01*
X164044438Y-88345500D01*
X164006224Y-88355739D01*
X163968009Y-88365979D01*
X163968004Y-88365982D01*
X163899495Y-88405535D01*
X163899487Y-88405541D01*
X163306847Y-88998181D01*
X163245524Y-89031666D01*
X163219166Y-89034500D01*
X163129108Y-89034500D01*
X163001812Y-89068608D01*
X162887686Y-89134500D01*
X162887683Y-89134502D01*
X162794502Y-89227683D01*
X162794500Y-89227686D01*
X162728608Y-89341812D01*
X162694500Y-89469108D01*
X162694500Y-89600891D01*
X162728608Y-89728187D01*
X162752461Y-89769500D01*
X162794500Y-89842314D01*
X162887686Y-89935500D01*
X163001814Y-90001392D01*
X163129108Y-90035500D01*
X163129110Y-90035500D01*
X163260890Y-90035500D01*
X163260892Y-90035500D01*
X163388186Y-90001392D01*
X163502314Y-89935500D01*
X163595500Y-89842314D01*
X163661392Y-89728186D01*
X163695500Y-89600892D01*
X163695500Y-89510832D01*
X163715185Y-89443793D01*
X163731819Y-89423151D01*
X164172152Y-88982819D01*
X164233475Y-88949334D01*
X164259833Y-88946500D01*
X169750167Y-88946500D01*
X169817206Y-88966185D01*
X169837848Y-88982819D01*
X172535489Y-91680460D01*
X172604012Y-91720022D01*
X172680438Y-91740500D01*
X172759562Y-91740500D01*
X174085500Y-91740500D01*
X174152539Y-91760185D01*
X174198294Y-91812989D01*
X174209500Y-91864500D01*
X174209500Y-92309752D01*
X174221131Y-92368229D01*
X174221132Y-92368230D01*
X174265447Y-92434552D01*
X174331769Y-92478867D01*
X174331770Y-92478868D01*
X174390247Y-92490499D01*
X174390250Y-92490500D01*
X174390252Y-92490500D01*
X176129750Y-92490500D01*
X176129751Y-92490499D01*
X176144568Y-92487552D01*
X176188229Y-92478868D01*
X176188229Y-92478867D01*
X176188231Y-92478867D01*
X176254552Y-92434552D01*
X176298867Y-92368231D01*
X176298867Y-92368230D01*
X176302898Y-92362198D01*
X176356510Y-92317393D01*
X176425835Y-92308686D01*
X176488863Y-92338841D01*
X176525582Y-92398284D01*
X176530000Y-92431089D01*
X176530000Y-93721041D01*
X176510315Y-93788080D01*
X176457511Y-93833835D01*
X176388353Y-93843779D01*
X176324797Y-93814754D01*
X176287023Y-93755976D01*
X176284383Y-93745232D01*
X176270131Y-93673587D01*
X176270130Y-93673580D01*
X176190941Y-93482402D01*
X176075977Y-93310345D01*
X176075975Y-93310342D01*
X175929657Y-93164024D01*
X175843626Y-93106541D01*
X175757598Y-93049059D01*
X175566420Y-92969870D01*
X175566412Y-92969868D01*
X175363469Y-92929500D01*
X175363465Y-92929500D01*
X175156535Y-92929500D01*
X175156530Y-92929500D01*
X174953587Y-92969868D01*
X174953579Y-92969870D01*
X174762403Y-93049058D01*
X174590342Y-93164024D01*
X174444024Y-93310342D01*
X174329058Y-93482403D01*
X174249870Y-93673579D01*
X174249868Y-93673587D01*
X174209500Y-93876530D01*
X174209500Y-94083469D01*
X174249868Y-94286412D01*
X174249870Y-94286420D01*
X174329058Y-94477596D01*
X174444024Y-94649657D01*
X174590342Y-94795975D01*
X174590345Y-94795977D01*
X174762402Y-94910941D01*
X174953580Y-94990130D01*
X175156530Y-95030499D01*
X175156534Y-95030500D01*
X175156535Y-95030500D01*
X175363466Y-95030500D01*
X175363467Y-95030499D01*
X175566420Y-94990130D01*
X175757598Y-94910941D01*
X175929655Y-94795977D01*
X176075977Y-94649655D01*
X176190941Y-94477598D01*
X176270130Y-94286420D01*
X176279571Y-94238958D01*
X176284383Y-94214767D01*
X176316768Y-94152856D01*
X176377483Y-94118282D01*
X176447253Y-94122021D01*
X176503925Y-94162887D01*
X176529506Y-94227905D01*
X176530000Y-94238958D01*
X176530000Y-96261041D01*
X176510315Y-96328080D01*
X176457511Y-96373835D01*
X176388353Y-96383779D01*
X176324797Y-96354754D01*
X176287023Y-96295976D01*
X176284383Y-96285232D01*
X176270131Y-96213587D01*
X176270130Y-96213580D01*
X176190941Y-96022402D01*
X176075977Y-95850345D01*
X176075975Y-95850342D01*
X175929657Y-95704024D01*
X175843626Y-95646541D01*
X175757598Y-95589059D01*
X175566420Y-95509870D01*
X175566412Y-95509868D01*
X175363469Y-95469500D01*
X175363465Y-95469500D01*
X175156535Y-95469500D01*
X175156530Y-95469500D01*
X174953587Y-95509868D01*
X174953579Y-95509870D01*
X174762403Y-95589058D01*
X174590342Y-95704024D01*
X174444024Y-95850342D01*
X174329058Y-96022403D01*
X174249870Y-96213579D01*
X174249868Y-96213587D01*
X174209500Y-96416530D01*
X174209500Y-96623469D01*
X174249868Y-96826412D01*
X174249870Y-96826420D01*
X174329058Y-97017596D01*
X174444024Y-97189657D01*
X174590342Y-97335975D01*
X174590345Y-97335977D01*
X174762402Y-97450941D01*
X174953580Y-97530130D01*
X175156530Y-97570499D01*
X175156534Y-97570500D01*
X175156535Y-97570500D01*
X175363466Y-97570500D01*
X175363467Y-97570499D01*
X175566420Y-97530130D01*
X175757598Y-97450941D01*
X175929655Y-97335977D01*
X176075977Y-97189655D01*
X176190941Y-97017598D01*
X176270130Y-96826420D01*
X176279571Y-96778958D01*
X176284383Y-96754767D01*
X176316768Y-96692856D01*
X176377483Y-96658282D01*
X176447253Y-96662021D01*
X176503925Y-96702887D01*
X176529506Y-96767905D01*
X176530000Y-96778958D01*
X176530000Y-98803602D01*
X176510315Y-98870641D01*
X176457511Y-98916396D01*
X176388353Y-98926340D01*
X176324797Y-98897315D01*
X176287023Y-98838537D01*
X176284383Y-98827793D01*
X176269651Y-98753733D01*
X176269649Y-98753725D01*
X176190498Y-98562639D01*
X176190495Y-98562633D01*
X176158621Y-98514932D01*
X176158620Y-98514931D01*
X175742962Y-98930590D01*
X175725925Y-98867007D01*
X175660099Y-98752993D01*
X175567007Y-98659901D01*
X175452993Y-98594075D01*
X175389409Y-98577037D01*
X175805067Y-98161378D01*
X175805067Y-98161377D01*
X175757359Y-98129500D01*
X175566274Y-98050350D01*
X175566266Y-98050348D01*
X175363420Y-98010000D01*
X175156579Y-98010000D01*
X174953733Y-98050348D01*
X174953725Y-98050350D01*
X174762641Y-98129500D01*
X174762631Y-98129505D01*
X174714932Y-98161377D01*
X174714932Y-98161378D01*
X175130591Y-98577037D01*
X175067007Y-98594075D01*
X174952993Y-98659901D01*
X174859901Y-98752993D01*
X174794075Y-98867007D01*
X174777037Y-98930591D01*
X174361378Y-98514932D01*
X174361377Y-98514932D01*
X174329505Y-98562631D01*
X174329500Y-98562641D01*
X174250350Y-98753725D01*
X174250348Y-98753733D01*
X174210000Y-98956579D01*
X174210000Y-99163420D01*
X174250348Y-99366266D01*
X174250350Y-99366274D01*
X174329500Y-99557359D01*
X174361377Y-99605067D01*
X174361378Y-99605067D01*
X174777037Y-99189408D01*
X174794075Y-99252993D01*
X174859901Y-99367007D01*
X174952993Y-99460099D01*
X175067007Y-99525925D01*
X175130590Y-99542962D01*
X174714931Y-99958620D01*
X174714932Y-99958621D01*
X174762633Y-99990495D01*
X174762639Y-99990498D01*
X174953725Y-100069649D01*
X174953733Y-100069651D01*
X175156579Y-100109999D01*
X175156583Y-100110000D01*
X175363417Y-100110000D01*
X175363420Y-100109999D01*
X175566266Y-100069651D01*
X175566274Y-100069649D01*
X175757366Y-99990495D01*
X175805066Y-99958621D01*
X175805067Y-99958620D01*
X175389409Y-99542962D01*
X175452993Y-99525925D01*
X175567007Y-99460099D01*
X175660099Y-99367007D01*
X175725925Y-99252993D01*
X175742962Y-99189409D01*
X176158620Y-99605067D01*
X176158621Y-99605066D01*
X176190495Y-99557366D01*
X176269649Y-99366274D01*
X176284382Y-99292207D01*
X176316767Y-99230295D01*
X176377483Y-99195721D01*
X176447252Y-99199460D01*
X176503924Y-99240326D01*
X176529506Y-99305344D01*
X176530000Y-99316397D01*
X176530000Y-110366000D01*
X176510315Y-110433039D01*
X176457511Y-110478794D01*
X176406000Y-110490000D01*
X153794000Y-110490000D01*
X153726961Y-110470315D01*
X153681206Y-110417511D01*
X153670000Y-110366000D01*
X153670000Y-106576530D01*
X160239500Y-106576530D01*
X160239500Y-106783469D01*
X160279868Y-106986412D01*
X160279870Y-106986420D01*
X160359058Y-107177596D01*
X160474024Y-107349657D01*
X160620342Y-107495975D01*
X160620345Y-107495977D01*
X160792402Y-107610941D01*
X160983580Y-107690130D01*
X161186530Y-107730499D01*
X161186534Y-107730500D01*
X161186535Y-107730500D01*
X161393466Y-107730500D01*
X161393467Y-107730499D01*
X161596420Y-107690130D01*
X161787598Y-107610941D01*
X161959655Y-107495977D01*
X162105977Y-107349655D01*
X162220941Y-107177598D01*
X162300130Y-106986420D01*
X162340500Y-106783465D01*
X162340500Y-106576535D01*
X162340499Y-106576530D01*
X164049500Y-106576530D01*
X164049500Y-106783469D01*
X164089868Y-106986412D01*
X164089870Y-106986420D01*
X164169058Y-107177596D01*
X164284024Y-107349657D01*
X164430342Y-107495975D01*
X164430345Y-107495977D01*
X164602402Y-107610941D01*
X164793580Y-107690130D01*
X164996530Y-107730499D01*
X164996534Y-107730500D01*
X164996535Y-107730500D01*
X165203466Y-107730500D01*
X165203467Y-107730499D01*
X165406420Y-107690130D01*
X165597598Y-107610941D01*
X165769655Y-107495977D01*
X165915977Y-107349655D01*
X166030941Y-107177598D01*
X166110130Y-106986420D01*
X166150500Y-106783465D01*
X166150500Y-106576535D01*
X166150499Y-106576530D01*
X167859500Y-106576530D01*
X167859500Y-106783469D01*
X167899868Y-106986412D01*
X167899870Y-106986420D01*
X167979058Y-107177596D01*
X168094024Y-107349657D01*
X168240342Y-107495975D01*
X168240345Y-107495977D01*
X168412402Y-107610941D01*
X168603580Y-107690130D01*
X168806530Y-107730499D01*
X168806534Y-107730500D01*
X168806535Y-107730500D01*
X169013466Y-107730500D01*
X169013467Y-107730499D01*
X169216420Y-107690130D01*
X169407598Y-107610941D01*
X169579655Y-107495977D01*
X169725977Y-107349655D01*
X169840941Y-107177598D01*
X169920130Y-106986420D01*
X169960500Y-106783465D01*
X169960500Y-106576535D01*
X169920130Y-106373580D01*
X169840941Y-106182402D01*
X169725977Y-106010345D01*
X169725975Y-106010342D01*
X169579657Y-105864024D01*
X169493626Y-105806541D01*
X169407598Y-105749059D01*
X169216420Y-105669870D01*
X169216412Y-105669868D01*
X169013469Y-105629500D01*
X169013465Y-105629500D01*
X168806535Y-105629500D01*
X168806530Y-105629500D01*
X168603587Y-105669868D01*
X168603579Y-105669870D01*
X168412403Y-105749058D01*
X168240342Y-105864024D01*
X168094024Y-106010342D01*
X167979058Y-106182403D01*
X167899870Y-106373579D01*
X167899868Y-106373587D01*
X167859500Y-106576530D01*
X166150499Y-106576530D01*
X166110130Y-106373580D01*
X166030941Y-106182402D01*
X165915977Y-106010345D01*
X165915975Y-106010342D01*
X165769657Y-105864024D01*
X165683626Y-105806541D01*
X165597598Y-105749059D01*
X165406420Y-105669870D01*
X165406412Y-105669868D01*
X165203469Y-105629500D01*
X165203465Y-105629500D01*
X164996535Y-105629500D01*
X164996530Y-105629500D01*
X164793587Y-105669868D01*
X164793579Y-105669870D01*
X164602403Y-105749058D01*
X164430342Y-105864024D01*
X164284024Y-106010342D01*
X164169058Y-106182403D01*
X164089870Y-106373579D01*
X164089868Y-106373587D01*
X164049500Y-106576530D01*
X162340499Y-106576530D01*
X162300130Y-106373580D01*
X162220941Y-106182402D01*
X162105977Y-106010345D01*
X162105975Y-106010342D01*
X161959657Y-105864024D01*
X161873626Y-105806541D01*
X161787598Y-105749059D01*
X161596420Y-105669870D01*
X161596412Y-105669868D01*
X161393469Y-105629500D01*
X161393465Y-105629500D01*
X161186535Y-105629500D01*
X161186530Y-105629500D01*
X160983587Y-105669868D01*
X160983579Y-105669870D01*
X160792403Y-105749058D01*
X160620342Y-105864024D01*
X160474024Y-106010342D01*
X160359058Y-106182403D01*
X160279870Y-106373579D01*
X160279868Y-106373587D01*
X160239500Y-106576530D01*
X153670000Y-106576530D01*
X153670000Y-104036530D01*
X160239500Y-104036530D01*
X160239500Y-104243469D01*
X160279868Y-104446412D01*
X160279870Y-104446420D01*
X160359058Y-104637596D01*
X160474024Y-104809657D01*
X160620342Y-104955975D01*
X160620345Y-104955977D01*
X160792402Y-105070941D01*
X160983580Y-105150130D01*
X161186530Y-105190499D01*
X161186534Y-105190500D01*
X161186535Y-105190500D01*
X161393466Y-105190500D01*
X161393467Y-105190499D01*
X161596420Y-105150130D01*
X161787598Y-105070941D01*
X161959655Y-104955977D01*
X162105977Y-104809655D01*
X162220941Y-104637598D01*
X162300130Y-104446420D01*
X162340500Y-104243465D01*
X162340500Y-104036535D01*
X162300130Y-103833580D01*
X162250194Y-103713026D01*
X162242726Y-103643559D01*
X162274001Y-103581080D01*
X162277045Y-103577924D01*
X163054460Y-102800511D01*
X163087612Y-102743088D01*
X163138179Y-102694873D01*
X163206786Y-102681649D01*
X163271651Y-102707617D01*
X163302386Y-102743087D01*
X163335452Y-102800358D01*
X163335539Y-102800509D01*
X163335541Y-102800512D01*
X164112924Y-103577895D01*
X164146409Y-103639218D01*
X164141425Y-103708910D01*
X164139804Y-103713029D01*
X164089870Y-103833579D01*
X164089868Y-103833587D01*
X164049500Y-104036530D01*
X164049500Y-104243469D01*
X164089868Y-104446412D01*
X164089870Y-104446420D01*
X164169058Y-104637596D01*
X164284024Y-104809657D01*
X164430342Y-104955975D01*
X164430345Y-104955977D01*
X164602402Y-105070941D01*
X164793580Y-105150130D01*
X164996530Y-105190499D01*
X164996534Y-105190500D01*
X164996535Y-105190500D01*
X165203466Y-105190500D01*
X165203467Y-105190499D01*
X165406420Y-105150130D01*
X165597598Y-105070941D01*
X165769655Y-104955977D01*
X165915977Y-104809655D01*
X166030941Y-104637598D01*
X166110130Y-104446420D01*
X166150500Y-104243465D01*
X166150500Y-104036535D01*
X166110130Y-103833580D01*
X166030941Y-103642402D01*
X165915977Y-103470345D01*
X165915975Y-103470342D01*
X165769657Y-103324024D01*
X165602616Y-103212412D01*
X165597598Y-103209059D01*
X165545002Y-103187273D01*
X165406420Y-103129870D01*
X165406412Y-103129868D01*
X165203469Y-103089500D01*
X165203465Y-103089500D01*
X164996535Y-103089500D01*
X164996530Y-103089500D01*
X164793587Y-103129868D01*
X164793579Y-103129870D01*
X164673029Y-103179804D01*
X164603559Y-103187273D01*
X164541080Y-103155998D01*
X164537895Y-103152924D01*
X164246652Y-102861681D01*
X164213167Y-102800358D01*
X164218151Y-102730666D01*
X164260023Y-102674733D01*
X164325487Y-102650316D01*
X164334333Y-102650000D01*
X164850000Y-102650000D01*
X164850000Y-102033012D01*
X164907007Y-102065925D01*
X165034174Y-102100000D01*
X165165826Y-102100000D01*
X165292993Y-102065925D01*
X165350000Y-102033012D01*
X165350000Y-102650000D01*
X165969699Y-102650000D01*
X165969702Y-102649999D01*
X166028033Y-102638397D01*
X166028034Y-102638396D01*
X166094191Y-102594191D01*
X166138396Y-102528034D01*
X166138397Y-102528033D01*
X166149999Y-102469702D01*
X166150000Y-102469699D01*
X166150000Y-101850000D01*
X165533012Y-101850000D01*
X165565925Y-101792993D01*
X165600000Y-101665826D01*
X165600000Y-101534174D01*
X165565925Y-101407007D01*
X165533012Y-101350000D01*
X166150000Y-101350000D01*
X166150000Y-100730301D01*
X166149999Y-100730297D01*
X166138397Y-100671966D01*
X166138396Y-100671965D01*
X166094191Y-100605808D01*
X166028034Y-100561603D01*
X166028033Y-100561602D01*
X165969702Y-100550000D01*
X165350000Y-100550000D01*
X165350000Y-101166988D01*
X165292993Y-101134075D01*
X165165826Y-101100000D01*
X165034174Y-101100000D01*
X164907007Y-101134075D01*
X164850000Y-101166988D01*
X164850000Y-100550000D01*
X164230297Y-100550000D01*
X164171966Y-100561602D01*
X164171965Y-100561603D01*
X164105807Y-100605808D01*
X164103600Y-100609112D01*
X164049986Y-100653915D01*
X163980661Y-100662621D01*
X163917634Y-100632464D01*
X163880917Y-100573020D01*
X163876500Y-100540218D01*
X163876500Y-99235833D01*
X163885144Y-99206392D01*
X163891668Y-99176406D01*
X163895422Y-99171390D01*
X163896185Y-99168794D01*
X163912819Y-99148152D01*
X163972152Y-99088819D01*
X164033475Y-99055334D01*
X164059833Y-99052500D01*
X164149890Y-99052500D01*
X164149892Y-99052500D01*
X164277186Y-99018392D01*
X164391314Y-98952500D01*
X164484500Y-98859314D01*
X164550392Y-98745186D01*
X164584500Y-98617892D01*
X164584500Y-98486108D01*
X164550392Y-98358814D01*
X164484500Y-98244686D01*
X164391314Y-98151500D01*
X164319247Y-98109892D01*
X164277187Y-98085608D01*
X164213539Y-98068554D01*
X164149892Y-98051500D01*
X164018108Y-98051500D01*
X163890812Y-98085608D01*
X163776686Y-98151500D01*
X163776683Y-98151502D01*
X163683502Y-98244683D01*
X163683500Y-98244686D01*
X163617608Y-98358812D01*
X163583500Y-98486108D01*
X163583500Y-98576166D01*
X163574855Y-98605606D01*
X163568332Y-98635593D01*
X163564577Y-98640608D01*
X163563815Y-98643205D01*
X163547185Y-98663842D01*
X163391489Y-98819540D01*
X163391488Y-98819540D01*
X163391487Y-98819541D01*
X163329793Y-98881236D01*
X163328456Y-98879899D01*
X163280433Y-98914956D01*
X163210686Y-98919101D01*
X163149770Y-98884881D01*
X163117026Y-98823160D01*
X163114500Y-98798261D01*
X163114500Y-97978108D01*
X166123500Y-97978108D01*
X166123500Y-98109892D01*
X166140554Y-98173539D01*
X166157608Y-98237187D01*
X166161936Y-98244683D01*
X166223500Y-98351314D01*
X166316686Y-98444500D01*
X166430814Y-98510392D01*
X166485593Y-98525070D01*
X166545253Y-98561433D01*
X166575783Y-98624280D01*
X166577500Y-98644844D01*
X166577500Y-102147562D01*
X166591152Y-102198513D01*
X166597979Y-102223990D01*
X166597982Y-102223995D01*
X166637535Y-102292504D01*
X166637541Y-102292512D01*
X167922924Y-103577895D01*
X167956409Y-103639218D01*
X167951425Y-103708910D01*
X167949804Y-103713029D01*
X167899870Y-103833579D01*
X167899868Y-103833587D01*
X167859500Y-104036530D01*
X167859500Y-104243469D01*
X167899868Y-104446412D01*
X167899870Y-104446420D01*
X167979058Y-104637596D01*
X168094024Y-104809657D01*
X168240342Y-104955975D01*
X168240345Y-104955977D01*
X168412402Y-105070941D01*
X168603580Y-105150130D01*
X168806530Y-105190499D01*
X168806534Y-105190500D01*
X168806535Y-105190500D01*
X169013466Y-105190500D01*
X169013467Y-105190499D01*
X169216420Y-105150130D01*
X169407598Y-105070941D01*
X169579655Y-104955977D01*
X169725977Y-104809655D01*
X169840941Y-104637598D01*
X169920130Y-104446420D01*
X169960500Y-104243465D01*
X169960500Y-104036535D01*
X169920130Y-103833580D01*
X169840941Y-103642402D01*
X169725977Y-103470345D01*
X169725975Y-103470342D01*
X169579657Y-103324024D01*
X169412616Y-103212412D01*
X169407598Y-103209059D01*
X169355002Y-103187273D01*
X169216420Y-103129870D01*
X169216412Y-103129868D01*
X169013469Y-103089500D01*
X169013465Y-103089500D01*
X168806535Y-103089500D01*
X168806530Y-103089500D01*
X168603587Y-103129868D01*
X168603579Y-103129870D01*
X168483029Y-103179804D01*
X168413559Y-103187273D01*
X168351080Y-103155998D01*
X168347895Y-103152924D01*
X168056652Y-102861681D01*
X168023167Y-102800358D01*
X168028151Y-102730666D01*
X168070023Y-102674733D01*
X168135487Y-102650316D01*
X168144333Y-102650000D01*
X168660000Y-102650000D01*
X168660000Y-102033012D01*
X168717007Y-102065925D01*
X168844174Y-102100000D01*
X168975826Y-102100000D01*
X169102993Y-102065925D01*
X169160000Y-102033012D01*
X169160000Y-102650000D01*
X169779699Y-102650000D01*
X169779702Y-102649999D01*
X169838033Y-102638397D01*
X169838034Y-102638396D01*
X169904191Y-102594191D01*
X169948396Y-102528034D01*
X169948397Y-102528033D01*
X169959999Y-102469702D01*
X169960000Y-102469699D01*
X169960000Y-101850000D01*
X169343012Y-101850000D01*
X169375925Y-101792993D01*
X169410000Y-101665826D01*
X169410000Y-101534174D01*
X169375925Y-101407007D01*
X169343012Y-101350000D01*
X169960000Y-101350000D01*
X169960000Y-100730301D01*
X169959999Y-100730297D01*
X169948397Y-100671966D01*
X169948396Y-100671965D01*
X169904191Y-100605808D01*
X169838034Y-100561603D01*
X169838033Y-100561602D01*
X169779702Y-100550000D01*
X169160000Y-100550000D01*
X169160000Y-101166988D01*
X169102993Y-101134075D01*
X168975826Y-101100000D01*
X168844174Y-101100000D01*
X168717007Y-101134075D01*
X168660000Y-101166988D01*
X168660000Y-100550000D01*
X168040297Y-100550000D01*
X167981966Y-100561602D01*
X167981965Y-100561603D01*
X167915808Y-100605808D01*
X167871603Y-100671965D01*
X167871602Y-100671966D01*
X167860000Y-100730297D01*
X167860000Y-101350000D01*
X168476988Y-101350000D01*
X168444075Y-101407007D01*
X168410000Y-101534174D01*
X168410000Y-101665826D01*
X168444075Y-101792993D01*
X168476988Y-101850000D01*
X167860000Y-101850000D01*
X167860000Y-102365667D01*
X167840315Y-102432706D01*
X167787511Y-102478461D01*
X167718353Y-102488405D01*
X167654797Y-102459380D01*
X167648319Y-102453348D01*
X167214819Y-102019848D01*
X167181334Y-101958525D01*
X167178500Y-101932167D01*
X167178500Y-99586255D01*
X167198185Y-99519216D01*
X167250989Y-99473461D01*
X167320147Y-99463517D01*
X167364499Y-99478867D01*
X167446814Y-99526392D01*
X167574108Y-99560500D01*
X167574110Y-99560500D01*
X167705890Y-99560500D01*
X167705892Y-99560500D01*
X167833186Y-99526392D01*
X167947314Y-99460500D01*
X168040500Y-99367314D01*
X168106392Y-99253186D01*
X168140500Y-99125892D01*
X168140500Y-99035832D01*
X168149144Y-99006391D01*
X168155668Y-98976405D01*
X168159422Y-98971389D01*
X168160185Y-98968793D01*
X168176819Y-98948151D01*
X169438435Y-97686535D01*
X170750660Y-96374311D01*
X170790222Y-96305788D01*
X170810700Y-96229362D01*
X170810700Y-96150238D01*
X170810700Y-91730638D01*
X170797255Y-91680460D01*
X170790222Y-91654212D01*
X170750660Y-91585689D01*
X169446819Y-90281848D01*
X169413334Y-90220525D01*
X169410500Y-90194167D01*
X169410500Y-90104110D01*
X169410500Y-90104108D01*
X169376392Y-89976814D01*
X169310500Y-89862686D01*
X169217314Y-89769500D01*
X169145756Y-89728186D01*
X169103187Y-89703608D01*
X169039539Y-89686554D01*
X168975892Y-89669500D01*
X168844108Y-89669500D01*
X168716812Y-89703608D01*
X168602686Y-89769500D01*
X168602683Y-89769502D01*
X168509502Y-89862683D01*
X168509500Y-89862686D01*
X168443608Y-89976812D01*
X168427883Y-90035500D01*
X168409500Y-90104108D01*
X168409500Y-90235892D01*
X168421814Y-90281848D01*
X168443608Y-90363187D01*
X168465516Y-90401132D01*
X168509500Y-90477314D01*
X168602686Y-90570500D01*
X168716814Y-90636392D01*
X168844108Y-90670500D01*
X168844110Y-90670500D01*
X168934167Y-90670500D01*
X169001206Y-90690185D01*
X169021848Y-90706819D01*
X170173381Y-91858352D01*
X170206866Y-91919675D01*
X170209700Y-91946033D01*
X170209700Y-96013966D01*
X170190015Y-96081005D01*
X170173381Y-96101647D01*
X167751847Y-98523181D01*
X167690524Y-98556666D01*
X167664166Y-98559500D01*
X167574108Y-98559500D01*
X167446814Y-98593608D01*
X167446813Y-98593608D01*
X167446811Y-98593609D01*
X167446810Y-98593609D01*
X167364500Y-98641131D01*
X167296599Y-98657604D01*
X167230573Y-98634751D01*
X167187382Y-98579830D01*
X167178500Y-98533744D01*
X167178500Y-98258439D01*
X167174814Y-98244683D01*
X167158021Y-98182011D01*
X167146109Y-98161378D01*
X167141113Y-98152724D01*
X167124500Y-98090725D01*
X167124500Y-97978110D01*
X167124500Y-97978108D01*
X167090392Y-97850814D01*
X167024500Y-97736686D01*
X166931314Y-97643500D01*
X166868287Y-97607111D01*
X166817187Y-97577608D01*
X166733677Y-97555232D01*
X166689892Y-97543500D01*
X166558108Y-97543500D01*
X166430812Y-97577608D01*
X166316686Y-97643500D01*
X166316683Y-97643502D01*
X166223502Y-97736683D01*
X166223500Y-97736686D01*
X166157608Y-97850812D01*
X166137403Y-97926220D01*
X166123500Y-97978108D01*
X163114500Y-97978108D01*
X163114500Y-93028451D01*
X163134185Y-92961412D01*
X163186989Y-92915657D01*
X163247981Y-92906518D01*
X163247981Y-92905700D01*
X163253447Y-92905700D01*
X163254695Y-92905513D01*
X163256102Y-92905698D01*
X163256108Y-92905700D01*
X163256114Y-92905700D01*
X163387890Y-92905700D01*
X163387892Y-92905700D01*
X163515186Y-92871592D01*
X163629314Y-92805700D01*
X163722500Y-92712514D01*
X163788392Y-92598386D01*
X163822500Y-92471092D01*
X163822500Y-92339308D01*
X163788392Y-92212014D01*
X163722500Y-92097886D01*
X163629314Y-92004700D01*
X163572250Y-91971754D01*
X163515187Y-91938808D01*
X163443780Y-91919675D01*
X163387892Y-91904700D01*
X163256108Y-91904700D01*
X163128812Y-91938808D01*
X163014686Y-92004700D01*
X163014683Y-92004702D01*
X162921502Y-92097883D01*
X162921500Y-92097886D01*
X162855608Y-92212013D01*
X162852712Y-92222823D01*
X162820618Y-92278410D01*
X162629489Y-92469540D01*
X162573541Y-92525487D01*
X162573535Y-92525495D01*
X162533982Y-92594004D01*
X162533979Y-92594009D01*
X162513500Y-92670439D01*
X162513500Y-100540218D01*
X162493815Y-100607257D01*
X162441011Y-100653012D01*
X162371853Y-100662956D01*
X162308297Y-100633931D01*
X162286400Y-100609112D01*
X162284192Y-100605808D01*
X162218034Y-100561603D01*
X162218033Y-100561602D01*
X162159702Y-100550000D01*
X161540000Y-100550000D01*
X161540000Y-101166988D01*
X161482993Y-101134075D01*
X161355826Y-101100000D01*
X161224174Y-101100000D01*
X161097007Y-101134075D01*
X161040000Y-101166988D01*
X161040000Y-100550000D01*
X160420297Y-100550000D01*
X160361966Y-100561602D01*
X160361965Y-100561603D01*
X160295808Y-100605808D01*
X160251603Y-100671965D01*
X160251602Y-100671966D01*
X160240000Y-100730297D01*
X160240000Y-101350000D01*
X160856988Y-101350000D01*
X160824075Y-101407007D01*
X160790000Y-101534174D01*
X160790000Y-101665826D01*
X160824075Y-101792993D01*
X160856988Y-101850000D01*
X160240000Y-101850000D01*
X160240000Y-102469702D01*
X160251602Y-102528033D01*
X160251603Y-102528034D01*
X160295808Y-102594191D01*
X160361965Y-102638396D01*
X160361966Y-102638397D01*
X160420297Y-102649999D01*
X160420301Y-102650000D01*
X161040000Y-102650000D01*
X161040000Y-102033012D01*
X161097007Y-102065925D01*
X161224174Y-102100000D01*
X161355826Y-102100000D01*
X161482993Y-102065925D01*
X161540000Y-102033012D01*
X161540000Y-102650000D01*
X162055666Y-102650000D01*
X162122705Y-102669685D01*
X162168460Y-102722489D01*
X162178404Y-102791647D01*
X162149379Y-102855203D01*
X162143347Y-102861681D01*
X161852104Y-103152923D01*
X161790781Y-103186408D01*
X161721089Y-103181424D01*
X161716971Y-103179803D01*
X161596424Y-103129871D01*
X161596412Y-103129868D01*
X161393469Y-103089500D01*
X161393465Y-103089500D01*
X161186535Y-103089500D01*
X161186530Y-103089500D01*
X160983587Y-103129868D01*
X160983579Y-103129870D01*
X160792403Y-103209058D01*
X160620342Y-103324024D01*
X160474024Y-103470342D01*
X160359058Y-103642403D01*
X160279870Y-103833579D01*
X160279868Y-103833587D01*
X160239500Y-104036530D01*
X153670000Y-104036530D01*
X153670000Y-100586397D01*
X153689685Y-100519358D01*
X153742489Y-100473603D01*
X153811647Y-100463659D01*
X153875203Y-100492684D01*
X153912977Y-100551462D01*
X153915618Y-100562207D01*
X153930350Y-100636274D01*
X154009500Y-100827359D01*
X154041377Y-100875067D01*
X154041378Y-100875067D01*
X154457037Y-100459408D01*
X154474075Y-100522993D01*
X154539901Y-100637007D01*
X154632993Y-100730099D01*
X154747007Y-100795925D01*
X154810590Y-100812962D01*
X154394931Y-101228620D01*
X154394932Y-101228621D01*
X154442633Y-101260495D01*
X154442639Y-101260498D01*
X154633725Y-101339649D01*
X154633733Y-101339651D01*
X154836579Y-101379999D01*
X154836583Y-101380000D01*
X155043417Y-101380000D01*
X155043420Y-101379999D01*
X155246266Y-101339651D01*
X155246274Y-101339649D01*
X155437366Y-101260495D01*
X155485066Y-101228621D01*
X155485067Y-101228620D01*
X155069409Y-100812962D01*
X155132993Y-100795925D01*
X155247007Y-100730099D01*
X155340099Y-100637007D01*
X155405925Y-100522993D01*
X155422962Y-100459409D01*
X155838620Y-100875067D01*
X155838621Y-100875066D01*
X155870495Y-100827366D01*
X155932881Y-100676757D01*
X155949649Y-100636274D01*
X155949651Y-100636266D01*
X155989999Y-100433420D01*
X155990000Y-100433417D01*
X155990000Y-100226583D01*
X155989999Y-100226579D01*
X155949651Y-100023733D01*
X155949649Y-100023725D01*
X155870498Y-99832639D01*
X155870495Y-99832633D01*
X155838621Y-99784932D01*
X155838620Y-99784931D01*
X155422962Y-100200590D01*
X155405925Y-100137007D01*
X155340099Y-100022993D01*
X155247007Y-99929901D01*
X155132993Y-99864075D01*
X155069409Y-99847037D01*
X155485067Y-99431378D01*
X155485067Y-99431377D01*
X155437359Y-99399500D01*
X155246274Y-99320350D01*
X155246266Y-99320348D01*
X155043420Y-99280000D01*
X154836579Y-99280000D01*
X154633733Y-99320348D01*
X154633725Y-99320350D01*
X154442641Y-99399500D01*
X154442631Y-99399505D01*
X154394932Y-99431377D01*
X154394932Y-99431378D01*
X154810591Y-99847037D01*
X154747007Y-99864075D01*
X154632993Y-99929901D01*
X154539901Y-100022993D01*
X154474075Y-100137007D01*
X154457037Y-100200591D01*
X154041378Y-99784932D01*
X154041377Y-99784932D01*
X154009505Y-99832631D01*
X154009500Y-99832641D01*
X153930350Y-100023725D01*
X153930348Y-100023733D01*
X153915617Y-100097793D01*
X153883233Y-100159704D01*
X153822517Y-100194278D01*
X153752748Y-100190539D01*
X153696075Y-100149673D01*
X153670494Y-100084655D01*
X153670000Y-100073602D01*
X153670000Y-98048958D01*
X153689685Y-97981919D01*
X153742489Y-97936164D01*
X153811647Y-97926220D01*
X153875203Y-97955245D01*
X153912977Y-98014023D01*
X153915617Y-98024767D01*
X153929868Y-98096412D01*
X153929870Y-98096420D01*
X154009058Y-98287596D01*
X154124024Y-98459657D01*
X154270342Y-98605975D01*
X154270345Y-98605977D01*
X154442402Y-98720941D01*
X154633580Y-98800130D01*
X154826666Y-98838537D01*
X154836530Y-98840499D01*
X154836534Y-98840500D01*
X154836535Y-98840500D01*
X155043466Y-98840500D01*
X155043467Y-98840499D01*
X155246420Y-98800130D01*
X155437598Y-98720941D01*
X155609655Y-98605977D01*
X155755977Y-98459655D01*
X155870941Y-98287598D01*
X155920875Y-98167046D01*
X155964716Y-98112644D01*
X156031010Y-98090579D01*
X156035436Y-98090500D01*
X157773560Y-98090500D01*
X157773562Y-98090500D01*
X157849989Y-98070021D01*
X157918511Y-98030460D01*
X157974460Y-97974511D01*
X158990460Y-96958511D01*
X159030021Y-96889989D01*
X159050500Y-96813562D01*
X159050500Y-92123833D01*
X159070185Y-92056794D01*
X159086819Y-92036152D01*
X159854152Y-91268819D01*
X159915475Y-91235334D01*
X159941833Y-91232500D01*
X167718167Y-91232500D01*
X167785206Y-91252185D01*
X167805848Y-91268819D01*
X168573181Y-92036152D01*
X168606666Y-92097475D01*
X168609500Y-92123833D01*
X168609500Y-94246162D01*
X168616854Y-94273608D01*
X168629032Y-94319058D01*
X168629979Y-94322589D01*
X168639741Y-94339497D01*
X168639742Y-94339500D01*
X168639743Y-94339500D01*
X168669539Y-94391109D01*
X168669541Y-94391112D01*
X168906581Y-94628152D01*
X168940066Y-94689475D01*
X168942900Y-94715833D01*
X168942900Y-94805891D01*
X168977008Y-94933187D01*
X168983008Y-94943579D01*
X169042900Y-95047314D01*
X169136086Y-95140500D01*
X169250214Y-95206392D01*
X169377508Y-95240500D01*
X169377510Y-95240500D01*
X169509290Y-95240500D01*
X169509292Y-95240500D01*
X169636586Y-95206392D01*
X169750714Y-95140500D01*
X169843900Y-95047314D01*
X169909792Y-94933186D01*
X169943900Y-94805892D01*
X169943900Y-94674108D01*
X169909792Y-94546814D01*
X169843900Y-94432686D01*
X169750714Y-94339500D01*
X169693650Y-94306554D01*
X169636587Y-94273608D01*
X169534155Y-94246162D01*
X169509292Y-94239500D01*
X169419233Y-94239500D01*
X169389792Y-94230855D01*
X169359806Y-94224332D01*
X169354790Y-94220577D01*
X169352194Y-94219815D01*
X169331552Y-94203181D01*
X169246819Y-94118448D01*
X169213334Y-94057125D01*
X169210500Y-94030767D01*
X169210500Y-91908439D01*
X169206811Y-91894671D01*
X169190021Y-91832011D01*
X169179039Y-91812989D01*
X169150464Y-91763495D01*
X169150458Y-91763487D01*
X168078512Y-90691541D01*
X168078511Y-90691540D01*
X168042068Y-90670500D01*
X168042068Y-90670499D01*
X168042064Y-90670498D01*
X168030872Y-90664036D01*
X168009990Y-90651979D01*
X168009991Y-90651979D01*
X167971775Y-90641739D01*
X167933562Y-90631500D01*
X159726438Y-90631500D01*
X159675486Y-90645152D01*
X159650010Y-90651979D01*
X159624712Y-90666585D01*
X159617936Y-90670498D01*
X159617934Y-90670499D01*
X159617932Y-90670500D01*
X159581490Y-90691539D01*
X159581487Y-90691541D01*
X158509541Y-91763487D01*
X158509535Y-91763495D01*
X158469982Y-91832004D01*
X158469979Y-91832009D01*
X158449500Y-91908439D01*
X158449500Y-96598167D01*
X158429815Y-96665206D01*
X158413181Y-96685848D01*
X157645848Y-97453181D01*
X157584525Y-97486666D01*
X157558167Y-97489500D01*
X156035436Y-97489500D01*
X155968397Y-97469815D01*
X155922642Y-97417011D01*
X155920875Y-97412953D01*
X155888990Y-97335977D01*
X155870941Y-97292402D01*
X155755977Y-97120345D01*
X155755975Y-97120342D01*
X155609657Y-96974024D01*
X155483888Y-96889989D01*
X155437598Y-96859059D01*
X155327754Y-96813560D01*
X155246420Y-96779870D01*
X155246412Y-96779868D01*
X155043469Y-96739500D01*
X155043465Y-96739500D01*
X154836535Y-96739500D01*
X154836530Y-96739500D01*
X154633587Y-96779868D01*
X154633579Y-96779870D01*
X154442403Y-96859058D01*
X154270342Y-96974024D01*
X154124024Y-97120342D01*
X154009058Y-97292403D01*
X153929870Y-97483579D01*
X153929868Y-97483587D01*
X153915617Y-97555232D01*
X153883232Y-97617143D01*
X153822517Y-97651717D01*
X153752747Y-97647978D01*
X153696075Y-97607111D01*
X153670494Y-97542093D01*
X153670000Y-97531041D01*
X153670000Y-95508958D01*
X153689685Y-95441919D01*
X153742489Y-95396164D01*
X153811647Y-95386220D01*
X153875203Y-95415245D01*
X153912977Y-95474023D01*
X153915617Y-95484767D01*
X153929868Y-95556412D01*
X153929870Y-95556420D01*
X154009058Y-95747596D01*
X154124024Y-95919657D01*
X154270342Y-96065975D01*
X154270345Y-96065977D01*
X154442402Y-96180941D01*
X154633580Y-96260130D01*
X154813791Y-96295976D01*
X154836530Y-96300499D01*
X154836534Y-96300500D01*
X154836535Y-96300500D01*
X155043466Y-96300500D01*
X155043467Y-96300499D01*
X155246420Y-96260130D01*
X155437598Y-96180941D01*
X155609655Y-96065977D01*
X155755977Y-95919655D01*
X155870941Y-95747598D01*
X155950130Y-95556420D01*
X155990500Y-95353465D01*
X155990500Y-95146535D01*
X155950130Y-94943580D01*
X155870941Y-94752402D01*
X155755977Y-94580345D01*
X155755975Y-94580342D01*
X155609657Y-94434024D01*
X155442878Y-94322587D01*
X155437598Y-94319059D01*
X155246420Y-94239870D01*
X155246412Y-94239868D01*
X155043469Y-94199500D01*
X155043465Y-94199500D01*
X154836535Y-94199500D01*
X154836530Y-94199500D01*
X154633587Y-94239868D01*
X154633579Y-94239870D01*
X154442403Y-94319058D01*
X154270342Y-94434024D01*
X154124024Y-94580342D01*
X154009058Y-94752403D01*
X153929870Y-94943579D01*
X153929868Y-94943587D01*
X153915617Y-95015232D01*
X153883232Y-95077143D01*
X153822517Y-95111717D01*
X153752747Y-95107978D01*
X153696075Y-95067111D01*
X153670494Y-95002093D01*
X153670000Y-94991041D01*
X153670000Y-92968958D01*
X153689685Y-92901919D01*
X153742489Y-92856164D01*
X153811647Y-92846220D01*
X153875203Y-92875245D01*
X153912977Y-92934023D01*
X153915617Y-92944767D01*
X153929868Y-93016412D01*
X153929870Y-93016420D01*
X154009058Y-93207596D01*
X154124024Y-93379657D01*
X154270342Y-93525975D01*
X154270345Y-93525977D01*
X154442402Y-93640941D01*
X154633580Y-93720130D01*
X154813791Y-93755976D01*
X154836530Y-93760499D01*
X154836534Y-93760500D01*
X154836535Y-93760500D01*
X155043466Y-93760500D01*
X155043467Y-93760499D01*
X155246420Y-93720130D01*
X155437598Y-93640941D01*
X155609655Y-93525977D01*
X155755977Y-93379655D01*
X155870941Y-93207598D01*
X155950130Y-93016420D01*
X155990500Y-92813465D01*
X155990500Y-92606535D01*
X155950130Y-92403580D01*
X155870941Y-92212402D01*
X155755977Y-92040345D01*
X155755975Y-92040342D01*
X155609657Y-91894024D01*
X155488378Y-91812989D01*
X155437598Y-91779059D01*
X155400023Y-91763495D01*
X155246420Y-91699870D01*
X155246412Y-91699868D01*
X155043469Y-91659500D01*
X155043465Y-91659500D01*
X154836535Y-91659500D01*
X154836530Y-91659500D01*
X154633587Y-91699868D01*
X154633579Y-91699870D01*
X154442403Y-91779058D01*
X154270342Y-91894024D01*
X154124024Y-92040342D01*
X154009058Y-92212403D01*
X153929870Y-92403579D01*
X153929868Y-92403587D01*
X153915617Y-92475232D01*
X153883232Y-92537143D01*
X153822517Y-92571717D01*
X153752747Y-92567978D01*
X153696075Y-92527111D01*
X153670494Y-92462093D01*
X153670000Y-92451041D01*
X153670000Y-91161089D01*
X153689685Y-91094050D01*
X153742489Y-91048295D01*
X153811647Y-91038351D01*
X153875203Y-91067376D01*
X153897102Y-91092198D01*
X153945447Y-91164552D01*
X154011769Y-91208867D01*
X154011770Y-91208868D01*
X154070247Y-91220499D01*
X154070250Y-91220500D01*
X154070252Y-91220500D01*
X155809750Y-91220500D01*
X155809751Y-91220499D01*
X155824568Y-91217552D01*
X155868229Y-91208868D01*
X155868229Y-91208867D01*
X155868231Y-91208867D01*
X155934552Y-91164552D01*
X155978867Y-91098231D01*
X155978867Y-91098229D01*
X155978868Y-91098229D01*
X155990499Y-91039752D01*
X155990500Y-91039750D01*
X155990500Y-89300249D01*
X155990499Y-89300247D01*
X155978868Y-89241770D01*
X155978867Y-89241769D01*
X155934552Y-89175447D01*
X155868230Y-89131132D01*
X155868229Y-89131131D01*
X155809752Y-89119500D01*
X155809748Y-89119500D01*
X154070252Y-89119500D01*
X154070247Y-89119500D01*
X154011770Y-89131131D01*
X154011769Y-89131132D01*
X153945448Y-89175446D01*
X153897102Y-89247802D01*
X153843489Y-89292606D01*
X153774164Y-89301313D01*
X153711137Y-89271158D01*
X153674418Y-89211715D01*
X153670000Y-89178910D01*
X153670000Y-84811089D01*
X153689685Y-84744050D01*
X153742489Y-84698295D01*
X153811647Y-84688351D01*
X153875203Y-84717376D01*
X153897102Y-84742198D01*
X153945447Y-84814552D01*
X154011769Y-84858867D01*
X154011770Y-84858868D01*
X154070247Y-84870499D01*
X154070250Y-84870500D01*
X154070252Y-84870500D01*
X155809750Y-84870500D01*
X155809751Y-84870499D01*
X155824568Y-84867552D01*
X155868229Y-84858868D01*
X155868229Y-84858867D01*
X155868231Y-84858867D01*
X155934552Y-84814552D01*
X155978867Y-84748231D01*
X155978867Y-84748229D01*
X155978868Y-84748229D01*
X155990499Y-84689752D01*
X155990500Y-84689750D01*
X155990500Y-82950249D01*
X155990499Y-82950247D01*
X155978868Y-82891770D01*
X155978867Y-82891769D01*
X155934552Y-82825447D01*
X155868230Y-82781132D01*
X155868229Y-82781131D01*
X155809752Y-82769500D01*
X155809748Y-82769500D01*
X154070252Y-82769500D01*
X154070247Y-82769500D01*
X154011770Y-82781131D01*
X154011769Y-82781132D01*
X153945448Y-82825446D01*
X153897102Y-82897802D01*
X153843489Y-82942606D01*
X153774164Y-82951313D01*
X153711137Y-82921158D01*
X153674418Y-82861715D01*
X153670000Y-82828910D01*
X153670000Y-81536397D01*
X153689685Y-81469358D01*
X153742489Y-81423603D01*
X153811647Y-81413659D01*
X153875203Y-81442684D01*
X153912977Y-81501462D01*
X153915618Y-81512207D01*
X153930350Y-81586274D01*
X154009500Y-81777359D01*
X154041377Y-81825067D01*
X154041378Y-81825067D01*
X154457037Y-81409408D01*
X154474075Y-81472993D01*
X154539901Y-81587007D01*
X154632993Y-81680099D01*
X154747007Y-81745925D01*
X154810590Y-81762962D01*
X154394931Y-82178620D01*
X154394932Y-82178621D01*
X154442633Y-82210495D01*
X154442639Y-82210498D01*
X154633725Y-82289649D01*
X154633733Y-82289651D01*
X154836579Y-82329999D01*
X154836583Y-82330000D01*
X155043417Y-82330000D01*
X155043420Y-82329999D01*
X155246266Y-82289651D01*
X155246274Y-82289649D01*
X155437366Y-82210495D01*
X155485066Y-82178621D01*
X155485067Y-82178620D01*
X155069409Y-81762962D01*
X155132993Y-81745925D01*
X155247007Y-81680099D01*
X155340099Y-81587007D01*
X155405925Y-81472993D01*
X155422962Y-81409409D01*
X155838620Y-81825067D01*
X155838621Y-81825066D01*
X155870495Y-81777366D01*
X155949649Y-81586274D01*
X155949651Y-81586266D01*
X155989999Y-81383420D01*
X155990000Y-81383417D01*
X155990000Y-81176583D01*
X155989999Y-81176579D01*
X155949651Y-80973733D01*
X155949649Y-80973725D01*
X155870498Y-80782639D01*
X155870495Y-80782633D01*
X155838621Y-80734932D01*
X155838620Y-80734931D01*
X155422962Y-81150590D01*
X155405925Y-81087007D01*
X155340099Y-80972993D01*
X155247007Y-80879901D01*
X155132993Y-80814075D01*
X155069409Y-80797037D01*
X155485067Y-80381378D01*
X155485067Y-80381377D01*
X155437359Y-80349500D01*
X155246274Y-80270350D01*
X155246266Y-80270348D01*
X155172207Y-80255617D01*
X155110296Y-80223233D01*
X155075722Y-80162517D01*
X155079461Y-80092748D01*
X155120327Y-80036075D01*
X155185345Y-80010494D01*
X155196398Y-80010000D01*
X176406000Y-80010000D01*
X176473039Y-80029685D01*
G37*
%TD.AperFunction*%
%TA.AperFunction,Conductor*%
G36*
X154750641Y-80029685D02*
G01*
X154796396Y-80082489D01*
X154806340Y-80151647D01*
X154777315Y-80215203D01*
X154718537Y-80252977D01*
X154707793Y-80255617D01*
X154633733Y-80270348D01*
X154633725Y-80270350D01*
X154442641Y-80349500D01*
X154442631Y-80349505D01*
X154394932Y-80381377D01*
X154394932Y-80381378D01*
X154810591Y-80797037D01*
X154747007Y-80814075D01*
X154632993Y-80879901D01*
X154539901Y-80972993D01*
X154474075Y-81087007D01*
X154457037Y-81150591D01*
X154041378Y-80734932D01*
X154041377Y-80734932D01*
X154009505Y-80782631D01*
X154009500Y-80782641D01*
X153930350Y-80973725D01*
X153930348Y-80973733D01*
X153915617Y-81047793D01*
X153883233Y-81109704D01*
X153822517Y-81144278D01*
X153752748Y-81140539D01*
X153696075Y-81099673D01*
X153670494Y-81034655D01*
X153670000Y-81023602D01*
X153670000Y-80134000D01*
X153689685Y-80066961D01*
X153742489Y-80021206D01*
X153794000Y-80010000D01*
X154683602Y-80010000D01*
X154750641Y-80029685D01*
G37*
%TD.AperFunction*%
%TD*%
D14*
X152400000Y-111760000D02*
X152400000Y-78740000D01*
X152400000Y-78740000D02*
X177800000Y-78740000D01*
X177800000Y-111760000D02*
X152400000Y-111760000D01*
X177800000Y-78740000D02*
X177800000Y-111760000D01*
M02*
