%TF.GenerationSoftware,KiCad,Pcbnew,9.0.7*%
%TF.CreationDate,2026-02-18T22:45:12+00:00*%
%TF.ProjectId,OSDSwitch,4f534453-7769-4746-9368-2e6b69636164,rev?*%
%TF.SameCoordinates,Original*%
%TF.FileFunction,Legend,Bot*%
%TF.FilePolarity,Positive*%
%FSLAX46Y46*%
G04 Gerber Fmt 4.6, Leading zero omitted, Abs format (unit mm)*
G04 Created by KiCad (PCBNEW 9.0.7) date 2026-02-18 22:45:12*
%MOMM*%
%LPD*%
G01*
G04 APERTURE LIST*
%ADD10C,0.100000*%
G04 APERTURE END LIST*
D10*
X169480952Y-84572475D02*
X169480952Y-83572475D01*
X169480952Y-83572475D02*
X169242857Y-83572475D01*
X169242857Y-83572475D02*
X169100000Y-83620094D01*
X169100000Y-83620094D02*
X169004762Y-83715332D01*
X169004762Y-83715332D02*
X168957143Y-83810570D01*
X168957143Y-83810570D02*
X168909524Y-84001046D01*
X168909524Y-84001046D02*
X168909524Y-84143903D01*
X168909524Y-84143903D02*
X168957143Y-84334379D01*
X168957143Y-84334379D02*
X169004762Y-84429617D01*
X169004762Y-84429617D02*
X169100000Y-84524856D01*
X169100000Y-84524856D02*
X169242857Y-84572475D01*
X169242857Y-84572475D02*
X169480952Y-84572475D01*
X168100000Y-84524856D02*
X168195238Y-84572475D01*
X168195238Y-84572475D02*
X168385714Y-84572475D01*
X168385714Y-84572475D02*
X168480952Y-84524856D01*
X168480952Y-84524856D02*
X168528571Y-84429617D01*
X168528571Y-84429617D02*
X168528571Y-84048665D01*
X168528571Y-84048665D02*
X168480952Y-83953427D01*
X168480952Y-83953427D02*
X168385714Y-83905808D01*
X168385714Y-83905808D02*
X168195238Y-83905808D01*
X168195238Y-83905808D02*
X168100000Y-83953427D01*
X168100000Y-83953427D02*
X168052381Y-84048665D01*
X168052381Y-84048665D02*
X168052381Y-84143903D01*
X168052381Y-84143903D02*
X168528571Y-84239141D01*
X167671428Y-84524856D02*
X167576190Y-84572475D01*
X167576190Y-84572475D02*
X167385714Y-84572475D01*
X167385714Y-84572475D02*
X167290476Y-84524856D01*
X167290476Y-84524856D02*
X167242857Y-84429617D01*
X167242857Y-84429617D02*
X167242857Y-84381998D01*
X167242857Y-84381998D02*
X167290476Y-84286760D01*
X167290476Y-84286760D02*
X167385714Y-84239141D01*
X167385714Y-84239141D02*
X167528571Y-84239141D01*
X167528571Y-84239141D02*
X167623809Y-84191522D01*
X167623809Y-84191522D02*
X167671428Y-84096284D01*
X167671428Y-84096284D02*
X167671428Y-84048665D01*
X167671428Y-84048665D02*
X167623809Y-83953427D01*
X167623809Y-83953427D02*
X167528571Y-83905808D01*
X167528571Y-83905808D02*
X167385714Y-83905808D01*
X167385714Y-83905808D02*
X167290476Y-83953427D01*
X166814285Y-84572475D02*
X166814285Y-83905808D01*
X166814285Y-83572475D02*
X166861904Y-83620094D01*
X166861904Y-83620094D02*
X166814285Y-83667713D01*
X166814285Y-83667713D02*
X166766666Y-83620094D01*
X166766666Y-83620094D02*
X166814285Y-83572475D01*
X166814285Y-83572475D02*
X166814285Y-83667713D01*
X165909524Y-83905808D02*
X165909524Y-84715332D01*
X165909524Y-84715332D02*
X165957143Y-84810570D01*
X165957143Y-84810570D02*
X166004762Y-84858189D01*
X166004762Y-84858189D02*
X166100000Y-84905808D01*
X166100000Y-84905808D02*
X166242857Y-84905808D01*
X166242857Y-84905808D02*
X166338095Y-84858189D01*
X165909524Y-84524856D02*
X166004762Y-84572475D01*
X166004762Y-84572475D02*
X166195238Y-84572475D01*
X166195238Y-84572475D02*
X166290476Y-84524856D01*
X166290476Y-84524856D02*
X166338095Y-84477236D01*
X166338095Y-84477236D02*
X166385714Y-84381998D01*
X166385714Y-84381998D02*
X166385714Y-84096284D01*
X166385714Y-84096284D02*
X166338095Y-84001046D01*
X166338095Y-84001046D02*
X166290476Y-83953427D01*
X166290476Y-83953427D02*
X166195238Y-83905808D01*
X166195238Y-83905808D02*
X166004762Y-83905808D01*
X166004762Y-83905808D02*
X165909524Y-83953427D01*
X165433333Y-83905808D02*
X165433333Y-84572475D01*
X165433333Y-84001046D02*
X165385714Y-83953427D01*
X165385714Y-83953427D02*
X165290476Y-83905808D01*
X165290476Y-83905808D02*
X165147619Y-83905808D01*
X165147619Y-83905808D02*
X165052381Y-83953427D01*
X165052381Y-83953427D02*
X165004762Y-84048665D01*
X165004762Y-84048665D02*
X165004762Y-84572475D01*
X164147619Y-84524856D02*
X164242857Y-84572475D01*
X164242857Y-84572475D02*
X164433333Y-84572475D01*
X164433333Y-84572475D02*
X164528571Y-84524856D01*
X164528571Y-84524856D02*
X164576190Y-84429617D01*
X164576190Y-84429617D02*
X164576190Y-84048665D01*
X164576190Y-84048665D02*
X164528571Y-83953427D01*
X164528571Y-83953427D02*
X164433333Y-83905808D01*
X164433333Y-83905808D02*
X164242857Y-83905808D01*
X164242857Y-83905808D02*
X164147619Y-83953427D01*
X164147619Y-83953427D02*
X164100000Y-84048665D01*
X164100000Y-84048665D02*
X164100000Y-84143903D01*
X164100000Y-84143903D02*
X164576190Y-84239141D01*
X163242857Y-84572475D02*
X163242857Y-83572475D01*
X163242857Y-84524856D02*
X163338095Y-84572475D01*
X163338095Y-84572475D02*
X163528571Y-84572475D01*
X163528571Y-84572475D02*
X163623809Y-84524856D01*
X163623809Y-84524856D02*
X163671428Y-84477236D01*
X163671428Y-84477236D02*
X163719047Y-84381998D01*
X163719047Y-84381998D02*
X163719047Y-84096284D01*
X163719047Y-84096284D02*
X163671428Y-84001046D01*
X163671428Y-84001046D02*
X163623809Y-83953427D01*
X163623809Y-83953427D02*
X163528571Y-83905808D01*
X163528571Y-83905808D02*
X163338095Y-83905808D01*
X163338095Y-83905808D02*
X163242857Y-83953427D01*
X161671428Y-84048665D02*
X161528571Y-84096284D01*
X161528571Y-84096284D02*
X161480952Y-84143903D01*
X161480952Y-84143903D02*
X161433333Y-84239141D01*
X161433333Y-84239141D02*
X161433333Y-84381998D01*
X161433333Y-84381998D02*
X161480952Y-84477236D01*
X161480952Y-84477236D02*
X161528571Y-84524856D01*
X161528571Y-84524856D02*
X161623809Y-84572475D01*
X161623809Y-84572475D02*
X162004761Y-84572475D01*
X162004761Y-84572475D02*
X162004761Y-83572475D01*
X162004761Y-83572475D02*
X161671428Y-83572475D01*
X161671428Y-83572475D02*
X161576190Y-83620094D01*
X161576190Y-83620094D02*
X161528571Y-83667713D01*
X161528571Y-83667713D02*
X161480952Y-83762951D01*
X161480952Y-83762951D02*
X161480952Y-83858189D01*
X161480952Y-83858189D02*
X161528571Y-83953427D01*
X161528571Y-83953427D02*
X161576190Y-84001046D01*
X161576190Y-84001046D02*
X161671428Y-84048665D01*
X161671428Y-84048665D02*
X162004761Y-84048665D01*
X161099999Y-83905808D02*
X160861904Y-84572475D01*
X160623809Y-83905808D02*
X160861904Y-84572475D01*
X160861904Y-84572475D02*
X160957142Y-84810570D01*
X160957142Y-84810570D02*
X161004761Y-84858189D01*
X161004761Y-84858189D02*
X161099999Y-84905808D01*
X167861904Y-86182419D02*
X167861904Y-85182419D01*
X167861904Y-85182419D02*
X167528571Y-85896704D01*
X167528571Y-85896704D02*
X167195238Y-85182419D01*
X167195238Y-85182419D02*
X167195238Y-86182419D01*
X166290476Y-86182419D02*
X166290476Y-85658609D01*
X166290476Y-85658609D02*
X166338095Y-85563371D01*
X166338095Y-85563371D02*
X166433333Y-85515752D01*
X166433333Y-85515752D02*
X166623809Y-85515752D01*
X166623809Y-85515752D02*
X166719047Y-85563371D01*
X166290476Y-86134800D02*
X166385714Y-86182419D01*
X166385714Y-86182419D02*
X166623809Y-86182419D01*
X166623809Y-86182419D02*
X166719047Y-86134800D01*
X166719047Y-86134800D02*
X166766666Y-86039561D01*
X166766666Y-86039561D02*
X166766666Y-85944323D01*
X166766666Y-85944323D02*
X166719047Y-85849085D01*
X166719047Y-85849085D02*
X166623809Y-85801466D01*
X166623809Y-85801466D02*
X166385714Y-85801466D01*
X166385714Y-85801466D02*
X166290476Y-85753847D01*
X165814285Y-85515752D02*
X165814285Y-86372895D01*
X165814285Y-86372895D02*
X165861904Y-86468133D01*
X165861904Y-86468133D02*
X165957142Y-86515752D01*
X165957142Y-86515752D02*
X166004761Y-86515752D01*
X165814285Y-85182419D02*
X165861904Y-85230038D01*
X165861904Y-85230038D02*
X165814285Y-85277657D01*
X165814285Y-85277657D02*
X165766666Y-85230038D01*
X165766666Y-85230038D02*
X165814285Y-85182419D01*
X165814285Y-85182419D02*
X165814285Y-85277657D01*
X164957143Y-86134800D02*
X165052381Y-86182419D01*
X165052381Y-86182419D02*
X165242857Y-86182419D01*
X165242857Y-86182419D02*
X165338095Y-86134800D01*
X165338095Y-86134800D02*
X165385714Y-86039561D01*
X165385714Y-86039561D02*
X165385714Y-85658609D01*
X165385714Y-85658609D02*
X165338095Y-85563371D01*
X165338095Y-85563371D02*
X165242857Y-85515752D01*
X165242857Y-85515752D02*
X165052381Y-85515752D01*
X165052381Y-85515752D02*
X164957143Y-85563371D01*
X164957143Y-85563371D02*
X164909524Y-85658609D01*
X164909524Y-85658609D02*
X164909524Y-85753847D01*
X164909524Y-85753847D02*
X165385714Y-85849085D01*
X164480952Y-85515752D02*
X164480952Y-86182419D01*
X164480952Y-85610990D02*
X164433333Y-85563371D01*
X164433333Y-85563371D02*
X164338095Y-85515752D01*
X164338095Y-85515752D02*
X164195238Y-85515752D01*
X164195238Y-85515752D02*
X164100000Y-85563371D01*
X164100000Y-85563371D02*
X164052381Y-85658609D01*
X164052381Y-85658609D02*
X164052381Y-86182419D01*
X163576190Y-86182419D02*
X163576190Y-85182419D01*
X163480952Y-85801466D02*
X163195238Y-86182419D01*
X163195238Y-85515752D02*
X163576190Y-85896704D01*
X162623809Y-86182419D02*
X162719047Y-86134800D01*
X162719047Y-86134800D02*
X162766666Y-86087180D01*
X162766666Y-86087180D02*
X162814285Y-85991942D01*
X162814285Y-85991942D02*
X162814285Y-85706228D01*
X162814285Y-85706228D02*
X162766666Y-85610990D01*
X162766666Y-85610990D02*
X162719047Y-85563371D01*
X162719047Y-85563371D02*
X162623809Y-85515752D01*
X162623809Y-85515752D02*
X162480952Y-85515752D01*
X162480952Y-85515752D02*
X162385714Y-85563371D01*
X162385714Y-85563371D02*
X162338095Y-85610990D01*
X162338095Y-85610990D02*
X162290476Y-85706228D01*
X162290476Y-85706228D02*
X162290476Y-85991942D01*
X162290476Y-85991942D02*
X162338095Y-86087180D01*
X162338095Y-86087180D02*
X162385714Y-86134800D01*
X162385714Y-86134800D02*
X162480952Y-86182419D01*
X162480952Y-86182419D02*
X162623809Y-86182419D01*
X170171427Y-87792363D02*
X170171427Y-87125696D01*
X170171427Y-87220934D02*
X170123808Y-87173315D01*
X170123808Y-87173315D02*
X170028570Y-87125696D01*
X170028570Y-87125696D02*
X169885713Y-87125696D01*
X169885713Y-87125696D02*
X169790475Y-87173315D01*
X169790475Y-87173315D02*
X169742856Y-87268553D01*
X169742856Y-87268553D02*
X169742856Y-87792363D01*
X169742856Y-87268553D02*
X169695237Y-87173315D01*
X169695237Y-87173315D02*
X169599999Y-87125696D01*
X169599999Y-87125696D02*
X169457142Y-87125696D01*
X169457142Y-87125696D02*
X169361903Y-87173315D01*
X169361903Y-87173315D02*
X169314284Y-87268553D01*
X169314284Y-87268553D02*
X169314284Y-87792363D01*
X168409523Y-87792363D02*
X168409523Y-87268553D01*
X168409523Y-87268553D02*
X168457142Y-87173315D01*
X168457142Y-87173315D02*
X168552380Y-87125696D01*
X168552380Y-87125696D02*
X168742856Y-87125696D01*
X168742856Y-87125696D02*
X168838094Y-87173315D01*
X168409523Y-87744744D02*
X168504761Y-87792363D01*
X168504761Y-87792363D02*
X168742856Y-87792363D01*
X168742856Y-87792363D02*
X168838094Y-87744744D01*
X168838094Y-87744744D02*
X168885713Y-87649505D01*
X168885713Y-87649505D02*
X168885713Y-87554267D01*
X168885713Y-87554267D02*
X168838094Y-87459029D01*
X168838094Y-87459029D02*
X168742856Y-87411410D01*
X168742856Y-87411410D02*
X168504761Y-87411410D01*
X168504761Y-87411410D02*
X168409523Y-87363791D01*
X167933332Y-87125696D02*
X167933332Y-87982839D01*
X167933332Y-87982839D02*
X167980951Y-88078077D01*
X167980951Y-88078077D02*
X168076189Y-88125696D01*
X168076189Y-88125696D02*
X168123808Y-88125696D01*
X167933332Y-86792363D02*
X167980951Y-86839982D01*
X167980951Y-86839982D02*
X167933332Y-86887601D01*
X167933332Y-86887601D02*
X167885713Y-86839982D01*
X167885713Y-86839982D02*
X167933332Y-86792363D01*
X167933332Y-86792363D02*
X167933332Y-86887601D01*
X167076190Y-87744744D02*
X167171428Y-87792363D01*
X167171428Y-87792363D02*
X167361904Y-87792363D01*
X167361904Y-87792363D02*
X167457142Y-87744744D01*
X167457142Y-87744744D02*
X167504761Y-87649505D01*
X167504761Y-87649505D02*
X167504761Y-87268553D01*
X167504761Y-87268553D02*
X167457142Y-87173315D01*
X167457142Y-87173315D02*
X167361904Y-87125696D01*
X167361904Y-87125696D02*
X167171428Y-87125696D01*
X167171428Y-87125696D02*
X167076190Y-87173315D01*
X167076190Y-87173315D02*
X167028571Y-87268553D01*
X167028571Y-87268553D02*
X167028571Y-87363791D01*
X167028571Y-87363791D02*
X167504761Y-87459029D01*
X166599999Y-87125696D02*
X166599999Y-87792363D01*
X166599999Y-87220934D02*
X166552380Y-87173315D01*
X166552380Y-87173315D02*
X166457142Y-87125696D01*
X166457142Y-87125696D02*
X166314285Y-87125696D01*
X166314285Y-87125696D02*
X166219047Y-87173315D01*
X166219047Y-87173315D02*
X166171428Y-87268553D01*
X166171428Y-87268553D02*
X166171428Y-87792363D01*
X165695237Y-87792363D02*
X165695237Y-86792363D01*
X165599999Y-87411410D02*
X165314285Y-87792363D01*
X165314285Y-87125696D02*
X165695237Y-87506648D01*
X164742856Y-87792363D02*
X164838094Y-87744744D01*
X164838094Y-87744744D02*
X164885713Y-87697124D01*
X164885713Y-87697124D02*
X164933332Y-87601886D01*
X164933332Y-87601886D02*
X164933332Y-87316172D01*
X164933332Y-87316172D02*
X164885713Y-87220934D01*
X164885713Y-87220934D02*
X164838094Y-87173315D01*
X164838094Y-87173315D02*
X164742856Y-87125696D01*
X164742856Y-87125696D02*
X164599999Y-87125696D01*
X164599999Y-87125696D02*
X164504761Y-87173315D01*
X164504761Y-87173315D02*
X164457142Y-87220934D01*
X164457142Y-87220934D02*
X164409523Y-87316172D01*
X164409523Y-87316172D02*
X164409523Y-87601886D01*
X164409523Y-87601886D02*
X164457142Y-87697124D01*
X164457142Y-87697124D02*
X164504761Y-87744744D01*
X164504761Y-87744744D02*
X164599999Y-87792363D01*
X164599999Y-87792363D02*
X164742856Y-87792363D01*
X163980951Y-87697124D02*
X163933332Y-87744744D01*
X163933332Y-87744744D02*
X163980951Y-87792363D01*
X163980951Y-87792363D02*
X164028570Y-87744744D01*
X164028570Y-87744744D02*
X163980951Y-87697124D01*
X163980951Y-87697124D02*
X163980951Y-87792363D01*
X163076190Y-87744744D02*
X163171428Y-87792363D01*
X163171428Y-87792363D02*
X163361904Y-87792363D01*
X163361904Y-87792363D02*
X163457142Y-87744744D01*
X163457142Y-87744744D02*
X163504761Y-87697124D01*
X163504761Y-87697124D02*
X163552380Y-87601886D01*
X163552380Y-87601886D02*
X163552380Y-87316172D01*
X163552380Y-87316172D02*
X163504761Y-87220934D01*
X163504761Y-87220934D02*
X163457142Y-87173315D01*
X163457142Y-87173315D02*
X163361904Y-87125696D01*
X163361904Y-87125696D02*
X163171428Y-87125696D01*
X163171428Y-87125696D02*
X163076190Y-87173315D01*
X162504761Y-87792363D02*
X162599999Y-87744744D01*
X162599999Y-87744744D02*
X162647618Y-87697124D01*
X162647618Y-87697124D02*
X162695237Y-87601886D01*
X162695237Y-87601886D02*
X162695237Y-87316172D01*
X162695237Y-87316172D02*
X162647618Y-87220934D01*
X162647618Y-87220934D02*
X162599999Y-87173315D01*
X162599999Y-87173315D02*
X162504761Y-87125696D01*
X162504761Y-87125696D02*
X162361904Y-87125696D01*
X162361904Y-87125696D02*
X162266666Y-87173315D01*
X162266666Y-87173315D02*
X162219047Y-87220934D01*
X162219047Y-87220934D02*
X162171428Y-87316172D01*
X162171428Y-87316172D02*
X162171428Y-87601886D01*
X162171428Y-87601886D02*
X162219047Y-87697124D01*
X162219047Y-87697124D02*
X162266666Y-87744744D01*
X162266666Y-87744744D02*
X162361904Y-87792363D01*
X162361904Y-87792363D02*
X162504761Y-87792363D01*
X161742856Y-87697124D02*
X161695237Y-87744744D01*
X161695237Y-87744744D02*
X161742856Y-87792363D01*
X161742856Y-87792363D02*
X161790475Y-87744744D01*
X161790475Y-87744744D02*
X161742856Y-87697124D01*
X161742856Y-87697124D02*
X161742856Y-87792363D01*
X160838095Y-87125696D02*
X160838095Y-87792363D01*
X161266666Y-87125696D02*
X161266666Y-87649505D01*
X161266666Y-87649505D02*
X161219047Y-87744744D01*
X161219047Y-87744744D02*
X161123809Y-87792363D01*
X161123809Y-87792363D02*
X160980952Y-87792363D01*
X160980952Y-87792363D02*
X160885714Y-87744744D01*
X160885714Y-87744744D02*
X160838095Y-87697124D01*
X160361904Y-87792363D02*
X160361904Y-86792363D01*
X160266666Y-87411410D02*
X159980952Y-87792363D01*
X159980952Y-87125696D02*
X160361904Y-87506648D01*
M02*
