%TF.GenerationSoftware,KiCad,Pcbnew,9.0.7*%
%TF.CreationDate,2026-03-13T12:40:06+00:00*%
%TF.ProjectId,OSDSwitch,4f534453-7769-4746-9368-2e6b69636164,rev?*%
%TF.SameCoordinates,Original*%
%TF.FileFunction,Copper,L1,Top*%
%TF.FilePolarity,Positive*%
%FSLAX46Y46*%
G04 Gerber Fmt 4.6, Leading zero omitted, Abs format (unit mm)*
G04 Created by KiCad (PCBNEW 9.0.7) date 2026-03-13 12:40:06*
%MOMM*%
%LPD*%
G01*
G04 APERTURE LIST*
G04 Aperture macros list*
%AMRoundRect*
0 Rectangle with rounded corners*
0 $1 Rounding radius*
0 $2 $3 $4 $5 $6 $7 $8 $9 X,Y pos of 4 corners*
0 Add a 4 corners polygon primitive as box body*
4,1,4,$2,$3,$4,$5,$6,$7,$8,$9,$2,$3,0*
0 Add four circle primitives for the rounded corners*
1,1,$1+$1,$2,$3*
1,1,$1+$1,$4,$5*
1,1,$1+$1,$6,$7*
1,1,$1+$1,$8,$9*
0 Add four rect primitives between the rounded corners*
20,1,$1+$1,$2,$3,$4,$5,0*
20,1,$1+$1,$4,$5,$6,$7,0*
20,1,$1+$1,$6,$7,$8,$9,0*
20,1,$1+$1,$8,$9,$2,$3,0*%
G04 Aperture macros list end*
%TA.AperFunction,SMDPad,CuDef*%
%ADD10RoundRect,0.140000X-0.140000X-0.170000X0.140000X-0.170000X0.140000X0.170000X-0.140000X0.170000X0*%
%TD*%
%TA.AperFunction,SMDPad,CuDef*%
%ADD11RoundRect,0.250000X-1.050000X-0.550000X1.050000X-0.550000X1.050000X0.550000X-1.050000X0.550000X0*%
%TD*%
%TA.AperFunction,SMDPad,CuDef*%
%ADD12RoundRect,0.218750X0.256250X-0.218750X0.256250X0.218750X-0.256250X0.218750X-0.256250X-0.218750X0*%
%TD*%
%TA.AperFunction,ComponentPad*%
%ADD13R,1.700000X1.700000*%
%TD*%
%TA.AperFunction,ComponentPad*%
%ADD14C,1.700000*%
%TD*%
%TA.AperFunction,SMDPad,CuDef*%
%ADD15RoundRect,0.135000X0.185000X-0.135000X0.185000X0.135000X-0.185000X0.135000X-0.185000X-0.135000X0*%
%TD*%
%TA.AperFunction,SMDPad,CuDef*%
%ADD16RoundRect,0.062500X-0.325000X-0.062500X0.325000X-0.062500X0.325000X0.062500X-0.325000X0.062500X0*%
%TD*%
%TA.AperFunction,SMDPad,CuDef*%
%ADD17RoundRect,0.062500X-0.062500X-0.325000X0.062500X-0.325000X0.062500X0.325000X-0.062500X0.325000X0*%
%TD*%
%TA.AperFunction,HeatsinkPad*%
%ADD18R,1.750000X1.750000*%
%TD*%
%TA.AperFunction,ViaPad*%
%ADD19C,0.600000*%
%TD*%
%TA.AperFunction,Conductor*%
%ADD20C,0.200000*%
%TD*%
%TA.AperFunction,Conductor*%
%ADD21C,0.500000*%
%TD*%
%TA.AperFunction,Profile*%
%ADD22C,0.050000*%
%TD*%
G04 APERTURE END LIST*
D10*
%TO.P,C1,1*%
%TO.N,+5V*%
X164620000Y-90170000D03*
%TO.P,C1,2*%
%TO.N,GND*%
X165580000Y-90170000D03*
%TD*%
%TO.P,C2,1*%
%TO.N,+5V*%
X164620000Y-88900000D03*
%TO.P,C2,2*%
%TO.N,GND*%
X165580000Y-88900000D03*
%TD*%
D11*
%TO.P,C4,1*%
%TO.N,+5V*%
X160760000Y-83820000D03*
%TO.P,C4,2*%
%TO.N,GND*%
X164360000Y-83820000D03*
%TD*%
D12*
%TO.P,L1,1,1*%
%TO.N,Net-(J4-Pin_1)*%
X160020000Y-89687500D03*
%TO.P,L1,2,2*%
%TO.N,+5V*%
X160020000Y-88112500D03*
%TD*%
D13*
%TO.P,J4,1,Pin_1*%
%TO.N,Net-(J4-Pin_1)*%
X154940000Y-90170000D03*
D14*
%TO.P,J4,2,Pin_2*%
%TO.N,/RED_IN*%
X154940000Y-92710000D03*
%TO.P,J4,3,Pin_3*%
%TO.N,/GREEN_IN*%
X154940000Y-95250000D03*
%TO.P,J4,4,Pin_4*%
%TO.N,/BLUE_IN*%
X154940000Y-97790000D03*
%TO.P,J4,5,Pin_5*%
%TO.N,GND*%
X154940000Y-100330000D03*
%TD*%
D13*
%TO.P,J3,1,Pin_1*%
%TO.N,GND*%
X168910000Y-101600000D03*
D14*
%TO.P,J3,2,Pin_2*%
%TO.N,Net-(IC1-S3A)*%
X168910000Y-104140000D03*
%TO.P,J3,3,Pin_3*%
%TO.N,Net-(J3-Pin_3)*%
X168910000Y-106680000D03*
%TD*%
D15*
%TO.P,R2,1*%
%TO.N,+5V*%
X161290000Y-110238000D03*
%TO.P,R2,2*%
%TO.N,Net-(J1-Pin_3)*%
X161290000Y-109218000D03*
%TD*%
%TO.P,R3,1*%
%TO.N,+5V*%
X168910000Y-110238000D03*
%TO.P,R3,2*%
%TO.N,Net-(J3-Pin_3)*%
X168910000Y-109218000D03*
%TD*%
D13*
%TO.P,J1,1,Pin_1*%
%TO.N,GND*%
X161290000Y-101600000D03*
D14*
%TO.P,J1,2,Pin_2*%
%TO.N,Net-(IC1-S1A)*%
X161290000Y-104140000D03*
%TO.P,J1,3,Pin_3*%
%TO.N,Net-(J1-Pin_3)*%
X161290000Y-106680000D03*
%TD*%
D13*
%TO.P,J5,1,Pin_1*%
%TO.N,/RED_OUT*%
X175260000Y-91440000D03*
D14*
%TO.P,J5,2,Pin_2*%
%TO.N,/GREEN_OUT*%
X175260000Y-93980000D03*
%TO.P,J5,3,Pin_3*%
%TO.N,/BLUE_OUT*%
X175260000Y-96520000D03*
%TO.P,J5,4,Pin_4*%
%TO.N,GND*%
X175260000Y-99060000D03*
%TD*%
D15*
%TO.P,R1,1*%
%TO.N,+5V*%
X165100000Y-110238000D03*
%TO.P,R1,2*%
%TO.N,Net-(J2-Pin_3)*%
X165100000Y-109218000D03*
%TD*%
D13*
%TO.P,J2,1,Pin_1*%
%TO.N,GND*%
X165100000Y-101600000D03*
D14*
%TO.P,J2,2,Pin_2*%
%TO.N,Net-(IC1-S2A)*%
X165100000Y-104140000D03*
%TO.P,J2,3,Pin_3*%
%TO.N,Net-(J2-Pin_3)*%
X165100000Y-106680000D03*
%TD*%
D10*
%TO.P,C3,1*%
%TO.N,+5V*%
X164620000Y-87630000D03*
%TO.P,C3,2*%
%TO.N,GND*%
X165580000Y-87630000D03*
%TD*%
D16*
%TO.P,IC1,1,D1*%
%TO.N,/RED_OUT*%
X163927500Y-93840000D03*
%TO.P,IC1,2,S1B*%
%TO.N,/RED_IN*%
X163927500Y-94340000D03*
%TO.P,IC1,3,S2B*%
%TO.N,/GREEN_IN*%
X163927500Y-94840000D03*
%TO.P,IC1,4,D2*%
%TO.N,/GREEN_OUT*%
X163927500Y-95340000D03*
D17*
%TO.P,IC1,5,S2A*%
%TO.N,Net-(IC1-S2A)*%
X164640000Y-96052500D03*
%TO.P,IC1,6,IN2*%
%TO.N,/OSD_VID*%
X165140000Y-96052500D03*
%TO.P,IC1,7,IN3*%
X165640000Y-96052500D03*
%TO.P,IC1,8,S3A*%
%TO.N,Net-(IC1-S3A)*%
X166140000Y-96052500D03*
D16*
%TO.P,IC1,9,D3*%
%TO.N,/BLUE_OUT*%
X166852500Y-95340000D03*
%TO.P,IC1,10,S3B*%
%TO.N,/BLUE_IN*%
X166852500Y-94840000D03*
%TO.P,IC1,11,VSS_1*%
%TO.N,GND*%
X166852500Y-94340000D03*
%TO.P,IC1,12,~{EN}*%
X166852500Y-93840000D03*
D17*
%TO.P,IC1,13,IN1*%
%TO.N,/OSD_VID*%
X166140000Y-93127500D03*
%TO.P,IC1,14,GND*%
%TO.N,GND*%
X165640000Y-93127500D03*
%TO.P,IC1,15,VDD*%
%TO.N,+5V*%
X165140000Y-93127500D03*
%TO.P,IC1,16,S1A*%
%TO.N,Net-(IC1-S1A)*%
X164640000Y-93127500D03*
D18*
%TO.P,IC1,17,VSS_2*%
%TO.N,GND*%
X165390000Y-94590000D03*
%TD*%
D13*
%TO.P,J6,1,Pin_1*%
%TO.N,/OSD_VID*%
X154940000Y-83820000D03*
D14*
%TO.P,J6,2,Pin_2*%
%TO.N,GND*%
X154940000Y-81280000D03*
%TD*%
D19*
%TO.N,GND*%
X161290000Y-90043000D03*
X169722800Y-92481400D03*
X165423000Y-94557000D03*
X171323000Y-99314000D03*
X168148000Y-92583000D03*
X162179000Y-98679000D03*
X173228000Y-90551000D03*
X157226000Y-89154000D03*
X163449000Y-88138000D03*
X162179000Y-96520000D03*
X167767000Y-97663000D03*
X160020000Y-94488000D03*
X157480000Y-93980000D03*
X157480000Y-96520000D03*
X162433000Y-91567000D03*
X157480000Y-91694000D03*
X160782000Y-92456000D03*
X163576000Y-90297000D03*
X159258000Y-86614000D03*
X164846000Y-99187000D03*
X171704000Y-89154000D03*
X167640000Y-90043000D03*
X167640000Y-87757000D03*
X169164000Y-96266000D03*
X160020000Y-96520000D03*
X171323000Y-92964000D03*
X160274000Y-98806000D03*
X171196000Y-96266000D03*
X170180000Y-90170000D03*
%TO.N,Net-(IC1-S2A)*%
X164084000Y-98552000D03*
%TO.N,Net-(IC1-S3A)*%
X166624000Y-98044000D03*
%TO.N,/OSD_VID*%
X167640000Y-99060000D03*
X168910000Y-90170000D03*
%TO.N,Net-(IC1-S1A)*%
X163322000Y-92405200D03*
%TO.N,/RED_OUT*%
X163195000Y-89535000D03*
%TO.N,/BLUE_IN*%
X169443400Y-94740000D03*
%TD*%
D20*
%TO.N,+5V*%
X158496000Y-86360000D02*
X158496000Y-84312000D01*
D21*
X164620000Y-87680000D02*
X164620000Y-90170000D01*
D20*
X168910000Y-110208000D02*
X161290000Y-110208000D01*
D21*
X160020000Y-88112500D02*
X160020000Y-84560000D01*
D20*
X158496000Y-84312000D02*
X158988000Y-83820000D01*
X164620000Y-90960000D02*
X165140000Y-91480000D01*
X158988000Y-83820000D02*
X160760000Y-83820000D01*
D21*
X160760000Y-83820000D02*
X164570000Y-87630000D01*
D20*
X154432000Y-87376000D02*
X157480000Y-87376000D01*
D21*
X160020000Y-84560000D02*
X160760000Y-83820000D01*
D20*
X165140000Y-91480000D02*
X165140000Y-93127500D01*
D21*
X164570000Y-87630000D02*
X164620000Y-87630000D01*
D20*
X153670000Y-108458000D02*
X153670000Y-88138000D01*
X161290000Y-110208000D02*
X155420000Y-110208000D01*
X157480000Y-87376000D02*
X158496000Y-86360000D01*
X165140000Y-93127500D02*
X165140000Y-92224202D01*
X155420000Y-110208000D02*
X153670000Y-108458000D01*
X164620000Y-90170000D02*
X164620000Y-90960000D01*
D21*
X164570000Y-87630000D02*
X164620000Y-87680000D01*
D20*
X153670000Y-88138000D02*
X154432000Y-87376000D01*
%TO.N,GND*%
X166140000Y-93840000D02*
X165390000Y-94590000D01*
X165640000Y-92640000D02*
X165640000Y-94340000D01*
X167340000Y-94340000D02*
X165640000Y-94340000D01*
X165640000Y-94340000D02*
X165423000Y-94557000D01*
X167340000Y-93840000D02*
X166140000Y-93840000D01*
X165423000Y-94557000D02*
X165390000Y-94590000D01*
%TO.N,/GREEN_IN*%
X161290000Y-95250000D02*
X154940000Y-95250000D01*
X161700000Y-94840000D02*
X161290000Y-95250000D01*
X163927500Y-94840000D02*
X161700000Y-94840000D01*
%TO.N,/RED_IN*%
X154940000Y-92710000D02*
X159512000Y-92710000D01*
X159512000Y-92710000D02*
X161142000Y-94340000D01*
X161142000Y-94340000D02*
X163927500Y-94340000D01*
%TO.N,/BLUE_OUT*%
X171540000Y-95340000D02*
X172720000Y-96520000D01*
X172720000Y-96520000D02*
X175260000Y-96520000D01*
X166852500Y-95340000D02*
X171540000Y-95340000D01*
%TO.N,Net-(IC1-S2A)*%
X164640000Y-96052500D02*
X164640000Y-97996000D01*
X164640000Y-97996000D02*
X164084000Y-98552000D01*
%TO.N,Net-(IC1-S3A)*%
X166140000Y-96052500D02*
X166140000Y-97560000D01*
X166140000Y-97560000D02*
X166624000Y-98044000D01*
%TO.N,/OSD_VID*%
X166140000Y-93127500D02*
X166140000Y-92305000D01*
X167640000Y-99060000D02*
X166370000Y-99060000D01*
X168910000Y-82550000D02*
X168910000Y-90170000D01*
X154940000Y-83820000D02*
X156210000Y-83820000D01*
X158750000Y-81280000D02*
X167640000Y-81280000D01*
X166140000Y-92305000D02*
X167005000Y-91440000D01*
X165640000Y-96052500D02*
X165640000Y-98330000D01*
X165140000Y-96052500D02*
X165140000Y-97830000D01*
X165140000Y-97830000D02*
X165640000Y-98330000D01*
X167640000Y-81280000D02*
X168910000Y-82550000D01*
X168910000Y-90170000D02*
X168910000Y-88900000D01*
X167640000Y-91440000D02*
X168910000Y-90170000D01*
X156210000Y-83820000D02*
X158750000Y-81280000D01*
X167005000Y-91440000D02*
X167640000Y-91440000D01*
X165640000Y-98330000D02*
X166370000Y-99060000D01*
%TO.N,Net-(IC1-S1A)*%
X163677600Y-92049600D02*
X164414200Y-92049600D01*
X163322000Y-92405200D02*
X163677600Y-92049600D01*
X164640000Y-92275400D02*
X164640000Y-93127500D01*
X164414200Y-92049600D02*
X164640000Y-92275400D01*
%TO.N,/GREEN_OUT*%
X176530000Y-97282000D02*
X176022000Y-97790000D01*
X162052000Y-99822000D02*
X161544000Y-99314000D01*
X171450000Y-97790000D02*
X169418000Y-99822000D01*
X169418000Y-99822000D02*
X162052000Y-99822000D01*
X175260000Y-93980000D02*
X176022000Y-93980000D01*
X176530000Y-94488000D02*
X176530000Y-97282000D01*
X161544000Y-99314000D02*
X161544000Y-96012000D01*
X162216000Y-95340000D02*
X163927500Y-95340000D01*
X176022000Y-93980000D02*
X176530000Y-94488000D01*
X161544000Y-96012000D02*
X162216000Y-95340000D01*
X176022000Y-97790000D02*
X171450000Y-97790000D01*
%TO.N,/RED_OUT*%
X162166000Y-93840000D02*
X163927500Y-93840000D01*
X161798000Y-93472000D02*
X162166000Y-93840000D01*
X163195000Y-89535000D02*
X161798000Y-90932000D01*
X161798000Y-90932000D02*
X161798000Y-93472000D01*
%TO.N,/BLUE_IN*%
X169343400Y-94840000D02*
X166852500Y-94840000D01*
X169443400Y-94740000D02*
X169343400Y-94840000D01*
%TO.N,Net-(J1-Pin_3)*%
X161290000Y-106680000D02*
X161290000Y-109248000D01*
%TO.N,Net-(J2-Pin_3)*%
X165100000Y-109248000D02*
X165100000Y-106680000D01*
%TO.N,Net-(J3-Pin_3)*%
X168910000Y-106680000D02*
X168910000Y-109248000D01*
D21*
%TO.N,Net-(J4-Pin_1)*%
X154940000Y-90170000D02*
X159537500Y-90170000D01*
X159537500Y-90170000D02*
X160020000Y-89687500D01*
%TD*%
%TA.AperFunction,Conductor*%
%TO.N,GND*%
G36*
X161348206Y-95570185D02*
G01*
X161393961Y-95622989D01*
X161403905Y-95692147D01*
X161374880Y-95755703D01*
X161368848Y-95762181D01*
X161303541Y-95827487D01*
X161303535Y-95827495D01*
X161263982Y-95896004D01*
X161263979Y-95896009D01*
X161257643Y-95919655D01*
X161243500Y-95972438D01*
X161243500Y-99353562D01*
X161247103Y-99367007D01*
X161263979Y-99429990D01*
X161263982Y-99429995D01*
X161303535Y-99498504D01*
X161303539Y-99498509D01*
X161303540Y-99498511D01*
X161811540Y-100006511D01*
X161867489Y-100062460D01*
X161867491Y-100062461D01*
X161867495Y-100062464D01*
X161936004Y-100102017D01*
X161936011Y-100102021D01*
X162012438Y-100122500D01*
X162012440Y-100122500D01*
X169457560Y-100122500D01*
X169457562Y-100122500D01*
X169533989Y-100102021D01*
X169602511Y-100062460D01*
X169658460Y-100006511D01*
X171538152Y-98126819D01*
X171599475Y-98093334D01*
X171625833Y-98090500D01*
X174592692Y-98090500D01*
X174659731Y-98110185D01*
X174680373Y-98126819D01*
X175130591Y-98577037D01*
X175067007Y-98594075D01*
X174952993Y-98659901D01*
X174859901Y-98752993D01*
X174794075Y-98867007D01*
X174777037Y-98930591D01*
X174361378Y-98514932D01*
X174361377Y-98514932D01*
X174329505Y-98562631D01*
X174329500Y-98562641D01*
X174250350Y-98753725D01*
X174250348Y-98753733D01*
X174210000Y-98956579D01*
X174210000Y-99163420D01*
X174250348Y-99366266D01*
X174250350Y-99366274D01*
X174329500Y-99557359D01*
X174361377Y-99605067D01*
X174361378Y-99605067D01*
X174777037Y-99189408D01*
X174794075Y-99252993D01*
X174859901Y-99367007D01*
X174952993Y-99460099D01*
X175067007Y-99525925D01*
X175130590Y-99542962D01*
X174714931Y-99958620D01*
X174714932Y-99958621D01*
X174762633Y-99990495D01*
X174762639Y-99990498D01*
X174953725Y-100069649D01*
X174953733Y-100069651D01*
X175156579Y-100109999D01*
X175156583Y-100110000D01*
X175363417Y-100110000D01*
X175363420Y-100109999D01*
X175566266Y-100069651D01*
X175566274Y-100069649D01*
X175757366Y-99990495D01*
X175805066Y-99958621D01*
X175805067Y-99958620D01*
X175389409Y-99542962D01*
X175452993Y-99525925D01*
X175567007Y-99460099D01*
X175660099Y-99367007D01*
X175725925Y-99252993D01*
X175742962Y-99189409D01*
X176158620Y-99605067D01*
X176158621Y-99605066D01*
X176190495Y-99557366D01*
X176269649Y-99366274D01*
X176284382Y-99292207D01*
X176316767Y-99230295D01*
X176377483Y-99195721D01*
X176447252Y-99199460D01*
X176503924Y-99240326D01*
X176529506Y-99305344D01*
X176530000Y-99316397D01*
X176530000Y-110366000D01*
X176510315Y-110433039D01*
X176457511Y-110478794D01*
X176406000Y-110490000D01*
X169554500Y-110490000D01*
X169487461Y-110470315D01*
X169441706Y-110417511D01*
X169430500Y-110366000D01*
X169430500Y-110063683D01*
X169424068Y-110014828D01*
X169424068Y-110014827D01*
X169374065Y-109907596D01*
X169290404Y-109823935D01*
X169282733Y-109816264D01*
X169285561Y-109813435D01*
X169254843Y-109775023D01*
X169247635Y-109705526D01*
X169279143Y-109643165D01*
X169282903Y-109639906D01*
X169282733Y-109639736D01*
X169290404Y-109632065D01*
X169374065Y-109548404D01*
X169424068Y-109441173D01*
X169430500Y-109392316D01*
X169430500Y-109043684D01*
X169424068Y-108994827D01*
X169374065Y-108887596D01*
X169290404Y-108803935D01*
X169290401Y-108803932D01*
X169282089Y-108800056D01*
X169229652Y-108753881D01*
X169210500Y-108687677D01*
X169210500Y-107775435D01*
X169230185Y-107708396D01*
X169282989Y-107662641D01*
X169287012Y-107660889D01*
X169407598Y-107610941D01*
X169579655Y-107495977D01*
X169725977Y-107349655D01*
X169840941Y-107177598D01*
X169920130Y-106986420D01*
X169960500Y-106783465D01*
X169960500Y-106576535D01*
X169920130Y-106373580D01*
X169840941Y-106182402D01*
X169725977Y-106010345D01*
X169725975Y-106010342D01*
X169579657Y-105864024D01*
X169493626Y-105806541D01*
X169407598Y-105749059D01*
X169216420Y-105669870D01*
X169216412Y-105669868D01*
X169013469Y-105629500D01*
X169013465Y-105629500D01*
X168806535Y-105629500D01*
X168806530Y-105629500D01*
X168603587Y-105669868D01*
X168603579Y-105669870D01*
X168412403Y-105749058D01*
X168240342Y-105864024D01*
X168094024Y-106010342D01*
X167979058Y-106182403D01*
X167899870Y-106373579D01*
X167899868Y-106373587D01*
X167859500Y-106576530D01*
X167859500Y-106783469D01*
X167899868Y-106986412D01*
X167899870Y-106986420D01*
X167979058Y-107177596D01*
X168094024Y-107349657D01*
X168240342Y-107495975D01*
X168240345Y-107495977D01*
X168412402Y-107610941D01*
X168532953Y-107660875D01*
X168587356Y-107704714D01*
X168609421Y-107771008D01*
X168609500Y-107775435D01*
X168609500Y-108687677D01*
X168589815Y-108754716D01*
X168537911Y-108800056D01*
X168529598Y-108803932D01*
X168445935Y-108887595D01*
X168395931Y-108994828D01*
X168389500Y-109043683D01*
X168389500Y-109392316D01*
X168395931Y-109441171D01*
X168445935Y-109548404D01*
X168537267Y-109639736D01*
X168534443Y-109642559D01*
X168565183Y-109681042D01*
X168572352Y-109750542D01*
X168540808Y-109812886D01*
X168537903Y-109815877D01*
X168529996Y-109823748D01*
X168529596Y-109823935D01*
X168482154Y-109871377D01*
X168451455Y-109888050D01*
X168421027Y-109904666D01*
X168420824Y-109904687D01*
X168420756Y-109904725D01*
X168420591Y-109904712D01*
X168394669Y-109907500D01*
X165615331Y-109907500D01*
X165548292Y-109887815D01*
X165527650Y-109871181D01*
X165472733Y-109816264D01*
X165475561Y-109813435D01*
X165444843Y-109775023D01*
X165437635Y-109705526D01*
X165469143Y-109643165D01*
X165472903Y-109639906D01*
X165472733Y-109639736D01*
X165480404Y-109632065D01*
X165564065Y-109548404D01*
X165614068Y-109441173D01*
X165620500Y-109392316D01*
X165620500Y-109043684D01*
X165614068Y-108994827D01*
X165564065Y-108887596D01*
X165480404Y-108803935D01*
X165480401Y-108803932D01*
X165472089Y-108800056D01*
X165419652Y-108753881D01*
X165400500Y-108687677D01*
X165400500Y-107775435D01*
X165420185Y-107708396D01*
X165472989Y-107662641D01*
X165477012Y-107660889D01*
X165597598Y-107610941D01*
X165769655Y-107495977D01*
X165915977Y-107349655D01*
X166030941Y-107177598D01*
X166110130Y-106986420D01*
X166150500Y-106783465D01*
X166150500Y-106576535D01*
X166110130Y-106373580D01*
X166030941Y-106182402D01*
X165915977Y-106010345D01*
X165915975Y-106010342D01*
X165769657Y-105864024D01*
X165683626Y-105806541D01*
X165597598Y-105749059D01*
X165406420Y-105669870D01*
X165406412Y-105669868D01*
X165203469Y-105629500D01*
X165203465Y-105629500D01*
X164996535Y-105629500D01*
X164996530Y-105629500D01*
X164793587Y-105669868D01*
X164793579Y-105669870D01*
X164602403Y-105749058D01*
X164430342Y-105864024D01*
X164284024Y-106010342D01*
X164169058Y-106182403D01*
X164089870Y-106373579D01*
X164089868Y-106373587D01*
X164049500Y-106576530D01*
X164049500Y-106783469D01*
X164089868Y-106986412D01*
X164089870Y-106986420D01*
X164169058Y-107177596D01*
X164284024Y-107349657D01*
X164430342Y-107495975D01*
X164430345Y-107495977D01*
X164602402Y-107610941D01*
X164722953Y-107660875D01*
X164777356Y-107704714D01*
X164799421Y-107771008D01*
X164799500Y-107775435D01*
X164799500Y-108687677D01*
X164779815Y-108754716D01*
X164727911Y-108800056D01*
X164719598Y-108803932D01*
X164635935Y-108887595D01*
X164585931Y-108994828D01*
X164579500Y-109043683D01*
X164579500Y-109392316D01*
X164585931Y-109441171D01*
X164635935Y-109548404D01*
X164727267Y-109639736D01*
X164724443Y-109642559D01*
X164755183Y-109681042D01*
X164762352Y-109750542D01*
X164730808Y-109812886D01*
X164727903Y-109815877D01*
X164719996Y-109823748D01*
X164719596Y-109823935D01*
X164672154Y-109871377D01*
X164641455Y-109888050D01*
X164611027Y-109904666D01*
X164610824Y-109904687D01*
X164610756Y-109904725D01*
X164610591Y-109904712D01*
X164584669Y-109907500D01*
X161805331Y-109907500D01*
X161738292Y-109887815D01*
X161717650Y-109871181D01*
X161662733Y-109816264D01*
X161665561Y-109813435D01*
X161634843Y-109775023D01*
X161627635Y-109705526D01*
X161659143Y-109643165D01*
X161662903Y-109639906D01*
X161662733Y-109639736D01*
X161670404Y-109632065D01*
X161754065Y-109548404D01*
X161804068Y-109441173D01*
X161810500Y-109392316D01*
X161810500Y-109043684D01*
X161804068Y-108994827D01*
X161754065Y-108887596D01*
X161670404Y-108803935D01*
X161670401Y-108803932D01*
X161662089Y-108800056D01*
X161609652Y-108753881D01*
X161590500Y-108687677D01*
X161590500Y-107775435D01*
X161610185Y-107708396D01*
X161662989Y-107662641D01*
X161667012Y-107660889D01*
X161787598Y-107610941D01*
X161959655Y-107495977D01*
X162105977Y-107349655D01*
X162220941Y-107177598D01*
X162300130Y-106986420D01*
X162340500Y-106783465D01*
X162340500Y-106576535D01*
X162300130Y-106373580D01*
X162220941Y-106182402D01*
X162105977Y-106010345D01*
X162105975Y-106010342D01*
X161959657Y-105864024D01*
X161873626Y-105806541D01*
X161787598Y-105749059D01*
X161596420Y-105669870D01*
X161596412Y-105669868D01*
X161393469Y-105629500D01*
X161393465Y-105629500D01*
X161186535Y-105629500D01*
X161186530Y-105629500D01*
X160983587Y-105669868D01*
X160983579Y-105669870D01*
X160792403Y-105749058D01*
X160620342Y-105864024D01*
X160474024Y-106010342D01*
X160359058Y-106182403D01*
X160279870Y-106373579D01*
X160279868Y-106373587D01*
X160239500Y-106576530D01*
X160239500Y-106783469D01*
X160279868Y-106986412D01*
X160279870Y-106986420D01*
X160359058Y-107177596D01*
X160474024Y-107349657D01*
X160620342Y-107495975D01*
X160620345Y-107495977D01*
X160792402Y-107610941D01*
X160912953Y-107660875D01*
X160967356Y-107704714D01*
X160989421Y-107771008D01*
X160989500Y-107775435D01*
X160989500Y-108687677D01*
X160969815Y-108754716D01*
X160917911Y-108800056D01*
X160909598Y-108803932D01*
X160825935Y-108887595D01*
X160775931Y-108994828D01*
X160769500Y-109043683D01*
X160769500Y-109392316D01*
X160775931Y-109441171D01*
X160825935Y-109548404D01*
X160917267Y-109639736D01*
X160914443Y-109642559D01*
X160945183Y-109681042D01*
X160952352Y-109750542D01*
X160920808Y-109812886D01*
X160917903Y-109815877D01*
X160909996Y-109823748D01*
X160909596Y-109823935D01*
X160862154Y-109871377D01*
X160831455Y-109888050D01*
X160801027Y-109904666D01*
X160800824Y-109904687D01*
X160800756Y-109904725D01*
X160800591Y-109904712D01*
X160774669Y-109907500D01*
X155595833Y-109907500D01*
X155528794Y-109887815D01*
X155508152Y-109871181D01*
X154006819Y-108369848D01*
X153973334Y-108308525D01*
X153970500Y-108282167D01*
X153970500Y-104036530D01*
X160239500Y-104036530D01*
X160239500Y-104243469D01*
X160279868Y-104446412D01*
X160279870Y-104446420D01*
X160359058Y-104637596D01*
X160474024Y-104809657D01*
X160620342Y-104955975D01*
X160620345Y-104955977D01*
X160792402Y-105070941D01*
X160983580Y-105150130D01*
X161186530Y-105190499D01*
X161186534Y-105190500D01*
X161186535Y-105190500D01*
X161393466Y-105190500D01*
X161393467Y-105190499D01*
X161596420Y-105150130D01*
X161787598Y-105070941D01*
X161959655Y-104955977D01*
X162105977Y-104809655D01*
X162220941Y-104637598D01*
X162300130Y-104446420D01*
X162340500Y-104243465D01*
X162340500Y-104036535D01*
X162340499Y-104036530D01*
X164049500Y-104036530D01*
X164049500Y-104243469D01*
X164089868Y-104446412D01*
X164089870Y-104446420D01*
X164169058Y-104637596D01*
X164284024Y-104809657D01*
X164430342Y-104955975D01*
X164430345Y-104955977D01*
X164602402Y-105070941D01*
X164793580Y-105150130D01*
X164996530Y-105190499D01*
X164996534Y-105190500D01*
X164996535Y-105190500D01*
X165203466Y-105190500D01*
X165203467Y-105190499D01*
X165406420Y-105150130D01*
X165597598Y-105070941D01*
X165769655Y-104955977D01*
X165915977Y-104809655D01*
X166030941Y-104637598D01*
X166110130Y-104446420D01*
X166150500Y-104243465D01*
X166150500Y-104036535D01*
X166150499Y-104036530D01*
X167859500Y-104036530D01*
X167859500Y-104243469D01*
X167899868Y-104446412D01*
X167899870Y-104446420D01*
X167979058Y-104637596D01*
X168094024Y-104809657D01*
X168240342Y-104955975D01*
X168240345Y-104955977D01*
X168412402Y-105070941D01*
X168603580Y-105150130D01*
X168806530Y-105190499D01*
X168806534Y-105190500D01*
X168806535Y-105190500D01*
X169013466Y-105190500D01*
X169013467Y-105190499D01*
X169216420Y-105150130D01*
X169407598Y-105070941D01*
X169579655Y-104955977D01*
X169725977Y-104809655D01*
X169840941Y-104637598D01*
X169920130Y-104446420D01*
X169960500Y-104243465D01*
X169960500Y-104036535D01*
X169920130Y-103833580D01*
X169840941Y-103642402D01*
X169725977Y-103470345D01*
X169725975Y-103470342D01*
X169579657Y-103324024D01*
X169493626Y-103266541D01*
X169407598Y-103209059D01*
X169216420Y-103129870D01*
X169216412Y-103129868D01*
X169013469Y-103089500D01*
X169013465Y-103089500D01*
X168806535Y-103089500D01*
X168806530Y-103089500D01*
X168603587Y-103129868D01*
X168603579Y-103129870D01*
X168412403Y-103209058D01*
X168240342Y-103324024D01*
X168094024Y-103470342D01*
X167979058Y-103642403D01*
X167899870Y-103833579D01*
X167899868Y-103833587D01*
X167859500Y-104036530D01*
X166150499Y-104036530D01*
X166110130Y-103833580D01*
X166030941Y-103642402D01*
X165915977Y-103470345D01*
X165915975Y-103470342D01*
X165769657Y-103324024D01*
X165683626Y-103266541D01*
X165597598Y-103209059D01*
X165406420Y-103129870D01*
X165406412Y-103129868D01*
X165203469Y-103089500D01*
X165203465Y-103089500D01*
X164996535Y-103089500D01*
X164996530Y-103089500D01*
X164793587Y-103129868D01*
X164793579Y-103129870D01*
X164602403Y-103209058D01*
X164430342Y-103324024D01*
X164284024Y-103470342D01*
X164169058Y-103642403D01*
X164089870Y-103833579D01*
X164089868Y-103833587D01*
X164049500Y-104036530D01*
X162340499Y-104036530D01*
X162300130Y-103833580D01*
X162220941Y-103642402D01*
X162105977Y-103470345D01*
X162105975Y-103470342D01*
X161959657Y-103324024D01*
X161873626Y-103266541D01*
X161787598Y-103209059D01*
X161596420Y-103129870D01*
X161596412Y-103129868D01*
X161393469Y-103089500D01*
X161393465Y-103089500D01*
X161186535Y-103089500D01*
X161186530Y-103089500D01*
X160983587Y-103129868D01*
X160983579Y-103129870D01*
X160792403Y-103209058D01*
X160620342Y-103324024D01*
X160474024Y-103470342D01*
X160359058Y-103642403D01*
X160279870Y-103833579D01*
X160279868Y-103833587D01*
X160239500Y-104036530D01*
X153970500Y-104036530D01*
X153970500Y-100997307D01*
X153990185Y-100930268D01*
X154006819Y-100909626D01*
X154457037Y-100459408D01*
X154474075Y-100522993D01*
X154539901Y-100637007D01*
X154632993Y-100730099D01*
X154747007Y-100795925D01*
X154810590Y-100812962D01*
X154394931Y-101228620D01*
X154394932Y-101228621D01*
X154442633Y-101260495D01*
X154442639Y-101260498D01*
X154633725Y-101339649D01*
X154633733Y-101339651D01*
X154836579Y-101379999D01*
X154836583Y-101380000D01*
X155043417Y-101380000D01*
X155043420Y-101379999D01*
X155246266Y-101339651D01*
X155246274Y-101339649D01*
X155437366Y-101260495D01*
X155485066Y-101228621D01*
X155485067Y-101228620D01*
X155069409Y-100812962D01*
X155132993Y-100795925D01*
X155247007Y-100730099D01*
X155340099Y-100637007D01*
X155405925Y-100522993D01*
X155422962Y-100459409D01*
X155838620Y-100875067D01*
X155838621Y-100875066D01*
X155870495Y-100827366D01*
X155910703Y-100730297D01*
X160240000Y-100730297D01*
X160240000Y-101350000D01*
X160856988Y-101350000D01*
X160824075Y-101407007D01*
X160790000Y-101534174D01*
X160790000Y-101665826D01*
X160824075Y-101792993D01*
X160856988Y-101850000D01*
X160240000Y-101850000D01*
X160240000Y-102469702D01*
X160251602Y-102528033D01*
X160251603Y-102528034D01*
X160295808Y-102594191D01*
X160361965Y-102638396D01*
X160361966Y-102638397D01*
X160420297Y-102649999D01*
X160420301Y-102650000D01*
X161040000Y-102650000D01*
X161040000Y-102033012D01*
X161097007Y-102065925D01*
X161224174Y-102100000D01*
X161355826Y-102100000D01*
X161482993Y-102065925D01*
X161540000Y-102033012D01*
X161540000Y-102650000D01*
X162159699Y-102650000D01*
X162159702Y-102649999D01*
X162218033Y-102638397D01*
X162218034Y-102638396D01*
X162284191Y-102594191D01*
X162328396Y-102528034D01*
X162328397Y-102528033D01*
X162339999Y-102469702D01*
X162340000Y-102469699D01*
X162340000Y-101850000D01*
X161723012Y-101850000D01*
X161755925Y-101792993D01*
X161790000Y-101665826D01*
X161790000Y-101534174D01*
X161755925Y-101407007D01*
X161723012Y-101350000D01*
X162340000Y-101350000D01*
X162340000Y-100730301D01*
X162339999Y-100730297D01*
X164050000Y-100730297D01*
X164050000Y-101350000D01*
X164666988Y-101350000D01*
X164634075Y-101407007D01*
X164600000Y-101534174D01*
X164600000Y-101665826D01*
X164634075Y-101792993D01*
X164666988Y-101850000D01*
X164050000Y-101850000D01*
X164050000Y-102469702D01*
X164061602Y-102528033D01*
X164061603Y-102528034D01*
X164105808Y-102594191D01*
X164171965Y-102638396D01*
X164171966Y-102638397D01*
X164230297Y-102649999D01*
X164230301Y-102650000D01*
X164850000Y-102650000D01*
X164850000Y-102033012D01*
X164907007Y-102065925D01*
X165034174Y-102100000D01*
X165165826Y-102100000D01*
X165292993Y-102065925D01*
X165350000Y-102033012D01*
X165350000Y-102650000D01*
X165969699Y-102650000D01*
X165969702Y-102649999D01*
X166028033Y-102638397D01*
X166028034Y-102638396D01*
X166094191Y-102594191D01*
X166138396Y-102528034D01*
X166138397Y-102528033D01*
X166149999Y-102469702D01*
X166150000Y-102469699D01*
X166150000Y-101850000D01*
X165533012Y-101850000D01*
X165565925Y-101792993D01*
X165600000Y-101665826D01*
X165600000Y-101534174D01*
X165565925Y-101407007D01*
X165533012Y-101350000D01*
X166150000Y-101350000D01*
X166150000Y-100730301D01*
X166149999Y-100730297D01*
X167860000Y-100730297D01*
X167860000Y-101350000D01*
X168476988Y-101350000D01*
X168444075Y-101407007D01*
X168410000Y-101534174D01*
X168410000Y-101665826D01*
X168444075Y-101792993D01*
X168476988Y-101850000D01*
X167860000Y-101850000D01*
X167860000Y-102469702D01*
X167871602Y-102528033D01*
X167871603Y-102528034D01*
X167915808Y-102594191D01*
X167981965Y-102638396D01*
X167981966Y-102638397D01*
X168040297Y-102649999D01*
X168040301Y-102650000D01*
X168660000Y-102650000D01*
X168660000Y-102033012D01*
X168717007Y-102065925D01*
X168844174Y-102100000D01*
X168975826Y-102100000D01*
X169102993Y-102065925D01*
X169160000Y-102033012D01*
X169160000Y-102650000D01*
X169779699Y-102650000D01*
X169779702Y-102649999D01*
X169838033Y-102638397D01*
X169838034Y-102638396D01*
X169904191Y-102594191D01*
X169948396Y-102528034D01*
X169948397Y-102528033D01*
X169959999Y-102469702D01*
X169960000Y-102469699D01*
X169960000Y-101850000D01*
X169343012Y-101850000D01*
X169375925Y-101792993D01*
X169410000Y-101665826D01*
X169410000Y-101534174D01*
X169375925Y-101407007D01*
X169343012Y-101350000D01*
X169960000Y-101350000D01*
X169960000Y-100730301D01*
X169959999Y-100730297D01*
X169948397Y-100671966D01*
X169948396Y-100671965D01*
X169904191Y-100605808D01*
X169838034Y-100561603D01*
X169838033Y-100561602D01*
X169779702Y-100550000D01*
X169160000Y-100550000D01*
X169160000Y-101166988D01*
X169102993Y-101134075D01*
X168975826Y-101100000D01*
X168844174Y-101100000D01*
X168717007Y-101134075D01*
X168660000Y-101166988D01*
X168660000Y-100550000D01*
X168040297Y-100550000D01*
X167981966Y-100561602D01*
X167981965Y-100561603D01*
X167915808Y-100605808D01*
X167871603Y-100671965D01*
X167871602Y-100671966D01*
X167860000Y-100730297D01*
X166149999Y-100730297D01*
X166138397Y-100671966D01*
X166138396Y-100671965D01*
X166094191Y-100605808D01*
X166028034Y-100561603D01*
X166028033Y-100561602D01*
X165969702Y-100550000D01*
X165350000Y-100550000D01*
X165350000Y-101166988D01*
X165292993Y-101134075D01*
X165165826Y-101100000D01*
X165034174Y-101100000D01*
X164907007Y-101134075D01*
X164850000Y-101166988D01*
X164850000Y-100550000D01*
X164230297Y-100550000D01*
X164171966Y-100561602D01*
X164171965Y-100561603D01*
X164105808Y-100605808D01*
X164061603Y-100671965D01*
X164061602Y-100671966D01*
X164050000Y-100730297D01*
X162339999Y-100730297D01*
X162328397Y-100671966D01*
X162328396Y-100671965D01*
X162284191Y-100605808D01*
X162218034Y-100561603D01*
X162218033Y-100561602D01*
X162159702Y-100550000D01*
X161540000Y-100550000D01*
X161540000Y-101166988D01*
X161482993Y-101134075D01*
X161355826Y-101100000D01*
X161224174Y-101100000D01*
X161097007Y-101134075D01*
X161040000Y-101166988D01*
X161040000Y-100550000D01*
X160420297Y-100550000D01*
X160361966Y-100561602D01*
X160361965Y-100561603D01*
X160295808Y-100605808D01*
X160251603Y-100671965D01*
X160251602Y-100671966D01*
X160240000Y-100730297D01*
X155910703Y-100730297D01*
X155932881Y-100676757D01*
X155949649Y-100636274D01*
X155949651Y-100636266D01*
X155989999Y-100433420D01*
X155990000Y-100433417D01*
X155990000Y-100226583D01*
X155989999Y-100226579D01*
X155949651Y-100023733D01*
X155949649Y-100023725D01*
X155870498Y-99832639D01*
X155870495Y-99832633D01*
X155838621Y-99784932D01*
X155838620Y-99784931D01*
X155422962Y-100200590D01*
X155405925Y-100137007D01*
X155340099Y-100022993D01*
X155247007Y-99929901D01*
X155132993Y-99864075D01*
X155069409Y-99847037D01*
X155485067Y-99431378D01*
X155485067Y-99431377D01*
X155437359Y-99399500D01*
X155246274Y-99320350D01*
X155246266Y-99320348D01*
X155043420Y-99280000D01*
X154836579Y-99280000D01*
X154633733Y-99320348D01*
X154633725Y-99320350D01*
X154442641Y-99399500D01*
X154442631Y-99399505D01*
X154394932Y-99431377D01*
X154394932Y-99431378D01*
X154810591Y-99847037D01*
X154747007Y-99864075D01*
X154632993Y-99929901D01*
X154539901Y-100022993D01*
X154474075Y-100137007D01*
X154457037Y-100200591D01*
X154006819Y-99750373D01*
X153992115Y-99723445D01*
X153975523Y-99697627D01*
X153974631Y-99691426D01*
X153973334Y-99689050D01*
X153970500Y-99662692D01*
X153970500Y-98605495D01*
X153990185Y-98538456D01*
X154042989Y-98492701D01*
X154112147Y-98482757D01*
X154175703Y-98511782D01*
X154182181Y-98517814D01*
X154270342Y-98605975D01*
X154270345Y-98605977D01*
X154442402Y-98720941D01*
X154633580Y-98800130D01*
X154826666Y-98838537D01*
X154836530Y-98840499D01*
X154836534Y-98840500D01*
X154836535Y-98840500D01*
X155043466Y-98840500D01*
X155043467Y-98840499D01*
X155246420Y-98800130D01*
X155437598Y-98720941D01*
X155609655Y-98605977D01*
X155755977Y-98459655D01*
X155870941Y-98287598D01*
X155950130Y-98096420D01*
X155990500Y-97893465D01*
X155990500Y-97686535D01*
X155950130Y-97483580D01*
X155870941Y-97292402D01*
X155755977Y-97120345D01*
X155755975Y-97120342D01*
X155609657Y-96974024D01*
X155488378Y-96892989D01*
X155437598Y-96859059D01*
X155392032Y-96840185D01*
X155246420Y-96779870D01*
X155246412Y-96779868D01*
X155043469Y-96739500D01*
X155043465Y-96739500D01*
X154836535Y-96739500D01*
X154836530Y-96739500D01*
X154633587Y-96779868D01*
X154633579Y-96779870D01*
X154442403Y-96859058D01*
X154270342Y-96974024D01*
X154270341Y-96974025D01*
X154182181Y-97062186D01*
X154120858Y-97095671D01*
X154051166Y-97090687D01*
X153995233Y-97048815D01*
X153970816Y-96983351D01*
X153970500Y-96974505D01*
X153970500Y-96065495D01*
X153990185Y-95998456D01*
X154042989Y-95952701D01*
X154112147Y-95942757D01*
X154175703Y-95971782D01*
X154182181Y-95977814D01*
X154270342Y-96065975D01*
X154270345Y-96065977D01*
X154442402Y-96180941D01*
X154633580Y-96260130D01*
X154836530Y-96300499D01*
X154836534Y-96300500D01*
X154836535Y-96300500D01*
X155043466Y-96300500D01*
X155043467Y-96300499D01*
X155246420Y-96260130D01*
X155437598Y-96180941D01*
X155609655Y-96065977D01*
X155755977Y-95919655D01*
X155870941Y-95747598D01*
X155920875Y-95627046D01*
X155964716Y-95572644D01*
X156031010Y-95550579D01*
X156035436Y-95550500D01*
X161281167Y-95550500D01*
X161348206Y-95570185D01*
G37*
%TD.AperFunction*%
%TA.AperFunction,Conductor*%
G36*
X163459882Y-95642127D02*
G01*
X163464961Y-95641211D01*
X163499158Y-95649940D01*
X163499885Y-95650241D01*
X163549879Y-95660185D01*
X163576599Y-95665500D01*
X164190500Y-95665499D01*
X164257539Y-95685183D01*
X164303294Y-95737987D01*
X164314500Y-95789499D01*
X164314500Y-96403397D01*
X164329759Y-96480113D01*
X164329760Y-96480117D01*
X164329761Y-96480119D01*
X164330059Y-96480836D01*
X164339500Y-96528295D01*
X164339500Y-97820166D01*
X164330855Y-97849606D01*
X164324332Y-97879593D01*
X164320577Y-97884608D01*
X164319815Y-97887205D01*
X164303181Y-97907847D01*
X164195847Y-98015181D01*
X164134524Y-98048666D01*
X164108166Y-98051500D01*
X164018108Y-98051500D01*
X163890812Y-98085608D01*
X163776686Y-98151500D01*
X163776683Y-98151502D01*
X163683502Y-98244683D01*
X163683500Y-98244686D01*
X163617608Y-98358812D01*
X163583500Y-98486108D01*
X163583500Y-98617891D01*
X163617608Y-98745187D01*
X163624236Y-98756666D01*
X163683500Y-98859314D01*
X163776686Y-98952500D01*
X163890814Y-99018392D01*
X164018108Y-99052500D01*
X164018110Y-99052500D01*
X164149890Y-99052500D01*
X164149892Y-99052500D01*
X164277186Y-99018392D01*
X164391314Y-98952500D01*
X164484500Y-98859314D01*
X164550392Y-98745186D01*
X164584500Y-98617892D01*
X164584500Y-98527832D01*
X164604185Y-98460793D01*
X164620819Y-98440151D01*
X164709657Y-98351313D01*
X164880460Y-98180511D01*
X164880462Y-98180506D01*
X164885318Y-98175651D01*
X164946641Y-98142166D01*
X165016332Y-98147150D01*
X165060680Y-98175651D01*
X166191236Y-99306207D01*
X166189898Y-99307544D01*
X166224952Y-99355555D01*
X166229105Y-99425301D01*
X166194891Y-99486221D01*
X166133173Y-99518972D01*
X166108262Y-99521500D01*
X162227833Y-99521500D01*
X162160794Y-99501815D01*
X162140152Y-99485181D01*
X161880819Y-99225848D01*
X161847334Y-99164525D01*
X161844500Y-99138167D01*
X161844500Y-96187833D01*
X161864185Y-96120794D01*
X161880819Y-96100152D01*
X162304152Y-95676819D01*
X162365475Y-95643334D01*
X162391833Y-95640500D01*
X163451703Y-95640500D01*
X163459882Y-95642127D01*
G37*
%TD.AperFunction*%
%TA.AperFunction,Conductor*%
G36*
X171431206Y-95660185D02*
G01*
X171451848Y-95676819D01*
X172479540Y-96704511D01*
X172535489Y-96760460D01*
X172535491Y-96760461D01*
X172535495Y-96760464D01*
X172569108Y-96779870D01*
X172604011Y-96800021D01*
X172680438Y-96820500D01*
X174164564Y-96820500D01*
X174231603Y-96840185D01*
X174277358Y-96892989D01*
X174279125Y-96897047D01*
X174311009Y-96974023D01*
X174329059Y-97017598D01*
X174358852Y-97062186D01*
X174444024Y-97189657D01*
X174532186Y-97277819D01*
X174565671Y-97339142D01*
X174560687Y-97408834D01*
X174518815Y-97464767D01*
X174453351Y-97489184D01*
X174444505Y-97489500D01*
X171410438Y-97489500D01*
X171359486Y-97503152D01*
X171334010Y-97509979D01*
X171310046Y-97523815D01*
X171275951Y-97543500D01*
X171269136Y-97547434D01*
X171265485Y-97549542D01*
X171265484Y-97549543D01*
X169329848Y-99485181D01*
X169268525Y-99518666D01*
X169242167Y-99521500D01*
X168166255Y-99521500D01*
X168099216Y-99501815D01*
X168053461Y-99449011D01*
X168043517Y-99379853D01*
X168058868Y-99335499D01*
X168067615Y-99320350D01*
X168106392Y-99253186D01*
X168140500Y-99125892D01*
X168140500Y-98994108D01*
X168106392Y-98866814D01*
X168040500Y-98752686D01*
X167947314Y-98659500D01*
X167875247Y-98617892D01*
X167833187Y-98593608D01*
X167717614Y-98562641D01*
X167705892Y-98559500D01*
X167574108Y-98559500D01*
X167446812Y-98593608D01*
X167332686Y-98659500D01*
X167332683Y-98659502D01*
X167269005Y-98723181D01*
X167207682Y-98756666D01*
X167181324Y-98759500D01*
X166829374Y-98759500D01*
X166762335Y-98739815D01*
X166716580Y-98687011D01*
X166706636Y-98617853D01*
X166735661Y-98554297D01*
X166794439Y-98516523D01*
X166797243Y-98515735D01*
X166817186Y-98510392D01*
X166931314Y-98444500D01*
X167024500Y-98351314D01*
X167090392Y-98237186D01*
X167124500Y-98109892D01*
X167124500Y-97978108D01*
X167090392Y-97850814D01*
X167024500Y-97736686D01*
X166931314Y-97643500D01*
X166874250Y-97610554D01*
X166817187Y-97577608D01*
X166753539Y-97560554D01*
X166689892Y-97543500D01*
X166599833Y-97543500D01*
X166570392Y-97534855D01*
X166540406Y-97528332D01*
X166535390Y-97524577D01*
X166532794Y-97523815D01*
X166512152Y-97507181D01*
X166476819Y-97471848D01*
X166443334Y-97410525D01*
X166440500Y-97384167D01*
X166440500Y-96528296D01*
X166449939Y-96480842D01*
X166450236Y-96480121D01*
X166450240Y-96480117D01*
X166465500Y-96403401D01*
X166465499Y-95789498D01*
X166485183Y-95722460D01*
X166537987Y-95676705D01*
X166589494Y-95665499D01*
X167203400Y-95665499D01*
X167280117Y-95650240D01*
X167280120Y-95650238D01*
X167280849Y-95649937D01*
X167328297Y-95640500D01*
X171364167Y-95640500D01*
X171431206Y-95660185D01*
G37*
%TD.AperFunction*%
%TA.AperFunction,Conductor*%
G36*
X176449334Y-97890151D02*
G01*
X176505267Y-97932023D01*
X176529684Y-97997487D01*
X176530000Y-98006333D01*
X176530000Y-98803602D01*
X176510315Y-98870641D01*
X176457511Y-98916396D01*
X176388353Y-98926340D01*
X176324797Y-98897315D01*
X176287023Y-98838537D01*
X176284383Y-98827793D01*
X176269651Y-98753733D01*
X176269649Y-98753725D01*
X176190498Y-98562639D01*
X176190495Y-98562633D01*
X176158621Y-98514932D01*
X176158620Y-98514931D01*
X175742962Y-98930590D01*
X175725925Y-98867007D01*
X175660099Y-98752993D01*
X175567007Y-98659901D01*
X175452993Y-98594075D01*
X175389409Y-98577037D01*
X175839626Y-98126819D01*
X175900949Y-98093334D01*
X175927307Y-98090500D01*
X176061560Y-98090500D01*
X176061562Y-98090500D01*
X176137989Y-98070021D01*
X176206511Y-98030460D01*
X176262460Y-97974511D01*
X176318319Y-97918652D01*
X176379642Y-97885167D01*
X176449334Y-97890151D01*
G37*
%TD.AperFunction*%
%TA.AperFunction,Conductor*%
G36*
X176473039Y-80029685D02*
G01*
X176518794Y-80082489D01*
X176530000Y-80134000D01*
X176530000Y-90448910D01*
X176510315Y-90515949D01*
X176457511Y-90561704D01*
X176388353Y-90571648D01*
X176324797Y-90542623D01*
X176302898Y-90517802D01*
X176254551Y-90445446D01*
X176188230Y-90401132D01*
X176188229Y-90401131D01*
X176129752Y-90389500D01*
X176129748Y-90389500D01*
X174390252Y-90389500D01*
X174390247Y-90389500D01*
X174331770Y-90401131D01*
X174331769Y-90401132D01*
X174265447Y-90445447D01*
X174221132Y-90511769D01*
X174221131Y-90511770D01*
X174209500Y-90570247D01*
X174209500Y-92309752D01*
X174221131Y-92368229D01*
X174221132Y-92368230D01*
X174265447Y-92434552D01*
X174331769Y-92478867D01*
X174331770Y-92478868D01*
X174390247Y-92490499D01*
X174390250Y-92490500D01*
X174390252Y-92490500D01*
X176129750Y-92490500D01*
X176129751Y-92490499D01*
X176144568Y-92487552D01*
X176188229Y-92478868D01*
X176188229Y-92478867D01*
X176188231Y-92478867D01*
X176254552Y-92434552D01*
X176298867Y-92368231D01*
X176298867Y-92368230D01*
X176302898Y-92362198D01*
X176356510Y-92317393D01*
X176425835Y-92308686D01*
X176488863Y-92338841D01*
X176525582Y-92398284D01*
X176530000Y-92431089D01*
X176530000Y-93721043D01*
X176510315Y-93788082D01*
X176457511Y-93833837D01*
X176388353Y-93843781D01*
X176324797Y-93814756D01*
X176287023Y-93755978D01*
X176284383Y-93745234D01*
X176273248Y-93689255D01*
X176270130Y-93673580D01*
X176190941Y-93482402D01*
X176075977Y-93310345D01*
X176075975Y-93310342D01*
X175929657Y-93164024D01*
X175814451Y-93087047D01*
X175757598Y-93049059D01*
X175752190Y-93046819D01*
X175566420Y-92969870D01*
X175566412Y-92969868D01*
X175363469Y-92929500D01*
X175363465Y-92929500D01*
X175156535Y-92929500D01*
X175156530Y-92929500D01*
X174953587Y-92969868D01*
X174953579Y-92969870D01*
X174762403Y-93049058D01*
X174590342Y-93164024D01*
X174444024Y-93310342D01*
X174329058Y-93482403D01*
X174249870Y-93673579D01*
X174249868Y-93673587D01*
X174209500Y-93876530D01*
X174209500Y-94083469D01*
X174249868Y-94286412D01*
X174249870Y-94286420D01*
X174311009Y-94434023D01*
X174329059Y-94477598D01*
X174353716Y-94514500D01*
X174444024Y-94649657D01*
X174590342Y-94795975D01*
X174590345Y-94795977D01*
X174762402Y-94910941D01*
X174953580Y-94990130D01*
X175102818Y-95019815D01*
X175156530Y-95030499D01*
X175156534Y-95030500D01*
X175156535Y-95030500D01*
X175363466Y-95030500D01*
X175363467Y-95030499D01*
X175566420Y-94990130D01*
X175757598Y-94910941D01*
X175929655Y-94795977D01*
X175973230Y-94752402D01*
X176017819Y-94707814D01*
X176079142Y-94674329D01*
X176148834Y-94679313D01*
X176204767Y-94721185D01*
X176229184Y-94786649D01*
X176229500Y-94795495D01*
X176229500Y-95704505D01*
X176209815Y-95771544D01*
X176157011Y-95817299D01*
X176087853Y-95827243D01*
X176024297Y-95798218D01*
X176017819Y-95792186D01*
X175929657Y-95704024D01*
X175837020Y-95642127D01*
X175757598Y-95589059D01*
X175712032Y-95570185D01*
X175566420Y-95509870D01*
X175566412Y-95509868D01*
X175363469Y-95469500D01*
X175363465Y-95469500D01*
X175156535Y-95469500D01*
X175156530Y-95469500D01*
X174953587Y-95509868D01*
X174953579Y-95509870D01*
X174762403Y-95589058D01*
X174590342Y-95704024D01*
X174444024Y-95850342D01*
X174329058Y-96022403D01*
X174279125Y-96142953D01*
X174235284Y-96197356D01*
X174168990Y-96219421D01*
X174164564Y-96219500D01*
X172895833Y-96219500D01*
X172828794Y-96199815D01*
X172808152Y-96183181D01*
X171724512Y-95099541D01*
X171724507Y-95099537D01*
X171691462Y-95080459D01*
X171691462Y-95080458D01*
X171691460Y-95080458D01*
X171679083Y-95073312D01*
X171655990Y-95059979D01*
X171655991Y-95059979D01*
X171617775Y-95049739D01*
X171579562Y-95039500D01*
X171579560Y-95039500D01*
X170042905Y-95039500D01*
X169975866Y-95019815D01*
X169930111Y-94967011D01*
X169920167Y-94897853D01*
X169923130Y-94883407D01*
X169925931Y-94872953D01*
X169943900Y-94805892D01*
X169943900Y-94674108D01*
X169909792Y-94546814D01*
X169843900Y-94432686D01*
X169750714Y-94339500D01*
X169688341Y-94303489D01*
X169636587Y-94273608D01*
X169554450Y-94251600D01*
X169509292Y-94239500D01*
X169377508Y-94239500D01*
X169250212Y-94273608D01*
X169136086Y-94339500D01*
X169136083Y-94339502D01*
X169042901Y-94432684D01*
X169017027Y-94477500D01*
X168966460Y-94525716D01*
X168909640Y-94539500D01*
X167552499Y-94539500D01*
X167485460Y-94519815D01*
X167456646Y-94494165D01*
X167432711Y-94465000D01*
X166272288Y-94465000D01*
X166280228Y-94504920D01*
X166280231Y-94504927D01*
X166290744Y-94520660D01*
X166311622Y-94587337D01*
X166293137Y-94654717D01*
X166290747Y-94658437D01*
X166279759Y-94674882D01*
X166264500Y-94751595D01*
X166264500Y-94928398D01*
X166279760Y-95005119D01*
X166290446Y-95021111D01*
X166311323Y-95087788D01*
X166292837Y-95155168D01*
X166290446Y-95158889D01*
X166279759Y-95174882D01*
X166264500Y-95251596D01*
X166264500Y-95340500D01*
X166244815Y-95407539D01*
X166192011Y-95453294D01*
X166140501Y-95464500D01*
X166051601Y-95464500D01*
X165974880Y-95479760D01*
X165958889Y-95490446D01*
X165892212Y-95511323D01*
X165824832Y-95492837D01*
X165821111Y-95490446D01*
X165805117Y-95479759D01*
X165728403Y-95464500D01*
X165551601Y-95464500D01*
X165474880Y-95479760D01*
X165458889Y-95490446D01*
X165392212Y-95511323D01*
X165324832Y-95492837D01*
X165321111Y-95490446D01*
X165305117Y-95479759D01*
X165228403Y-95464500D01*
X165051601Y-95464500D01*
X164974880Y-95479760D01*
X164958889Y-95490446D01*
X164892212Y-95511323D01*
X164824832Y-95492837D01*
X164821111Y-95490446D01*
X164805117Y-95479759D01*
X164728403Y-95464500D01*
X164639499Y-95464500D01*
X164572460Y-95444815D01*
X164526705Y-95392011D01*
X164515499Y-95340502D01*
X164515499Y-95251600D01*
X164500240Y-95174883D01*
X164500239Y-95174881D01*
X164500238Y-95174878D01*
X164489555Y-95158891D01*
X164468676Y-95092214D01*
X164487160Y-95024833D01*
X164489517Y-95021164D01*
X164500240Y-95005117D01*
X164515500Y-94928401D01*
X164515499Y-94751600D01*
X164500240Y-94674883D01*
X164500239Y-94674881D01*
X164500238Y-94674878D01*
X164489555Y-94658891D01*
X164468676Y-94592214D01*
X164487160Y-94524833D01*
X164489517Y-94521164D01*
X164500240Y-94505117D01*
X164515500Y-94428401D01*
X164515499Y-94251600D01*
X164508219Y-94214999D01*
X166272288Y-94214999D01*
X166272289Y-94215000D01*
X166727500Y-94215000D01*
X166977500Y-94215000D01*
X167432711Y-94215000D01*
X167432711Y-94214999D01*
X167424771Y-94175079D01*
X167424770Y-94175077D01*
X167413956Y-94158894D01*
X167393076Y-94092217D01*
X167411559Y-94024836D01*
X167413956Y-94021106D01*
X167424770Y-94004922D01*
X167424771Y-94004920D01*
X167432711Y-93965000D01*
X166977500Y-93965000D01*
X166977500Y-94215000D01*
X166727500Y-94215000D01*
X166727500Y-93965000D01*
X166285898Y-93965000D01*
X166274400Y-93975619D01*
X166280228Y-94004920D01*
X166280230Y-94004923D01*
X166291046Y-94021111D01*
X166311923Y-94087788D01*
X166293438Y-94155168D01*
X166291046Y-94158889D01*
X166280230Y-94175076D01*
X166280228Y-94175079D01*
X166272288Y-94214999D01*
X164508219Y-94214999D01*
X164500240Y-94174883D01*
X164500239Y-94174881D01*
X164500238Y-94174878D01*
X164489555Y-94158891D01*
X164468676Y-94092214D01*
X164473751Y-94054819D01*
X164479091Y-94036767D01*
X164500240Y-94005117D01*
X164515500Y-93928401D01*
X164515499Y-93839498D01*
X164535183Y-93772461D01*
X164587986Y-93726705D01*
X164639496Y-93715499D01*
X164728400Y-93715499D01*
X164805117Y-93700240D01*
X164821107Y-93689555D01*
X164887783Y-93668676D01*
X164955164Y-93687159D01*
X164958871Y-93689541D01*
X164974178Y-93699769D01*
X164974883Y-93700240D01*
X164974887Y-93700241D01*
X165012442Y-93707711D01*
X165051599Y-93715500D01*
X165228400Y-93715499D01*
X165305117Y-93700240D01*
X165321559Y-93689253D01*
X165388232Y-93668376D01*
X165455613Y-93686859D01*
X165459340Y-93689255D01*
X165475075Y-93699769D01*
X165475079Y-93699771D01*
X165514999Y-93707711D01*
X165515000Y-93707711D01*
X165515000Y-92547287D01*
X165485835Y-92523352D01*
X165470056Y-92500187D01*
X165451706Y-92479010D01*
X165449864Y-92470543D01*
X165446501Y-92465606D01*
X165446179Y-92453606D01*
X165440500Y-92427499D01*
X165440500Y-91440439D01*
X165420020Y-91364009D01*
X165420017Y-91364004D01*
X165380464Y-91295495D01*
X165380458Y-91295487D01*
X164956819Y-90871848D01*
X164942115Y-90844920D01*
X164925523Y-90819102D01*
X164924631Y-90812901D01*
X164923334Y-90810525D01*
X164920500Y-90784167D01*
X164920500Y-90712402D01*
X164940185Y-90645363D01*
X164956819Y-90624721D01*
X165012673Y-90568867D01*
X165073996Y-90535382D01*
X165143688Y-90540366D01*
X165188035Y-90568867D01*
X165241976Y-90622808D01*
X165329999Y-90663853D01*
X165330000Y-90663853D01*
X165830000Y-90663853D01*
X165918023Y-90622808D01*
X166002807Y-90538024D01*
X166053478Y-90429361D01*
X166053480Y-90429355D01*
X166054712Y-90420000D01*
X165830000Y-90420000D01*
X165830000Y-90663853D01*
X165330000Y-90663853D01*
X165330000Y-89920000D01*
X165830000Y-89920000D01*
X166054712Y-89920000D01*
X166053480Y-89910644D01*
X166053478Y-89910638D01*
X166002807Y-89801975D01*
X165918025Y-89717193D01*
X165830000Y-89676145D01*
X165830000Y-89920000D01*
X165330000Y-89920000D01*
X165330000Y-89676144D01*
X165246905Y-89714893D01*
X165246397Y-89714970D01*
X165246011Y-89715305D01*
X165211918Y-89720207D01*
X165177828Y-89725385D01*
X165177360Y-89725176D01*
X165176853Y-89725249D01*
X165145496Y-89710928D01*
X165114044Y-89696866D01*
X165113763Y-89696437D01*
X165113297Y-89696224D01*
X165094651Y-89667211D01*
X165075804Y-89638389D01*
X165075706Y-89637732D01*
X165075523Y-89637446D01*
X165070500Y-89602511D01*
X165070500Y-89467488D01*
X165090185Y-89400449D01*
X165142989Y-89354694D01*
X165212147Y-89344750D01*
X165246904Y-89355106D01*
X165329999Y-89393853D01*
X165330000Y-89393853D01*
X165830000Y-89393853D01*
X165918023Y-89352808D01*
X166002807Y-89268024D01*
X166053478Y-89159361D01*
X166053480Y-89159355D01*
X166054712Y-89150000D01*
X165830000Y-89150000D01*
X165830000Y-89393853D01*
X165330000Y-89393853D01*
X165330000Y-88650000D01*
X165830000Y-88650000D01*
X166054712Y-88650000D01*
X166053480Y-88640644D01*
X166053478Y-88640638D01*
X166002807Y-88531975D01*
X165918025Y-88447193D01*
X165830000Y-88406145D01*
X165830000Y-88650000D01*
X165330000Y-88650000D01*
X165330000Y-88406144D01*
X165246905Y-88444893D01*
X165246397Y-88444970D01*
X165246011Y-88445305D01*
X165211918Y-88450207D01*
X165177828Y-88455385D01*
X165177360Y-88455176D01*
X165176853Y-88455249D01*
X165145496Y-88440928D01*
X165114044Y-88426866D01*
X165113763Y-88426437D01*
X165113297Y-88426224D01*
X165094651Y-88397211D01*
X165075804Y-88368389D01*
X165075706Y-88367732D01*
X165075523Y-88367446D01*
X165070500Y-88332511D01*
X165070500Y-88197488D01*
X165090185Y-88130449D01*
X165142989Y-88084694D01*
X165212147Y-88074750D01*
X165246904Y-88085106D01*
X165329999Y-88123853D01*
X165330000Y-88123853D01*
X165830000Y-88123853D01*
X165918023Y-88082808D01*
X166002807Y-87998024D01*
X166053478Y-87889361D01*
X166053480Y-87889355D01*
X166054712Y-87880000D01*
X165830000Y-87880000D01*
X165830000Y-88123853D01*
X165330000Y-88123853D01*
X165330000Y-87380000D01*
X165830000Y-87380000D01*
X166054712Y-87380000D01*
X166053480Y-87370644D01*
X166053478Y-87370638D01*
X166002807Y-87261975D01*
X165918025Y-87177193D01*
X165830000Y-87136145D01*
X165830000Y-87380000D01*
X165330000Y-87380000D01*
X165330000Y-87136145D01*
X165241974Y-87177193D01*
X165188035Y-87231133D01*
X165126712Y-87264618D01*
X165057020Y-87259634D01*
X165012673Y-87231133D01*
X164958316Y-87176776D01*
X164849487Y-87126028D01*
X164849485Y-87126027D01*
X164849486Y-87126027D01*
X164799902Y-87119500D01*
X164799901Y-87119500D01*
X164747966Y-87119500D01*
X164680927Y-87099815D01*
X164660285Y-87083181D01*
X162254198Y-84677095D01*
X162220713Y-84615772D01*
X162224838Y-84548459D01*
X162257646Y-84454701D01*
X162257646Y-84454699D01*
X162260500Y-84424269D01*
X162260500Y-84424196D01*
X162860001Y-84424196D01*
X162862851Y-84454606D01*
X162907653Y-84582645D01*
X162988207Y-84691792D01*
X163097354Y-84772346D01*
X163225397Y-84817149D01*
X163255792Y-84819999D01*
X164109999Y-84819999D01*
X164610000Y-84819999D01*
X165464196Y-84819999D01*
X165494606Y-84817148D01*
X165622645Y-84772346D01*
X165731792Y-84691792D01*
X165812346Y-84582645D01*
X165857149Y-84454604D01*
X165857149Y-84454600D01*
X165860000Y-84424206D01*
X165860000Y-84070000D01*
X164610000Y-84070000D01*
X164610000Y-84819999D01*
X164109999Y-84819999D01*
X164110000Y-84819998D01*
X164110000Y-84070000D01*
X162860001Y-84070000D01*
X162860001Y-84424196D01*
X162260500Y-84424196D01*
X162260500Y-83215793D01*
X162860000Y-83215793D01*
X162860000Y-83570000D01*
X164110000Y-83570000D01*
X164610000Y-83570000D01*
X165859999Y-83570000D01*
X165859999Y-83215803D01*
X165857148Y-83185393D01*
X165812346Y-83057354D01*
X165731792Y-82948207D01*
X165622645Y-82867653D01*
X165494602Y-82822850D01*
X165464207Y-82820000D01*
X164610000Y-82820000D01*
X164610000Y-83570000D01*
X164110000Y-83570000D01*
X164110000Y-82820000D01*
X163255803Y-82820000D01*
X163225393Y-82822851D01*
X163097354Y-82867653D01*
X162988207Y-82948207D01*
X162907653Y-83057354D01*
X162862850Y-83185395D01*
X162862850Y-83185399D01*
X162860000Y-83215793D01*
X162260500Y-83215793D01*
X162260500Y-83215730D01*
X162257646Y-83185300D01*
X162257646Y-83185298D01*
X162224006Y-83089163D01*
X162212793Y-83057118D01*
X162132150Y-82947850D01*
X162022882Y-82867207D01*
X162022880Y-82867206D01*
X161894700Y-82822353D01*
X161864270Y-82819500D01*
X161864266Y-82819500D01*
X159655734Y-82819500D01*
X159655730Y-82819500D01*
X159625300Y-82822353D01*
X159625298Y-82822353D01*
X159497119Y-82867206D01*
X159497117Y-82867207D01*
X159387850Y-82947850D01*
X159307207Y-83057117D01*
X159307206Y-83057119D01*
X159262353Y-83185298D01*
X159262353Y-83185300D01*
X159259500Y-83215730D01*
X159259500Y-83395500D01*
X159239815Y-83462539D01*
X159187011Y-83508294D01*
X159135500Y-83519500D01*
X158948438Y-83519500D01*
X158910224Y-83529739D01*
X158872009Y-83539979D01*
X158872004Y-83539982D01*
X158803495Y-83579535D01*
X158803487Y-83579541D01*
X158255541Y-84127487D01*
X158255535Y-84127495D01*
X158215982Y-84196004D01*
X158215979Y-84196009D01*
X158209747Y-84219268D01*
X158197765Y-84263987D01*
X158195500Y-84272439D01*
X158195500Y-86184167D01*
X158175815Y-86251206D01*
X158159181Y-86271848D01*
X157391848Y-87039181D01*
X157330525Y-87072666D01*
X157304167Y-87075500D01*
X154392438Y-87075500D01*
X154316010Y-87095978D01*
X154247489Y-87135540D01*
X154247486Y-87135542D01*
X153881681Y-87501348D01*
X153820358Y-87534833D01*
X153750666Y-87529849D01*
X153694733Y-87487977D01*
X153670316Y-87422513D01*
X153670000Y-87413667D01*
X153670000Y-84811089D01*
X153689685Y-84744050D01*
X153742489Y-84698295D01*
X153811647Y-84688351D01*
X153875203Y-84717376D01*
X153897102Y-84742198D01*
X153945447Y-84814552D01*
X154011769Y-84858867D01*
X154011770Y-84858868D01*
X154070247Y-84870499D01*
X154070250Y-84870500D01*
X154070252Y-84870500D01*
X155809750Y-84870500D01*
X155809751Y-84870499D01*
X155824568Y-84867552D01*
X155868229Y-84858868D01*
X155868229Y-84858867D01*
X155868231Y-84858867D01*
X155934552Y-84814552D01*
X155978867Y-84748231D01*
X155978867Y-84748229D01*
X155978868Y-84748229D01*
X155990499Y-84689752D01*
X155990500Y-84689750D01*
X155990500Y-84244500D01*
X156010185Y-84177461D01*
X156062989Y-84131706D01*
X156114500Y-84120500D01*
X156249560Y-84120500D01*
X156249562Y-84120500D01*
X156325989Y-84100021D01*
X156394511Y-84060460D01*
X156450460Y-84004511D01*
X158838152Y-81616819D01*
X158899475Y-81583334D01*
X158925833Y-81580500D01*
X167464167Y-81580500D01*
X167531206Y-81600185D01*
X167551848Y-81616819D01*
X168573181Y-82638152D01*
X168606666Y-82699475D01*
X168609500Y-82725833D01*
X168609500Y-89711323D01*
X168589815Y-89778362D01*
X168573182Y-89799004D01*
X168509500Y-89862686D01*
X168443608Y-89976812D01*
X168409500Y-90104108D01*
X168409500Y-90194166D01*
X168389815Y-90261205D01*
X168373181Y-90281847D01*
X167551848Y-91103181D01*
X167490525Y-91136666D01*
X167464167Y-91139500D01*
X166965438Y-91139500D01*
X166889010Y-91159978D01*
X166820489Y-91199540D01*
X166820486Y-91199542D01*
X165899541Y-92120487D01*
X165899535Y-92120495D01*
X165859982Y-92189004D01*
X165859979Y-92189009D01*
X165839500Y-92265439D01*
X165839500Y-92427499D01*
X165836949Y-92436184D01*
X165838238Y-92445146D01*
X165827259Y-92469186D01*
X165819815Y-92494538D01*
X165811326Y-92504073D01*
X165809213Y-92508702D01*
X165804523Y-92511715D01*
X165794165Y-92523352D01*
X165765000Y-92547287D01*
X165765000Y-93707711D01*
X165804921Y-93699771D01*
X165820657Y-93689256D01*
X165887334Y-93668376D01*
X165954715Y-93686859D01*
X165958421Y-93689241D01*
X165974178Y-93699769D01*
X165974883Y-93700240D01*
X165974887Y-93700241D01*
X166012442Y-93707711D01*
X166051599Y-93715500D01*
X166228400Y-93715499D01*
X166229400Y-93715499D01*
X166239559Y-93715000D01*
X166727500Y-93715000D01*
X166977500Y-93715000D01*
X167432711Y-93715000D01*
X167432711Y-93714999D01*
X167424771Y-93675079D01*
X167424770Y-93675078D01*
X167366752Y-93588247D01*
X167279922Y-93530230D01*
X167279918Y-93530228D01*
X167203360Y-93515000D01*
X166977500Y-93515000D01*
X166977500Y-93715000D01*
X166727500Y-93715000D01*
X166727500Y-93515000D01*
X166589500Y-93515000D01*
X166522461Y-93495315D01*
X166476706Y-93442511D01*
X166465500Y-93391000D01*
X166465499Y-92776602D01*
X166465499Y-92776600D01*
X166450240Y-92699883D01*
X166450238Y-92699880D01*
X166450238Y-92699879D01*
X166449937Y-92699151D01*
X166448311Y-92690976D01*
X166445523Y-92686638D01*
X166440500Y-92651703D01*
X166440500Y-92480833D01*
X166460185Y-92413794D01*
X166476819Y-92393152D01*
X167093152Y-91776819D01*
X167154475Y-91743334D01*
X167180833Y-91740500D01*
X167679560Y-91740500D01*
X167679562Y-91740500D01*
X167755989Y-91720021D01*
X167824511Y-91680460D01*
X167880460Y-91624511D01*
X168798151Y-90706818D01*
X168859474Y-90673334D01*
X168885832Y-90670500D01*
X168975890Y-90670500D01*
X168975892Y-90670500D01*
X169103186Y-90636392D01*
X169217314Y-90570500D01*
X169310500Y-90477314D01*
X169376392Y-90363186D01*
X169410500Y-90235892D01*
X169410500Y-90104108D01*
X169376392Y-89976814D01*
X169310500Y-89862686D01*
X169246818Y-89799004D01*
X169213334Y-89737680D01*
X169210500Y-89711323D01*
X169210500Y-82510439D01*
X169190020Y-82434009D01*
X169190017Y-82434004D01*
X169150464Y-82365495D01*
X169150458Y-82365487D01*
X167824512Y-81039541D01*
X167824504Y-81039535D01*
X167755995Y-80999982D01*
X167755990Y-80999979D01*
X167730513Y-80993152D01*
X167679562Y-80979500D01*
X158710438Y-80979500D01*
X158672224Y-80989739D01*
X158634009Y-80999979D01*
X158634004Y-80999982D01*
X158565495Y-81039535D01*
X158565487Y-81039541D01*
X156202181Y-83402848D01*
X156140858Y-83436333D01*
X156071166Y-83431349D01*
X156015233Y-83389477D01*
X155990816Y-83324013D01*
X155990500Y-83315167D01*
X155990500Y-82950249D01*
X155990499Y-82950247D01*
X155978868Y-82891770D01*
X155978867Y-82891769D01*
X155934552Y-82825447D01*
X155868230Y-82781132D01*
X155868229Y-82781131D01*
X155809752Y-82769500D01*
X155809748Y-82769500D01*
X154070252Y-82769500D01*
X154070247Y-82769500D01*
X154011770Y-82781131D01*
X154011769Y-82781132D01*
X153945448Y-82825446D01*
X153897102Y-82897802D01*
X153843489Y-82942606D01*
X153774164Y-82951313D01*
X153711137Y-82921158D01*
X153674418Y-82861715D01*
X153670000Y-82828910D01*
X153670000Y-81536397D01*
X153689685Y-81469358D01*
X153742489Y-81423603D01*
X153811647Y-81413659D01*
X153875203Y-81442684D01*
X153912977Y-81501462D01*
X153915618Y-81512207D01*
X153930350Y-81586274D01*
X154009500Y-81777359D01*
X154041377Y-81825067D01*
X154041378Y-81825067D01*
X154457037Y-81409408D01*
X154474075Y-81472993D01*
X154539901Y-81587007D01*
X154632993Y-81680099D01*
X154747007Y-81745925D01*
X154810590Y-81762962D01*
X154394931Y-82178620D01*
X154394932Y-82178621D01*
X154442633Y-82210495D01*
X154442639Y-82210498D01*
X154633725Y-82289649D01*
X154633733Y-82289651D01*
X154836579Y-82329999D01*
X154836583Y-82330000D01*
X155043417Y-82330000D01*
X155043420Y-82329999D01*
X155246266Y-82289651D01*
X155246274Y-82289649D01*
X155437366Y-82210495D01*
X155485066Y-82178621D01*
X155485067Y-82178620D01*
X155069409Y-81762962D01*
X155132993Y-81745925D01*
X155247007Y-81680099D01*
X155340099Y-81587007D01*
X155405925Y-81472993D01*
X155422962Y-81409409D01*
X155838620Y-81825067D01*
X155838621Y-81825066D01*
X155870495Y-81777366D01*
X155949649Y-81586274D01*
X155949651Y-81586266D01*
X155989999Y-81383420D01*
X155990000Y-81383417D01*
X155990000Y-81176583D01*
X155989999Y-81176579D01*
X155949651Y-80973733D01*
X155949649Y-80973725D01*
X155870498Y-80782639D01*
X155870495Y-80782633D01*
X155838621Y-80734932D01*
X155838620Y-80734931D01*
X155422962Y-81150590D01*
X155405925Y-81087007D01*
X155340099Y-80972993D01*
X155247007Y-80879901D01*
X155132993Y-80814075D01*
X155069409Y-80797037D01*
X155485067Y-80381378D01*
X155485067Y-80381377D01*
X155437359Y-80349500D01*
X155246274Y-80270350D01*
X155246266Y-80270348D01*
X155172207Y-80255617D01*
X155110296Y-80223233D01*
X155075722Y-80162517D01*
X155079461Y-80092748D01*
X155120327Y-80036075D01*
X155185345Y-80010494D01*
X155196398Y-80010000D01*
X176406000Y-80010000D01*
X176473039Y-80029685D01*
G37*
%TD.AperFunction*%
%TA.AperFunction,Conductor*%
G36*
X159403206Y-93030185D02*
G01*
X159423848Y-93046819D01*
X160901540Y-94524511D01*
X160957489Y-94580460D01*
X160957491Y-94580461D01*
X160957495Y-94580464D01*
X161012934Y-94612471D01*
X161026011Y-94620021D01*
X161102438Y-94640500D01*
X161175167Y-94640500D01*
X161196412Y-94646738D01*
X161218501Y-94648318D01*
X161229284Y-94656390D01*
X161242206Y-94660185D01*
X161256705Y-94676918D01*
X161274434Y-94690190D01*
X161279141Y-94702810D01*
X161287961Y-94712989D01*
X161291112Y-94734906D01*
X161298851Y-94755654D01*
X161295988Y-94768814D01*
X161297905Y-94782147D01*
X161288705Y-94802290D01*
X161283999Y-94823927D01*
X161270730Y-94841652D01*
X161268880Y-94845703D01*
X161262848Y-94852181D01*
X161201848Y-94913181D01*
X161140525Y-94946666D01*
X161114167Y-94949500D01*
X156035436Y-94949500D01*
X155968397Y-94929815D01*
X155922642Y-94877011D01*
X155920875Y-94872953D01*
X155893097Y-94805891D01*
X155870941Y-94752402D01*
X155755977Y-94580345D01*
X155755975Y-94580342D01*
X155609657Y-94434024D01*
X155468190Y-94339500D01*
X155437598Y-94319059D01*
X155246420Y-94239870D01*
X155246412Y-94239868D01*
X155043469Y-94199500D01*
X155043465Y-94199500D01*
X154836535Y-94199500D01*
X154836530Y-94199500D01*
X154633587Y-94239868D01*
X154633579Y-94239870D01*
X154442403Y-94319058D01*
X154270342Y-94434024D01*
X154270341Y-94434025D01*
X154182181Y-94522186D01*
X154120858Y-94555671D01*
X154051166Y-94550687D01*
X153995233Y-94508815D01*
X153970816Y-94443351D01*
X153970500Y-94434505D01*
X153970500Y-93525495D01*
X153990185Y-93458456D01*
X154042989Y-93412701D01*
X154112147Y-93402757D01*
X154175703Y-93431782D01*
X154182181Y-93437814D01*
X154270342Y-93525975D01*
X154270345Y-93525977D01*
X154442402Y-93640941D01*
X154633580Y-93720130D01*
X154813801Y-93755978D01*
X154836530Y-93760499D01*
X154836534Y-93760500D01*
X154836535Y-93760500D01*
X155043466Y-93760500D01*
X155043467Y-93760499D01*
X155246420Y-93720130D01*
X155437598Y-93640941D01*
X155609655Y-93525977D01*
X155755977Y-93379655D01*
X155870941Y-93207598D01*
X155920875Y-93087046D01*
X155964716Y-93032644D01*
X156031010Y-93010579D01*
X156035436Y-93010500D01*
X159336167Y-93010500D01*
X159403206Y-93030185D01*
G37*
%TD.AperFunction*%
%TA.AperFunction,Conductor*%
G36*
X159165398Y-84155690D02*
G01*
X159178834Y-84156651D01*
X159196560Y-84169921D01*
X159216703Y-84179120D01*
X159223985Y-84190451D01*
X159234767Y-84198523D01*
X159242504Y-84219268D01*
X159254477Y-84237898D01*
X159257628Y-84259816D01*
X159259184Y-84263987D01*
X159259500Y-84272833D01*
X159259500Y-84424269D01*
X159262353Y-84454699D01*
X159262353Y-84454701D01*
X159307124Y-84582645D01*
X159307207Y-84582882D01*
X159387850Y-84692150D01*
X159497118Y-84772793D01*
X159497125Y-84772795D01*
X159503441Y-84776134D01*
X159553514Y-84824863D01*
X159569500Y-84885765D01*
X159569500Y-87447018D01*
X159549815Y-87514057D01*
X159518387Y-87547335D01*
X159514247Y-87550342D01*
X159420346Y-87644243D01*
X159420343Y-87644248D01*
X159420342Y-87644249D01*
X159414344Y-87656021D01*
X159360047Y-87762582D01*
X159344500Y-87860748D01*
X159344500Y-88364251D01*
X159360047Y-88462417D01*
X159360049Y-88462420D01*
X159420342Y-88580751D01*
X159420344Y-88580753D01*
X159420346Y-88580756D01*
X159514243Y-88674653D01*
X159514245Y-88674654D01*
X159514249Y-88674658D01*
X159632580Y-88734951D01*
X159632581Y-88734951D01*
X159632583Y-88734952D01*
X159632582Y-88734952D01*
X159730749Y-88750500D01*
X159730754Y-88750500D01*
X160309251Y-88750500D01*
X160407417Y-88734952D01*
X160407418Y-88734951D01*
X160407420Y-88734951D01*
X160525751Y-88674658D01*
X160619658Y-88580751D01*
X160679951Y-88462420D01*
X160679951Y-88462418D01*
X160679952Y-88462417D01*
X160695500Y-88364251D01*
X160695500Y-87860748D01*
X160679952Y-87762582D01*
X160654596Y-87712819D01*
X160619658Y-87644249D01*
X160619654Y-87644245D01*
X160619653Y-87644243D01*
X160525752Y-87550342D01*
X160521613Y-87547335D01*
X160478948Y-87492005D01*
X160470500Y-87447018D01*
X160470500Y-84944500D01*
X160490185Y-84877461D01*
X160542989Y-84831706D01*
X160594500Y-84820500D01*
X161072035Y-84820500D01*
X161139074Y-84840185D01*
X161159716Y-84856819D01*
X164109236Y-87806340D01*
X164139424Y-87855512D01*
X164142994Y-87866440D01*
X164146028Y-87889487D01*
X164161044Y-87921690D01*
X164163369Y-87928804D01*
X164163748Y-87941370D01*
X164169500Y-87967313D01*
X164169500Y-88562686D01*
X164157882Y-88615090D01*
X164146030Y-88640506D01*
X164146027Y-88640516D01*
X164139500Y-88690098D01*
X164139500Y-89109894D01*
X164139501Y-89109900D01*
X164146011Y-89159361D01*
X164146029Y-89159491D01*
X164157881Y-89184906D01*
X164169500Y-89237313D01*
X164169500Y-89832686D01*
X164157882Y-89885090D01*
X164146030Y-89910506D01*
X164146027Y-89910516D01*
X164139500Y-89960098D01*
X164139500Y-90379894D01*
X164139501Y-90379900D01*
X164146028Y-90429487D01*
X164146029Y-90429489D01*
X164146029Y-90429490D01*
X164196776Y-90538316D01*
X164283181Y-90624721D01*
X164316666Y-90686044D01*
X164319500Y-90712402D01*
X164319500Y-90999562D01*
X164325017Y-91020151D01*
X164339979Y-91075990D01*
X164352819Y-91098229D01*
X164376647Y-91139500D01*
X164379540Y-91144511D01*
X164379542Y-91144514D01*
X164379543Y-91144515D01*
X164803181Y-91568152D01*
X164818964Y-91597057D01*
X164835718Y-91625440D01*
X164836088Y-91628417D01*
X164836666Y-91629475D01*
X164836503Y-91631750D01*
X164839500Y-91655833D01*
X164839500Y-91750567D01*
X164819815Y-91817606D01*
X164767011Y-91863361D01*
X164697853Y-91873305D01*
X164634297Y-91844280D01*
X164627819Y-91838248D01*
X164598710Y-91809139D01*
X164586894Y-91802317D01*
X164575077Y-91795495D01*
X164530191Y-91769580D01*
X164530190Y-91769579D01*
X164504713Y-91762752D01*
X164453762Y-91749100D01*
X163638038Y-91749100D01*
X163599824Y-91759339D01*
X163561609Y-91769579D01*
X163561608Y-91769580D01*
X163526555Y-91789818D01*
X163526553Y-91789819D01*
X163516723Y-91795495D01*
X163493089Y-91809140D01*
X163430376Y-91871852D01*
X163426634Y-91875044D01*
X163399044Y-91887384D01*
X163372522Y-91901866D01*
X163364814Y-91902694D01*
X163362853Y-91903572D01*
X163360282Y-91903181D01*
X163346165Y-91904700D01*
X163256108Y-91904700D01*
X163128812Y-91938808D01*
X163014686Y-92004700D01*
X163014683Y-92004702D01*
X162921502Y-92097883D01*
X162921500Y-92097886D01*
X162855608Y-92212012D01*
X162829419Y-92309752D01*
X162821500Y-92339308D01*
X162821500Y-92471092D01*
X162832385Y-92511715D01*
X162855608Y-92598387D01*
X162886391Y-92651703D01*
X162921500Y-92712514D01*
X163014686Y-92805700D01*
X163128814Y-92871592D01*
X163256108Y-92905700D01*
X163256110Y-92905700D01*
X163387890Y-92905700D01*
X163387892Y-92905700D01*
X163515186Y-92871592D01*
X163629314Y-92805700D01*
X163722500Y-92712514D01*
X163788392Y-92598386D01*
X163822500Y-92471092D01*
X163822500Y-92471083D01*
X163823561Y-92463032D01*
X163825668Y-92463309D01*
X163842185Y-92407061D01*
X163894989Y-92361306D01*
X163946500Y-92350100D01*
X164215500Y-92350100D01*
X164224185Y-92352650D01*
X164233147Y-92351362D01*
X164257187Y-92362340D01*
X164282539Y-92369785D01*
X164288466Y-92376625D01*
X164296703Y-92380387D01*
X164310992Y-92402621D01*
X164328294Y-92422589D01*
X164330581Y-92433103D01*
X164334477Y-92439165D01*
X164339500Y-92474100D01*
X164339500Y-92651703D01*
X164330060Y-92699158D01*
X164329758Y-92699885D01*
X164314500Y-92776594D01*
X164314500Y-93390500D01*
X164294815Y-93457539D01*
X164242011Y-93503294D01*
X164190500Y-93514500D01*
X163576602Y-93514500D01*
X163531542Y-93523463D01*
X163499883Y-93529760D01*
X163499882Y-93529760D01*
X163499879Y-93529761D01*
X163499151Y-93530063D01*
X163451703Y-93539500D01*
X162341833Y-93539500D01*
X162312392Y-93530855D01*
X162282406Y-93524332D01*
X162277390Y-93520577D01*
X162274794Y-93519815D01*
X162254152Y-93503181D01*
X162134819Y-93383848D01*
X162101334Y-93322525D01*
X162098500Y-93296167D01*
X162098500Y-91107832D01*
X162118185Y-91040793D01*
X162134814Y-91020155D01*
X163083151Y-90071818D01*
X163144474Y-90038334D01*
X163170832Y-90035500D01*
X163260890Y-90035500D01*
X163260892Y-90035500D01*
X163388186Y-90001392D01*
X163502314Y-89935500D01*
X163595500Y-89842314D01*
X163661392Y-89728186D01*
X163695500Y-89600892D01*
X163695500Y-89469108D01*
X163661392Y-89341814D01*
X163658947Y-89337580D01*
X163603631Y-89241770D01*
X163595500Y-89227686D01*
X163502314Y-89134500D01*
X163442238Y-89099815D01*
X163388187Y-89068608D01*
X163307584Y-89047011D01*
X163260892Y-89034500D01*
X163129108Y-89034500D01*
X163001812Y-89068608D01*
X162887686Y-89134500D01*
X162887683Y-89134502D01*
X162794502Y-89227683D01*
X162794500Y-89227686D01*
X162728608Y-89341812D01*
X162694500Y-89469108D01*
X162694500Y-89559166D01*
X162674815Y-89626205D01*
X162658181Y-89646847D01*
X161613489Y-90691540D01*
X161557541Y-90747487D01*
X161557535Y-90747495D01*
X161517982Y-90816004D01*
X161517979Y-90816009D01*
X161504326Y-90866962D01*
X161497500Y-90892438D01*
X161497500Y-93511562D01*
X161517979Y-93587989D01*
X161548551Y-93640941D01*
X161548551Y-93640942D01*
X161557538Y-93656508D01*
X161557543Y-93656515D01*
X161728847Y-93827819D01*
X161762332Y-93889142D01*
X161757348Y-93958834D01*
X161715476Y-94014767D01*
X161650012Y-94039184D01*
X161641166Y-94039500D01*
X161317833Y-94039500D01*
X161311878Y-94037751D01*
X161305781Y-94038913D01*
X161278747Y-94028023D01*
X161250794Y-94019815D01*
X161243219Y-94013711D01*
X161240972Y-94012806D01*
X161239474Y-94010693D01*
X161230152Y-94003181D01*
X159696510Y-92469539D01*
X159688172Y-92464725D01*
X159679833Y-92459911D01*
X159643900Y-92439165D01*
X159627991Y-92429980D01*
X159627990Y-92429979D01*
X159600410Y-92422589D01*
X159551562Y-92409500D01*
X159551560Y-92409500D01*
X156035436Y-92409500D01*
X155968397Y-92389815D01*
X155922642Y-92337011D01*
X155920875Y-92332953D01*
X155909500Y-92305491D01*
X155870941Y-92212402D01*
X155755977Y-92040345D01*
X155755975Y-92040342D01*
X155609657Y-91894024D01*
X155495288Y-91817606D01*
X155437598Y-91779059D01*
X155432190Y-91776819D01*
X155246420Y-91699870D01*
X155246412Y-91699868D01*
X155043469Y-91659500D01*
X155043465Y-91659500D01*
X154836535Y-91659500D01*
X154836530Y-91659500D01*
X154633587Y-91699868D01*
X154633579Y-91699870D01*
X154442403Y-91779058D01*
X154270342Y-91894024D01*
X154270341Y-91894025D01*
X154182181Y-91982186D01*
X154120858Y-92015671D01*
X154051166Y-92010687D01*
X153995233Y-91968815D01*
X153970816Y-91903351D01*
X153970500Y-91894505D01*
X153970500Y-91344500D01*
X153990185Y-91277461D01*
X154042989Y-91231706D01*
X154094500Y-91220500D01*
X155809750Y-91220500D01*
X155809751Y-91220499D01*
X155824568Y-91217552D01*
X155868229Y-91208868D01*
X155868229Y-91208867D01*
X155868231Y-91208867D01*
X155934552Y-91164552D01*
X155978867Y-91098231D01*
X155978867Y-91098229D01*
X155978868Y-91098229D01*
X155990499Y-91039752D01*
X155990500Y-91039750D01*
X155990500Y-90744500D01*
X156010185Y-90677461D01*
X156062989Y-90631706D01*
X156114500Y-90620500D01*
X159596808Y-90620500D01*
X159596809Y-90620500D01*
X159687173Y-90596286D01*
X159711387Y-90589799D01*
X159814114Y-90530489D01*
X159982784Y-90361819D01*
X160044107Y-90328334D01*
X160070465Y-90325500D01*
X160309251Y-90325500D01*
X160407417Y-90309952D01*
X160407418Y-90309951D01*
X160407420Y-90309951D01*
X160525751Y-90249658D01*
X160619658Y-90155751D01*
X160679951Y-90037420D01*
X160679951Y-90037418D01*
X160679952Y-90037417D01*
X160695500Y-89939251D01*
X160695500Y-89435748D01*
X160679952Y-89337582D01*
X160660931Y-89300252D01*
X160619658Y-89219249D01*
X160619654Y-89219245D01*
X160619653Y-89219243D01*
X160525756Y-89125346D01*
X160525753Y-89125344D01*
X160525751Y-89125342D01*
X160407420Y-89065049D01*
X160407419Y-89065048D01*
X160407416Y-89065047D01*
X160407417Y-89065047D01*
X160309251Y-89049500D01*
X160309246Y-89049500D01*
X159730754Y-89049500D01*
X159730749Y-89049500D01*
X159632582Y-89065047D01*
X159564348Y-89099815D01*
X159514249Y-89125342D01*
X159514248Y-89125343D01*
X159514243Y-89125346D01*
X159420346Y-89219243D01*
X159420343Y-89219248D01*
X159420342Y-89219249D01*
X159408867Y-89241770D01*
X159360047Y-89337582D01*
X159344500Y-89435748D01*
X159344500Y-89595500D01*
X159324815Y-89662539D01*
X159272011Y-89708294D01*
X159220500Y-89719500D01*
X156114500Y-89719500D01*
X156047461Y-89699815D01*
X156001706Y-89647011D01*
X155990500Y-89595500D01*
X155990500Y-89300249D01*
X155990499Y-89300247D01*
X155978868Y-89241770D01*
X155978867Y-89241769D01*
X155934552Y-89175447D01*
X155868230Y-89131132D01*
X155868229Y-89131131D01*
X155809752Y-89119500D01*
X155809748Y-89119500D01*
X154094500Y-89119500D01*
X154027461Y-89099815D01*
X153981706Y-89047011D01*
X153970500Y-88995500D01*
X153970500Y-88313833D01*
X153990185Y-88246794D01*
X154006819Y-88226152D01*
X154520152Y-87712819D01*
X154581475Y-87679334D01*
X154607833Y-87676500D01*
X157519560Y-87676500D01*
X157519562Y-87676500D01*
X157595989Y-87656021D01*
X157664511Y-87616460D01*
X157720460Y-87560511D01*
X158736460Y-86544511D01*
X158776021Y-86475989D01*
X158796500Y-86399562D01*
X158796500Y-84487833D01*
X158816185Y-84420794D01*
X158832819Y-84400152D01*
X159047819Y-84185152D01*
X159067255Y-84174539D01*
X159083989Y-84160039D01*
X159097320Y-84158122D01*
X159109142Y-84151667D01*
X159131228Y-84153246D01*
X159153147Y-84150095D01*
X159165398Y-84155690D01*
G37*
%TD.AperFunction*%
%TA.AperFunction,Conductor*%
G36*
X154750641Y-80029685D02*
G01*
X154796396Y-80082489D01*
X154806340Y-80151647D01*
X154777315Y-80215203D01*
X154718537Y-80252977D01*
X154707793Y-80255617D01*
X154633733Y-80270348D01*
X154633725Y-80270350D01*
X154442641Y-80349500D01*
X154442631Y-80349505D01*
X154394932Y-80381377D01*
X154394932Y-80381378D01*
X154810591Y-80797037D01*
X154747007Y-80814075D01*
X154632993Y-80879901D01*
X154539901Y-80972993D01*
X154474075Y-81087007D01*
X154457037Y-81150591D01*
X154041378Y-80734932D01*
X154041377Y-80734932D01*
X154009505Y-80782631D01*
X154009500Y-80782641D01*
X153930350Y-80973725D01*
X153930348Y-80973733D01*
X153915617Y-81047793D01*
X153883233Y-81109704D01*
X153822517Y-81144278D01*
X153752748Y-81140539D01*
X153696075Y-81099673D01*
X153670494Y-81034655D01*
X153670000Y-81023602D01*
X153670000Y-80134000D01*
X153689685Y-80066961D01*
X153742489Y-80021206D01*
X153794000Y-80010000D01*
X154683602Y-80010000D01*
X154750641Y-80029685D01*
G37*
%TD.AperFunction*%
%TD*%
D22*
X152400000Y-111760000D02*
X152400000Y-78740000D01*
X152400000Y-78740000D02*
X177800000Y-78740000D01*
X177800000Y-111760000D02*
X152400000Y-111760000D01*
X177800000Y-78740000D02*
X177800000Y-111760000D01*
M02*
