%TF.GenerationSoftware,KiCad,Pcbnew,9.0.7*%
%TF.CreationDate,2026-02-18T22:45:12+00:00*%
%TF.ProjectId,OSDSwitch,4f534453-7769-4746-9368-2e6b69636164,rev?*%
%TF.SameCoordinates,Original*%
%TF.FileFunction,Legend,Top*%
%TF.FilePolarity,Positive*%
%FSLAX46Y46*%
G04 Gerber Fmt 4.6, Leading zero omitted, Abs format (unit mm)*
G04 Created by KiCad (PCBNEW 9.0.7) date 2026-02-18 22:45:12*
%MOMM*%
%LPD*%
G01*
G04 APERTURE LIST*
%ADD10C,0.100000*%
%ADD11C,0.120000*%
G04 APERTURE END LIST*
D10*
X170378571Y-81751503D02*
X170569047Y-81751503D01*
X170569047Y-81751503D02*
X170664285Y-81799122D01*
X170664285Y-81799122D02*
X170759523Y-81894360D01*
X170759523Y-81894360D02*
X170807142Y-82084836D01*
X170807142Y-82084836D02*
X170807142Y-82418169D01*
X170807142Y-82418169D02*
X170759523Y-82608645D01*
X170759523Y-82608645D02*
X170664285Y-82703884D01*
X170664285Y-82703884D02*
X170569047Y-82751503D01*
X170569047Y-82751503D02*
X170378571Y-82751503D01*
X170378571Y-82751503D02*
X170283333Y-82703884D01*
X170283333Y-82703884D02*
X170188095Y-82608645D01*
X170188095Y-82608645D02*
X170140476Y-82418169D01*
X170140476Y-82418169D02*
X170140476Y-82084836D01*
X170140476Y-82084836D02*
X170188095Y-81894360D01*
X170188095Y-81894360D02*
X170283333Y-81799122D01*
X170283333Y-81799122D02*
X170378571Y-81751503D01*
X171188095Y-82703884D02*
X171330952Y-82751503D01*
X171330952Y-82751503D02*
X171569047Y-82751503D01*
X171569047Y-82751503D02*
X171664285Y-82703884D01*
X171664285Y-82703884D02*
X171711904Y-82656264D01*
X171711904Y-82656264D02*
X171759523Y-82561026D01*
X171759523Y-82561026D02*
X171759523Y-82465788D01*
X171759523Y-82465788D02*
X171711904Y-82370550D01*
X171711904Y-82370550D02*
X171664285Y-82322931D01*
X171664285Y-82322931D02*
X171569047Y-82275312D01*
X171569047Y-82275312D02*
X171378571Y-82227693D01*
X171378571Y-82227693D02*
X171283333Y-82180074D01*
X171283333Y-82180074D02*
X171235714Y-82132455D01*
X171235714Y-82132455D02*
X171188095Y-82037217D01*
X171188095Y-82037217D02*
X171188095Y-81941979D01*
X171188095Y-81941979D02*
X171235714Y-81846741D01*
X171235714Y-81846741D02*
X171283333Y-81799122D01*
X171283333Y-81799122D02*
X171378571Y-81751503D01*
X171378571Y-81751503D02*
X171616666Y-81751503D01*
X171616666Y-81751503D02*
X171759523Y-81799122D01*
X172188095Y-82751503D02*
X172188095Y-81751503D01*
X172188095Y-81751503D02*
X172426190Y-81751503D01*
X172426190Y-81751503D02*
X172569047Y-81799122D01*
X172569047Y-81799122D02*
X172664285Y-81894360D01*
X172664285Y-81894360D02*
X172711904Y-81989598D01*
X172711904Y-81989598D02*
X172759523Y-82180074D01*
X172759523Y-82180074D02*
X172759523Y-82322931D01*
X172759523Y-82322931D02*
X172711904Y-82513407D01*
X172711904Y-82513407D02*
X172664285Y-82608645D01*
X172664285Y-82608645D02*
X172569047Y-82703884D01*
X172569047Y-82703884D02*
X172426190Y-82751503D01*
X172426190Y-82751503D02*
X172188095Y-82751503D01*
X169402381Y-83361447D02*
X169735714Y-84361447D01*
X169735714Y-84361447D02*
X170069047Y-83361447D01*
X170402381Y-84361447D02*
X170402381Y-83361447D01*
X170878571Y-84361447D02*
X170878571Y-83361447D01*
X170878571Y-83361447D02*
X171116666Y-83361447D01*
X171116666Y-83361447D02*
X171259523Y-83409066D01*
X171259523Y-83409066D02*
X171354761Y-83504304D01*
X171354761Y-83504304D02*
X171402380Y-83599542D01*
X171402380Y-83599542D02*
X171449999Y-83790018D01*
X171449999Y-83790018D02*
X171449999Y-83932875D01*
X171449999Y-83932875D02*
X171402380Y-84123351D01*
X171402380Y-84123351D02*
X171354761Y-84218589D01*
X171354761Y-84218589D02*
X171259523Y-84313828D01*
X171259523Y-84313828D02*
X171116666Y-84361447D01*
X171116666Y-84361447D02*
X170878571Y-84361447D01*
X171878571Y-83837637D02*
X172211904Y-83837637D01*
X172354761Y-84361447D02*
X171878571Y-84361447D01*
X171878571Y-84361447D02*
X171878571Y-83361447D01*
X171878571Y-83361447D02*
X172354761Y-83361447D01*
X172973809Y-83361447D02*
X173164285Y-83361447D01*
X173164285Y-83361447D02*
X173259523Y-83409066D01*
X173259523Y-83409066D02*
X173354761Y-83504304D01*
X173354761Y-83504304D02*
X173402380Y-83694780D01*
X173402380Y-83694780D02*
X173402380Y-84028113D01*
X173402380Y-84028113D02*
X173354761Y-84218589D01*
X173354761Y-84218589D02*
X173259523Y-84313828D01*
X173259523Y-84313828D02*
X173164285Y-84361447D01*
X173164285Y-84361447D02*
X172973809Y-84361447D01*
X172973809Y-84361447D02*
X172878571Y-84313828D01*
X172878571Y-84313828D02*
X172783333Y-84218589D01*
X172783333Y-84218589D02*
X172735714Y-84028113D01*
X172735714Y-84028113D02*
X172735714Y-83694780D01*
X172735714Y-83694780D02*
X172783333Y-83504304D01*
X172783333Y-83504304D02*
X172878571Y-83409066D01*
X172878571Y-83409066D02*
X172973809Y-83361447D01*
X168950000Y-85923772D02*
X169092857Y-85971391D01*
X169092857Y-85971391D02*
X169330952Y-85971391D01*
X169330952Y-85971391D02*
X169426190Y-85923772D01*
X169426190Y-85923772D02*
X169473809Y-85876152D01*
X169473809Y-85876152D02*
X169521428Y-85780914D01*
X169521428Y-85780914D02*
X169521428Y-85685676D01*
X169521428Y-85685676D02*
X169473809Y-85590438D01*
X169473809Y-85590438D02*
X169426190Y-85542819D01*
X169426190Y-85542819D02*
X169330952Y-85495200D01*
X169330952Y-85495200D02*
X169140476Y-85447581D01*
X169140476Y-85447581D02*
X169045238Y-85399962D01*
X169045238Y-85399962D02*
X168997619Y-85352343D01*
X168997619Y-85352343D02*
X168950000Y-85257105D01*
X168950000Y-85257105D02*
X168950000Y-85161867D01*
X168950000Y-85161867D02*
X168997619Y-85066629D01*
X168997619Y-85066629D02*
X169045238Y-85019010D01*
X169045238Y-85019010D02*
X169140476Y-84971391D01*
X169140476Y-84971391D02*
X169378571Y-84971391D01*
X169378571Y-84971391D02*
X169521428Y-85019010D01*
X169854762Y-84971391D02*
X170092857Y-85971391D01*
X170092857Y-85971391D02*
X170283333Y-85257105D01*
X170283333Y-85257105D02*
X170473809Y-85971391D01*
X170473809Y-85971391D02*
X170711905Y-84971391D01*
X171092857Y-85971391D02*
X171092857Y-84971391D01*
X171426190Y-84971391D02*
X171997618Y-84971391D01*
X171711904Y-85971391D02*
X171711904Y-84971391D01*
X172902380Y-85876152D02*
X172854761Y-85923772D01*
X172854761Y-85923772D02*
X172711904Y-85971391D01*
X172711904Y-85971391D02*
X172616666Y-85971391D01*
X172616666Y-85971391D02*
X172473809Y-85923772D01*
X172473809Y-85923772D02*
X172378571Y-85828533D01*
X172378571Y-85828533D02*
X172330952Y-85733295D01*
X172330952Y-85733295D02*
X172283333Y-85542819D01*
X172283333Y-85542819D02*
X172283333Y-85399962D01*
X172283333Y-85399962D02*
X172330952Y-85209486D01*
X172330952Y-85209486D02*
X172378571Y-85114248D01*
X172378571Y-85114248D02*
X172473809Y-85019010D01*
X172473809Y-85019010D02*
X172616666Y-84971391D01*
X172616666Y-84971391D02*
X172711904Y-84971391D01*
X172711904Y-84971391D02*
X172854761Y-85019010D01*
X172854761Y-85019010D02*
X172902380Y-85066629D01*
X173330952Y-85971391D02*
X173330952Y-84971391D01*
X173330952Y-85447581D02*
X173902380Y-85447581D01*
X173902380Y-85971391D02*
X173902380Y-84971391D01*
X169926191Y-86581335D02*
X170259524Y-87581335D01*
X170259524Y-87581335D02*
X170592857Y-86581335D01*
X171450000Y-87581335D02*
X170878572Y-87581335D01*
X171164286Y-87581335D02*
X171164286Y-86581335D01*
X171164286Y-86581335D02*
X171069048Y-86724192D01*
X171069048Y-86724192D02*
X170973810Y-86819430D01*
X170973810Y-86819430D02*
X170878572Y-86867049D01*
X171878572Y-87486096D02*
X171926191Y-87533716D01*
X171926191Y-87533716D02*
X171878572Y-87581335D01*
X171878572Y-87581335D02*
X171830953Y-87533716D01*
X171830953Y-87533716D02*
X171878572Y-87486096D01*
X171878572Y-87486096D02*
X171878572Y-87581335D01*
X172545238Y-86581335D02*
X172640476Y-86581335D01*
X172640476Y-86581335D02*
X172735714Y-86628954D01*
X172735714Y-86628954D02*
X172783333Y-86676573D01*
X172783333Y-86676573D02*
X172830952Y-86771811D01*
X172830952Y-86771811D02*
X172878571Y-86962287D01*
X172878571Y-86962287D02*
X172878571Y-87200382D01*
X172878571Y-87200382D02*
X172830952Y-87390858D01*
X172830952Y-87390858D02*
X172783333Y-87486096D01*
X172783333Y-87486096D02*
X172735714Y-87533716D01*
X172735714Y-87533716D02*
X172640476Y-87581335D01*
X172640476Y-87581335D02*
X172545238Y-87581335D01*
X172545238Y-87581335D02*
X172450000Y-87533716D01*
X172450000Y-87533716D02*
X172402381Y-87486096D01*
X172402381Y-87486096D02*
X172354762Y-87390858D01*
X172354762Y-87390858D02*
X172307143Y-87200382D01*
X172307143Y-87200382D02*
X172307143Y-86962287D01*
X172307143Y-86962287D02*
X172354762Y-86771811D01*
X172354762Y-86771811D02*
X172402381Y-86676573D01*
X172402381Y-86676573D02*
X172450000Y-86628954D01*
X172450000Y-86628954D02*
X172545238Y-86581335D01*
X157498074Y-89627419D02*
X157021884Y-89627419D01*
X157021884Y-89627419D02*
X156974265Y-90103609D01*
X156974265Y-90103609D02*
X157021884Y-90055990D01*
X157021884Y-90055990D02*
X157117122Y-90008371D01*
X157117122Y-90008371D02*
X157355217Y-90008371D01*
X157355217Y-90008371D02*
X157450455Y-90055990D01*
X157450455Y-90055990D02*
X157498074Y-90103609D01*
X157498074Y-90103609D02*
X157545693Y-90198847D01*
X157545693Y-90198847D02*
X157545693Y-90436942D01*
X157545693Y-90436942D02*
X157498074Y-90532180D01*
X157498074Y-90532180D02*
X157450455Y-90579800D01*
X157450455Y-90579800D02*
X157355217Y-90627419D01*
X157355217Y-90627419D02*
X157117122Y-90627419D01*
X157117122Y-90627419D02*
X157021884Y-90579800D01*
X157021884Y-90579800D02*
X156974265Y-90532180D01*
X157831408Y-89627419D02*
X158164741Y-90627419D01*
X158164741Y-90627419D02*
X158498074Y-89627419D01*
X168981428Y-99170609D02*
X169124285Y-99218228D01*
X169124285Y-99218228D02*
X169171904Y-99265847D01*
X169171904Y-99265847D02*
X169219523Y-99361085D01*
X169219523Y-99361085D02*
X169219523Y-99503942D01*
X169219523Y-99503942D02*
X169171904Y-99599180D01*
X169171904Y-99599180D02*
X169124285Y-99646800D01*
X169124285Y-99646800D02*
X169029047Y-99694419D01*
X169029047Y-99694419D02*
X168648095Y-99694419D01*
X168648095Y-99694419D02*
X168648095Y-98694419D01*
X168648095Y-98694419D02*
X168981428Y-98694419D01*
X168981428Y-98694419D02*
X169076666Y-98742038D01*
X169076666Y-98742038D02*
X169124285Y-98789657D01*
X169124285Y-98789657D02*
X169171904Y-98884895D01*
X169171904Y-98884895D02*
X169171904Y-98980133D01*
X169171904Y-98980133D02*
X169124285Y-99075371D01*
X169124285Y-99075371D02*
X169076666Y-99122990D01*
X169076666Y-99122990D02*
X168981428Y-99170609D01*
X168981428Y-99170609D02*
X168648095Y-99170609D01*
X165361904Y-98742038D02*
X165266666Y-98694419D01*
X165266666Y-98694419D02*
X165123809Y-98694419D01*
X165123809Y-98694419D02*
X164980952Y-98742038D01*
X164980952Y-98742038D02*
X164885714Y-98837276D01*
X164885714Y-98837276D02*
X164838095Y-98932514D01*
X164838095Y-98932514D02*
X164790476Y-99122990D01*
X164790476Y-99122990D02*
X164790476Y-99265847D01*
X164790476Y-99265847D02*
X164838095Y-99456323D01*
X164838095Y-99456323D02*
X164885714Y-99551561D01*
X164885714Y-99551561D02*
X164980952Y-99646800D01*
X164980952Y-99646800D02*
X165123809Y-99694419D01*
X165123809Y-99694419D02*
X165219047Y-99694419D01*
X165219047Y-99694419D02*
X165361904Y-99646800D01*
X165361904Y-99646800D02*
X165409523Y-99599180D01*
X165409523Y-99599180D02*
X165409523Y-99265847D01*
X165409523Y-99265847D02*
X165219047Y-99265847D01*
X161599523Y-99694419D02*
X161266190Y-99218228D01*
X161028095Y-99694419D02*
X161028095Y-98694419D01*
X161028095Y-98694419D02*
X161409047Y-98694419D01*
X161409047Y-98694419D02*
X161504285Y-98742038D01*
X161504285Y-98742038D02*
X161551904Y-98789657D01*
X161551904Y-98789657D02*
X161599523Y-98884895D01*
X161599523Y-98884895D02*
X161599523Y-99027752D01*
X161599523Y-99027752D02*
X161551904Y-99122990D01*
X161551904Y-99122990D02*
X161504285Y-99170609D01*
X161504285Y-99170609D02*
X161409047Y-99218228D01*
X161409047Y-99218228D02*
X161028095Y-99218228D01*
X170780419Y-102552380D02*
X170780419Y-102361904D01*
X170780419Y-102361904D02*
X170828038Y-102266666D01*
X170828038Y-102266666D02*
X170923276Y-102171428D01*
X170923276Y-102171428D02*
X171113752Y-102123809D01*
X171113752Y-102123809D02*
X171447085Y-102123809D01*
X171447085Y-102123809D02*
X171637561Y-102171428D01*
X171637561Y-102171428D02*
X171732800Y-102266666D01*
X171732800Y-102266666D02*
X171780419Y-102361904D01*
X171780419Y-102361904D02*
X171780419Y-102552380D01*
X171780419Y-102552380D02*
X171732800Y-102647618D01*
X171732800Y-102647618D02*
X171637561Y-102742856D01*
X171637561Y-102742856D02*
X171447085Y-102790475D01*
X171447085Y-102790475D02*
X171113752Y-102790475D01*
X171113752Y-102790475D02*
X170923276Y-102742856D01*
X170923276Y-102742856D02*
X170828038Y-102647618D01*
X170828038Y-102647618D02*
X170780419Y-102552380D01*
X171256609Y-101361904D02*
X171256609Y-101695237D01*
X171780419Y-101695237D02*
X170780419Y-101695237D01*
X170780419Y-101695237D02*
X170780419Y-101219047D01*
X171256609Y-100504761D02*
X171256609Y-100838094D01*
X171780419Y-100838094D02*
X170780419Y-100838094D01*
X170780419Y-100838094D02*
X170780419Y-100361904D01*
X170780419Y-107299047D02*
X170780419Y-107108571D01*
X170780419Y-107108571D02*
X170828038Y-107013333D01*
X170828038Y-107013333D02*
X170923276Y-106918095D01*
X170923276Y-106918095D02*
X171113752Y-106870476D01*
X171113752Y-106870476D02*
X171447085Y-106870476D01*
X171447085Y-106870476D02*
X171637561Y-106918095D01*
X171637561Y-106918095D02*
X171732800Y-107013333D01*
X171732800Y-107013333D02*
X171780419Y-107108571D01*
X171780419Y-107108571D02*
X171780419Y-107299047D01*
X171780419Y-107299047D02*
X171732800Y-107394285D01*
X171732800Y-107394285D02*
X171637561Y-107489523D01*
X171637561Y-107489523D02*
X171447085Y-107537142D01*
X171447085Y-107537142D02*
X171113752Y-107537142D01*
X171113752Y-107537142D02*
X170923276Y-107489523D01*
X170923276Y-107489523D02*
X170828038Y-107394285D01*
X170828038Y-107394285D02*
X170780419Y-107299047D01*
X171780419Y-106441904D02*
X170780419Y-106441904D01*
X170780419Y-106441904D02*
X171780419Y-105870476D01*
X171780419Y-105870476D02*
X170780419Y-105870476D01*
X174717419Y-106141884D02*
X174717419Y-105951408D01*
X174717419Y-105951408D02*
X174765038Y-105856170D01*
X174765038Y-105856170D02*
X174860276Y-105760932D01*
X174860276Y-105760932D02*
X175050752Y-105713313D01*
X175050752Y-105713313D02*
X175384085Y-105713313D01*
X175384085Y-105713313D02*
X175574561Y-105760932D01*
X175574561Y-105760932D02*
X175669800Y-105856170D01*
X175669800Y-105856170D02*
X175717419Y-105951408D01*
X175717419Y-105951408D02*
X175717419Y-106141884D01*
X175717419Y-106141884D02*
X175669800Y-106237122D01*
X175669800Y-106237122D02*
X175574561Y-106332360D01*
X175574561Y-106332360D02*
X175384085Y-106379979D01*
X175384085Y-106379979D02*
X175050752Y-106379979D01*
X175050752Y-106379979D02*
X174860276Y-106332360D01*
X174860276Y-106332360D02*
X174765038Y-106237122D01*
X174765038Y-106237122D02*
X174717419Y-106141884D01*
X174717419Y-105284741D02*
X175526942Y-105284741D01*
X175526942Y-105284741D02*
X175622180Y-105237122D01*
X175622180Y-105237122D02*
X175669800Y-105189503D01*
X175669800Y-105189503D02*
X175717419Y-105094265D01*
X175717419Y-105094265D02*
X175717419Y-104903789D01*
X175717419Y-104903789D02*
X175669800Y-104808551D01*
X175669800Y-104808551D02*
X175622180Y-104760932D01*
X175622180Y-104760932D02*
X175526942Y-104713313D01*
X175526942Y-104713313D02*
X174717419Y-104713313D01*
X174717419Y-104379979D02*
X174717419Y-103808551D01*
X175717419Y-104094265D02*
X174717419Y-104094265D01*
X175717419Y-103475217D02*
X174717419Y-103475217D01*
X174717419Y-103475217D02*
X174717419Y-103094265D01*
X174717419Y-103094265D02*
X174765038Y-102999027D01*
X174765038Y-102999027D02*
X174812657Y-102951408D01*
X174812657Y-102951408D02*
X174907895Y-102903789D01*
X174907895Y-102903789D02*
X175050752Y-102903789D01*
X175050752Y-102903789D02*
X175145990Y-102951408D01*
X175145990Y-102951408D02*
X175193609Y-102999027D01*
X175193609Y-102999027D02*
X175241228Y-103094265D01*
X175241228Y-103094265D02*
X175241228Y-103475217D01*
X174717419Y-102475217D02*
X175526942Y-102475217D01*
X175526942Y-102475217D02*
X175622180Y-102427598D01*
X175622180Y-102427598D02*
X175669800Y-102379979D01*
X175669800Y-102379979D02*
X175717419Y-102284741D01*
X175717419Y-102284741D02*
X175717419Y-102094265D01*
X175717419Y-102094265D02*
X175669800Y-101999027D01*
X175669800Y-101999027D02*
X175622180Y-101951408D01*
X175622180Y-101951408D02*
X175526942Y-101903789D01*
X175526942Y-101903789D02*
X174717419Y-101903789D01*
X174717419Y-101570455D02*
X174717419Y-100999027D01*
X175717419Y-101284741D02*
X174717419Y-101284741D01*
X155397419Y-106269026D02*
X154397419Y-106269026D01*
X155397419Y-105792836D02*
X154397419Y-105792836D01*
X154397419Y-105792836D02*
X155397419Y-105221408D01*
X155397419Y-105221408D02*
X154397419Y-105221408D01*
X155397419Y-104745217D02*
X154397419Y-104745217D01*
X154397419Y-104745217D02*
X154397419Y-104364265D01*
X154397419Y-104364265D02*
X154445038Y-104269027D01*
X154445038Y-104269027D02*
X154492657Y-104221408D01*
X154492657Y-104221408D02*
X154587895Y-104173789D01*
X154587895Y-104173789D02*
X154730752Y-104173789D01*
X154730752Y-104173789D02*
X154825990Y-104221408D01*
X154825990Y-104221408D02*
X154873609Y-104269027D01*
X154873609Y-104269027D02*
X154921228Y-104364265D01*
X154921228Y-104364265D02*
X154921228Y-104745217D01*
X154397419Y-103745217D02*
X155206942Y-103745217D01*
X155206942Y-103745217D02*
X155302180Y-103697598D01*
X155302180Y-103697598D02*
X155349800Y-103649979D01*
X155349800Y-103649979D02*
X155397419Y-103554741D01*
X155397419Y-103554741D02*
X155397419Y-103364265D01*
X155397419Y-103364265D02*
X155349800Y-103269027D01*
X155349800Y-103269027D02*
X155302180Y-103221408D01*
X155302180Y-103221408D02*
X155206942Y-103173789D01*
X155206942Y-103173789D02*
X154397419Y-103173789D01*
X154397419Y-102840455D02*
X154397419Y-102269027D01*
X155397419Y-102554741D02*
X154397419Y-102554741D01*
X173225734Y-91897419D02*
X172892401Y-91421228D01*
X172654306Y-91897419D02*
X172654306Y-90897419D01*
X172654306Y-90897419D02*
X173035258Y-90897419D01*
X173035258Y-90897419D02*
X173130496Y-90945038D01*
X173130496Y-90945038D02*
X173178115Y-90992657D01*
X173178115Y-90992657D02*
X173225734Y-91087895D01*
X173225734Y-91087895D02*
X173225734Y-91230752D01*
X173225734Y-91230752D02*
X173178115Y-91325990D01*
X173178115Y-91325990D02*
X173130496Y-91373609D01*
X173130496Y-91373609D02*
X173035258Y-91421228D01*
X173035258Y-91421228D02*
X172654306Y-91421228D01*
X173178115Y-93485038D02*
X173082877Y-93437419D01*
X173082877Y-93437419D02*
X172940020Y-93437419D01*
X172940020Y-93437419D02*
X172797163Y-93485038D01*
X172797163Y-93485038D02*
X172701925Y-93580276D01*
X172701925Y-93580276D02*
X172654306Y-93675514D01*
X172654306Y-93675514D02*
X172606687Y-93865990D01*
X172606687Y-93865990D02*
X172606687Y-94008847D01*
X172606687Y-94008847D02*
X172654306Y-94199323D01*
X172654306Y-94199323D02*
X172701925Y-94294561D01*
X172701925Y-94294561D02*
X172797163Y-94389800D01*
X172797163Y-94389800D02*
X172940020Y-94437419D01*
X172940020Y-94437419D02*
X173035258Y-94437419D01*
X173035258Y-94437419D02*
X173178115Y-94389800D01*
X173178115Y-94389800D02*
X173225734Y-94342180D01*
X173225734Y-94342180D02*
X173225734Y-94008847D01*
X173225734Y-94008847D02*
X173035258Y-94008847D01*
X172987639Y-96453609D02*
X173130496Y-96501228D01*
X173130496Y-96501228D02*
X173178115Y-96548847D01*
X173178115Y-96548847D02*
X173225734Y-96644085D01*
X173225734Y-96644085D02*
X173225734Y-96786942D01*
X173225734Y-96786942D02*
X173178115Y-96882180D01*
X173178115Y-96882180D02*
X173130496Y-96929800D01*
X173130496Y-96929800D02*
X173035258Y-96977419D01*
X173035258Y-96977419D02*
X172654306Y-96977419D01*
X172654306Y-96977419D02*
X172654306Y-95977419D01*
X172654306Y-95977419D02*
X172987639Y-95977419D01*
X172987639Y-95977419D02*
X173082877Y-96025038D01*
X173082877Y-96025038D02*
X173130496Y-96072657D01*
X173130496Y-96072657D02*
X173178115Y-96167895D01*
X173178115Y-96167895D02*
X173178115Y-96263133D01*
X173178115Y-96263133D02*
X173130496Y-96358371D01*
X173130496Y-96358371D02*
X173082877Y-96405990D01*
X173082877Y-96405990D02*
X172987639Y-96453609D01*
X172987639Y-96453609D02*
X172654306Y-96453609D01*
X157021884Y-84277419D02*
X157021884Y-83277419D01*
X157498074Y-84277419D02*
X157498074Y-83277419D01*
X157498074Y-83277419D02*
X158069502Y-84277419D01*
X158069502Y-84277419D02*
X158069502Y-83277419D01*
X157355217Y-97723609D02*
X157498074Y-97771228D01*
X157498074Y-97771228D02*
X157545693Y-97818847D01*
X157545693Y-97818847D02*
X157593312Y-97914085D01*
X157593312Y-97914085D02*
X157593312Y-98056942D01*
X157593312Y-98056942D02*
X157545693Y-98152180D01*
X157545693Y-98152180D02*
X157498074Y-98199800D01*
X157498074Y-98199800D02*
X157402836Y-98247419D01*
X157402836Y-98247419D02*
X157021884Y-98247419D01*
X157021884Y-98247419D02*
X157021884Y-97247419D01*
X157021884Y-97247419D02*
X157355217Y-97247419D01*
X157355217Y-97247419D02*
X157450455Y-97295038D01*
X157450455Y-97295038D02*
X157498074Y-97342657D01*
X157498074Y-97342657D02*
X157545693Y-97437895D01*
X157545693Y-97437895D02*
X157545693Y-97533133D01*
X157545693Y-97533133D02*
X157498074Y-97628371D01*
X157498074Y-97628371D02*
X157450455Y-97675990D01*
X157450455Y-97675990D02*
X157355217Y-97723609D01*
X157355217Y-97723609D02*
X157021884Y-97723609D01*
X157545693Y-94755038D02*
X157450455Y-94707419D01*
X157450455Y-94707419D02*
X157307598Y-94707419D01*
X157307598Y-94707419D02*
X157164741Y-94755038D01*
X157164741Y-94755038D02*
X157069503Y-94850276D01*
X157069503Y-94850276D02*
X157021884Y-94945514D01*
X157021884Y-94945514D02*
X156974265Y-95135990D01*
X156974265Y-95135990D02*
X156974265Y-95278847D01*
X156974265Y-95278847D02*
X157021884Y-95469323D01*
X157021884Y-95469323D02*
X157069503Y-95564561D01*
X157069503Y-95564561D02*
X157164741Y-95659800D01*
X157164741Y-95659800D02*
X157307598Y-95707419D01*
X157307598Y-95707419D02*
X157402836Y-95707419D01*
X157402836Y-95707419D02*
X157545693Y-95659800D01*
X157545693Y-95659800D02*
X157593312Y-95612180D01*
X157593312Y-95612180D02*
X157593312Y-95278847D01*
X157593312Y-95278847D02*
X157402836Y-95278847D01*
X157593312Y-93167419D02*
X157259979Y-92691228D01*
X157021884Y-93167419D02*
X157021884Y-92167419D01*
X157021884Y-92167419D02*
X157402836Y-92167419D01*
X157402836Y-92167419D02*
X157498074Y-92215038D01*
X157498074Y-92215038D02*
X157545693Y-92262657D01*
X157545693Y-92262657D02*
X157593312Y-92357895D01*
X157593312Y-92357895D02*
X157593312Y-92500752D01*
X157593312Y-92500752D02*
X157545693Y-92595990D01*
X157545693Y-92595990D02*
X157498074Y-92643609D01*
X157498074Y-92643609D02*
X157402836Y-92691228D01*
X157402836Y-92691228D02*
X157021884Y-92691228D01*
X171130496Y-98565038D02*
X171035258Y-98517419D01*
X171035258Y-98517419D02*
X170892401Y-98517419D01*
X170892401Y-98517419D02*
X170749544Y-98565038D01*
X170749544Y-98565038D02*
X170654306Y-98660276D01*
X170654306Y-98660276D02*
X170606687Y-98755514D01*
X170606687Y-98755514D02*
X170559068Y-98945990D01*
X170559068Y-98945990D02*
X170559068Y-99088847D01*
X170559068Y-99088847D02*
X170606687Y-99279323D01*
X170606687Y-99279323D02*
X170654306Y-99374561D01*
X170654306Y-99374561D02*
X170749544Y-99469800D01*
X170749544Y-99469800D02*
X170892401Y-99517419D01*
X170892401Y-99517419D02*
X170987639Y-99517419D01*
X170987639Y-99517419D02*
X171130496Y-99469800D01*
X171130496Y-99469800D02*
X171178115Y-99422180D01*
X171178115Y-99422180D02*
X171178115Y-99088847D01*
X171178115Y-99088847D02*
X170987639Y-99088847D01*
X171606687Y-99517419D02*
X171606687Y-98517419D01*
X171606687Y-98517419D02*
X172178115Y-99517419D01*
X172178115Y-99517419D02*
X172178115Y-98517419D01*
X172654306Y-99517419D02*
X172654306Y-98517419D01*
X172654306Y-98517419D02*
X172892401Y-98517419D01*
X172892401Y-98517419D02*
X173035258Y-98565038D01*
X173035258Y-98565038D02*
X173130496Y-98660276D01*
X173130496Y-98660276D02*
X173178115Y-98755514D01*
X173178115Y-98755514D02*
X173225734Y-98945990D01*
X173225734Y-98945990D02*
X173225734Y-99088847D01*
X173225734Y-99088847D02*
X173178115Y-99279323D01*
X173178115Y-99279323D02*
X173130496Y-99374561D01*
X173130496Y-99374561D02*
X173035258Y-99469800D01*
X173035258Y-99469800D02*
X172892401Y-99517419D01*
X172892401Y-99517419D02*
X172654306Y-99517419D01*
X157545693Y-99835038D02*
X157450455Y-99787419D01*
X157450455Y-99787419D02*
X157307598Y-99787419D01*
X157307598Y-99787419D02*
X157164741Y-99835038D01*
X157164741Y-99835038D02*
X157069503Y-99930276D01*
X157069503Y-99930276D02*
X157021884Y-100025514D01*
X157021884Y-100025514D02*
X156974265Y-100215990D01*
X156974265Y-100215990D02*
X156974265Y-100358847D01*
X156974265Y-100358847D02*
X157021884Y-100549323D01*
X157021884Y-100549323D02*
X157069503Y-100644561D01*
X157069503Y-100644561D02*
X157164741Y-100739800D01*
X157164741Y-100739800D02*
X157307598Y-100787419D01*
X157307598Y-100787419D02*
X157402836Y-100787419D01*
X157402836Y-100787419D02*
X157545693Y-100739800D01*
X157545693Y-100739800D02*
X157593312Y-100692180D01*
X157593312Y-100692180D02*
X157593312Y-100358847D01*
X157593312Y-100358847D02*
X157402836Y-100358847D01*
X158021884Y-100787419D02*
X158021884Y-99787419D01*
X158021884Y-99787419D02*
X158593312Y-100787419D01*
X158593312Y-100787419D02*
X158593312Y-99787419D01*
X159069503Y-100787419D02*
X159069503Y-99787419D01*
X159069503Y-99787419D02*
X159307598Y-99787419D01*
X159307598Y-99787419D02*
X159450455Y-99835038D01*
X159450455Y-99835038D02*
X159545693Y-99930276D01*
X159545693Y-99930276D02*
X159593312Y-100025514D01*
X159593312Y-100025514D02*
X159640931Y-100215990D01*
X159640931Y-100215990D02*
X159640931Y-100358847D01*
X159640931Y-100358847D02*
X159593312Y-100549323D01*
X159593312Y-100549323D02*
X159545693Y-100644561D01*
X159545693Y-100644561D02*
X159450455Y-100739800D01*
X159450455Y-100739800D02*
X159307598Y-100787419D01*
X159307598Y-100787419D02*
X159069503Y-100787419D01*
X157545693Y-80730038D02*
X157450455Y-80682419D01*
X157450455Y-80682419D02*
X157307598Y-80682419D01*
X157307598Y-80682419D02*
X157164741Y-80730038D01*
X157164741Y-80730038D02*
X157069503Y-80825276D01*
X157069503Y-80825276D02*
X157021884Y-80920514D01*
X157021884Y-80920514D02*
X156974265Y-81110990D01*
X156974265Y-81110990D02*
X156974265Y-81253847D01*
X156974265Y-81253847D02*
X157021884Y-81444323D01*
X157021884Y-81444323D02*
X157069503Y-81539561D01*
X157069503Y-81539561D02*
X157164741Y-81634800D01*
X157164741Y-81634800D02*
X157307598Y-81682419D01*
X157307598Y-81682419D02*
X157402836Y-81682419D01*
X157402836Y-81682419D02*
X157545693Y-81634800D01*
X157545693Y-81634800D02*
X157593312Y-81587180D01*
X157593312Y-81587180D02*
X157593312Y-81253847D01*
X157593312Y-81253847D02*
X157402836Y-81253847D01*
X158021884Y-81682419D02*
X158021884Y-80682419D01*
X158021884Y-80682419D02*
X158593312Y-81682419D01*
X158593312Y-81682419D02*
X158593312Y-80682419D01*
X159069503Y-81682419D02*
X159069503Y-80682419D01*
X159069503Y-80682419D02*
X159307598Y-80682419D01*
X159307598Y-80682419D02*
X159450455Y-80730038D01*
X159450455Y-80730038D02*
X159545693Y-80825276D01*
X159545693Y-80825276D02*
X159593312Y-80920514D01*
X159593312Y-80920514D02*
X159640931Y-81110990D01*
X159640931Y-81110990D02*
X159640931Y-81253847D01*
X159640931Y-81253847D02*
X159593312Y-81444323D01*
X159593312Y-81444323D02*
X159545693Y-81539561D01*
X159545693Y-81539561D02*
X159450455Y-81634800D01*
X159450455Y-81634800D02*
X159307598Y-81682419D01*
X159307598Y-81682419D02*
X159069503Y-81682419D01*
D11*
%TO.C,R3*%
X168550000Y-109835836D02*
X168550000Y-109620164D01*
X169270000Y-109835836D02*
X169270000Y-109620164D01*
%TO.C,R2*%
X160930000Y-109835836D02*
X160930000Y-109620164D01*
X161650000Y-109835836D02*
X161650000Y-109620164D01*
%TO.C,R1*%
X164740000Y-109835836D02*
X164740000Y-109620164D01*
X165460000Y-109835836D02*
X165460000Y-109620164D01*
%TO.C,L1*%
X159510000Y-89062779D02*
X159510000Y-88737221D01*
X160530000Y-89062779D02*
X160530000Y-88737221D01*
%TO.C,J6*%
X156320000Y-85200000D02*
X154940000Y-85200000D01*
X156320000Y-83820000D02*
X156320000Y-85200000D01*
X156320000Y-82550000D02*
X156320000Y-79900000D01*
X156320000Y-82550000D02*
X153560000Y-82550000D01*
X156320000Y-79900000D02*
X153560000Y-79900000D01*
X153560000Y-82550000D02*
X153560000Y-79900000D01*
%TO.C,J5*%
X173880000Y-90060000D02*
X175260000Y-90060000D01*
X173880000Y-91440000D02*
X173880000Y-90060000D01*
X173880000Y-92710000D02*
X173880000Y-100440000D01*
X173880000Y-92710000D02*
X176640000Y-92710000D01*
X173880000Y-100440000D02*
X176640000Y-100440000D01*
X176640000Y-92710000D02*
X176640000Y-100440000D01*
%TO.C,J4*%
X153560000Y-88790000D02*
X154940000Y-88790000D01*
X153560000Y-90170000D02*
X153560000Y-88790000D01*
X153560000Y-91440000D02*
X153560000Y-101710000D01*
X153560000Y-91440000D02*
X156320000Y-91440000D01*
X153560000Y-101710000D02*
X156320000Y-101710000D01*
X156320000Y-91440000D02*
X156320000Y-101710000D01*
%TO.C,J3*%
X167530000Y-100220000D02*
X168910000Y-100220000D01*
X167530000Y-101600000D02*
X167530000Y-100220000D01*
X167530000Y-102870000D02*
X167530000Y-108060000D01*
X167530000Y-102870000D02*
X170290000Y-102870000D01*
X167530000Y-108060000D02*
X170290000Y-108060000D01*
X170290000Y-102870000D02*
X170290000Y-108060000D01*
%TO.C,J2*%
X163720000Y-100220000D02*
X165100000Y-100220000D01*
X163720000Y-101600000D02*
X163720000Y-100220000D01*
X163720000Y-102870000D02*
X163720000Y-108060000D01*
X163720000Y-102870000D02*
X166480000Y-102870000D01*
X163720000Y-108060000D02*
X166480000Y-108060000D01*
X166480000Y-102870000D02*
X166480000Y-108060000D01*
%TO.C,J1*%
X159910000Y-100220000D02*
X161290000Y-100220000D01*
X159910000Y-101600000D02*
X159910000Y-100220000D01*
X159910000Y-102870000D02*
X159910000Y-108060000D01*
X159910000Y-102870000D02*
X162670000Y-102870000D01*
X159910000Y-108060000D02*
X162670000Y-108060000D01*
X162670000Y-102870000D02*
X162670000Y-108060000D01*
%TO.C,IC1*%
X163280000Y-92480000D02*
X164255000Y-92480000D01*
X163280000Y-93455000D02*
X163280000Y-92480000D01*
X163280000Y-96700000D02*
X163280000Y-95725000D01*
X164255000Y-96700000D02*
X163280000Y-96700000D01*
X166525000Y-92480000D02*
X167500000Y-92480000D01*
X167500000Y-92480000D02*
X167500000Y-93455000D01*
X167500000Y-95725000D02*
X167500000Y-96700000D01*
X167500000Y-96700000D02*
X166525000Y-96700000D01*
X162780000Y-93840000D02*
X162450000Y-94080000D01*
X162450000Y-93600000D01*
X162780000Y-93840000D01*
G36*
X162780000Y-93840000D02*
G01*
X162450000Y-94080000D01*
X162450000Y-93600000D01*
X162780000Y-93840000D01*
G37*
%TO.C,C4*%
X159560000Y-82260000D02*
X160060000Y-82260000D01*
X159810000Y-82010000D02*
X159810000Y-82510000D01*
X160300000Y-82624437D02*
X160300000Y-82760000D01*
X160300000Y-82624437D02*
X161364437Y-81560000D01*
X160300000Y-85015563D02*
X160300000Y-84880000D01*
X160300000Y-85015563D02*
X161364437Y-86080000D01*
X161364437Y-81560000D02*
X164820000Y-81560000D01*
X161364437Y-86080000D02*
X164820000Y-86080000D01*
X164820000Y-81560000D02*
X164820000Y-82760000D01*
X164820000Y-86080000D02*
X164820000Y-84880000D01*
%TO.C,C3*%
X164992164Y-87990000D02*
X165207836Y-87990000D01*
X164992164Y-87270000D02*
X165207836Y-87270000D01*
%TO.C,C2*%
X164992164Y-89260000D02*
X165207836Y-89260000D01*
X164992164Y-88540000D02*
X165207836Y-88540000D01*
%TO.C,C1*%
X164992164Y-89810000D02*
X165207836Y-89810000D01*
X164992164Y-90530000D02*
X165207836Y-90530000D01*
%TD*%
M02*
