M48
; DRILL file {KiCad 9.0.7} date 2026-02-18T22:45:18+0000
; FORMAT={-:-/ absolute / metric / decimal}
; #@! TF.CreationDate,2026-02-18T22:45:18+00:00
; #@! TF.GenerationSoftware,Kicad,Pcbnew,9.0.7
; #@! TF.FileFunction,Plated,1,2,PTH
FMAT,2
METRIC
; #@! TA.AperFunction,Plated,PTH,ViaDrill
T1C0.300
; #@! TA.AperFunction,Plated,PTH,ComponentDrill
T2C1.000
%
G90
G05
T1
X157.226Y-89.154
X157.48Y-91.694
X157.48Y-93.98
X157.48Y-96.52
X159.258Y-86.614
X160.02Y-94.488
X160.02Y-96.52
X160.274Y-98.806
X160.782Y-92.456
X161.29Y-90.043
X162.179Y-96.52
X162.179Y-98.679
X162.433Y-91.567
X162.56Y-92.456
X163.195Y-89.535
X163.449Y-88.138
X163.576Y-90.297
X164.084Y-98.552
X164.592Y-93.726
X164.592Y-95.504
X164.846Y-99.187
X165.423Y-94.557
X166.116Y-93.726
X166.116Y-95.504
X166.624Y-98.044
X167.64Y-87.757
X167.64Y-90.043
X167.64Y-99.06
X167.767Y-97.663
X168.148Y-92.583
X168.91Y-90.17
X168.91Y-93.98
X169.164Y-96.266
X169.545Y-92.456
X170.18Y-90.17
X171.196Y-96.266
X171.323Y-92.964
X171.323Y-99.314
X171.704Y-89.154
X173.228Y-90.551
T2
X154.94Y-81.28
X154.94Y-83.82
X154.94Y-90.17
X154.94Y-92.71
X154.94Y-95.25
X154.94Y-97.79
X154.94Y-100.33
X161.29Y-101.6
X161.29Y-104.14
X161.29Y-106.68
X165.1Y-101.6
X165.1Y-104.14
X165.1Y-106.68
X168.91Y-101.6
X168.91Y-104.14
X168.91Y-106.68
X175.26Y-91.44
X175.26Y-93.98
X175.26Y-96.52
X175.26Y-99.06
M30
