%TF.GenerationSoftware,KiCad,Pcbnew,9.0.7*%
%TF.CreationDate,2026-02-18T22:45:12+00:00*%
%TF.ProjectId,OSDSwitch,4f534453-7769-4746-9368-2e6b69636164,rev?*%
%TF.SameCoordinates,Original*%
%TF.FileFunction,Soldermask,Top*%
%TF.FilePolarity,Negative*%
%FSLAX46Y46*%
G04 Gerber Fmt 4.6, Leading zero omitted, Abs format (unit mm)*
G04 Created by KiCad (PCBNEW 9.0.7) date 2026-02-18 22:45:12*
%MOMM*%
%LPD*%
G01*
G04 APERTURE LIST*
G04 Aperture macros list*
%AMRoundRect*
0 Rectangle with rounded corners*
0 $1 Rounding radius*
0 $2 $3 $4 $5 $6 $7 $8 $9 X,Y pos of 4 corners*
0 Add a 4 corners polygon primitive as box body*
4,1,4,$2,$3,$4,$5,$6,$7,$8,$9,$2,$3,0*
0 Add four circle primitives for the rounded corners*
1,1,$1+$1,$2,$3*
1,1,$1+$1,$4,$5*
1,1,$1+$1,$6,$7*
1,1,$1+$1,$8,$9*
0 Add four rect primitives between the rounded corners*
20,1,$1+$1,$2,$3,$4,$5,0*
20,1,$1+$1,$4,$5,$6,$7,0*
20,1,$1+$1,$6,$7,$8,$9,0*
20,1,$1+$1,$8,$9,$2,$3,0*%
G04 Aperture macros list end*
%ADD10RoundRect,0.140000X0.170000X-0.140000X0.170000X0.140000X-0.170000X0.140000X-0.170000X-0.140000X0*%
%ADD11RoundRect,0.218750X0.256250X-0.218750X0.256250X0.218750X-0.256250X0.218750X-0.256250X-0.218750X0*%
%ADD12R,1.700000X1.700000*%
%ADD13C,1.700000*%
%ADD14RoundRect,0.062500X-0.337500X-0.062500X0.337500X-0.062500X0.337500X0.062500X-0.337500X0.062500X0*%
%ADD15RoundRect,0.062500X-0.062500X-0.337500X0.062500X-0.337500X0.062500X0.337500X-0.062500X0.337500X0*%
%ADD16R,2.450000X2.450000*%
%ADD17RoundRect,0.250000X-1.050000X-0.550000X1.050000X-0.550000X1.050000X0.550000X-1.050000X0.550000X0*%
%ADD18RoundRect,0.140000X-0.140000X-0.170000X0.140000X-0.170000X0.140000X0.170000X-0.140000X0.170000X0*%
G04 APERTURE END LIST*
D10*
%TO.C,R3*%
X168910000Y-110208000D03*
X168910000Y-109248000D03*
%TD*%
%TO.C,R2*%
X161290000Y-110208000D03*
X161290000Y-109248000D03*
%TD*%
%TO.C,R1*%
X165100000Y-110208000D03*
X165100000Y-109248000D03*
%TD*%
D11*
%TO.C,L1*%
X160020000Y-89687500D03*
X160020000Y-88112500D03*
%TD*%
D12*
%TO.C,J6*%
X154940000Y-83820000D03*
D13*
X154940000Y-81280000D03*
%TD*%
D12*
%TO.C,J5*%
X175260000Y-91440000D03*
D13*
X175260000Y-93980000D03*
X175260000Y-96520000D03*
X175260000Y-99060000D03*
%TD*%
D12*
%TO.C,J4*%
X154940000Y-90170000D03*
D13*
X154940000Y-92710000D03*
X154940000Y-95250000D03*
X154940000Y-97790000D03*
X154940000Y-100330000D03*
%TD*%
D12*
%TO.C,J3*%
X168910000Y-101600000D03*
D13*
X168910000Y-104140000D03*
X168910000Y-106680000D03*
%TD*%
D12*
%TO.C,J2*%
X165100000Y-101600000D03*
D13*
X165100000Y-104140000D03*
X165100000Y-106680000D03*
%TD*%
D12*
%TO.C,J1*%
X161290000Y-101600000D03*
D13*
X161290000Y-104140000D03*
X161290000Y-106680000D03*
%TD*%
D14*
%TO.C,IC1*%
X163440000Y-93840000D03*
X163440000Y-94340000D03*
X163440000Y-94840000D03*
X163440000Y-95340000D03*
D15*
X164640000Y-96540000D03*
X165140000Y-96540000D03*
X165640000Y-96540000D03*
X166140000Y-96540000D03*
D14*
X167340000Y-95340000D03*
X167340000Y-94840000D03*
X167340000Y-94340000D03*
X167340000Y-93840000D03*
D15*
X166140000Y-92640000D03*
X165640000Y-92640000D03*
X165140000Y-92640000D03*
X164640000Y-92640000D03*
D16*
X165390000Y-94590000D03*
%TD*%
D17*
%TO.C,C4*%
X160760000Y-83820000D03*
X164360000Y-83820000D03*
%TD*%
D18*
%TO.C,C3*%
X165580000Y-87630000D03*
X164620000Y-87630000D03*
%TD*%
%TO.C,C2*%
X165580000Y-88900000D03*
X164620000Y-88900000D03*
%TD*%
%TO.C,C1*%
X164620000Y-90170000D03*
X165580000Y-90170000D03*
%TD*%
M02*
